<?xml version="1.0" standalone="no"?>
<!DOCTYPE svg PUBLIC "-//W3C//DTD SVG 1.1//EN" "http://www.w3.org/Graphics/SVG/1.1/DTD/svg11.dtd" >
<svg xmlns="http://www.w3.org/2000/svg" xmlns:xlink="http://www.w3.org/1999/xlink" version="1.1">
<metadata>
Created by FontForge 20170731 at Sat May 31 05:42:09 2014
 By ,,,
Font data copyright Google 2014
</metadata>
<defs>
<font id="RobotoCondensed-BoldItalic" horiz-adv-x="1196" >
  <font-face 
    font-family="Roboto Condensed"
    font-weight="700"
    font-style="italic"
    font-stretch="normal"
    units-per-em="2048"
    panose-1="0 0 0 0 0 0 0 0 0 0"
    ascent="1536"
    descent="-512"
    x-height="1082"
    cap-height="1456"
    bbox="-1458 -555 2167 2163"
    underline-thickness="100"
    underline-position="-300"
    unicode-range="U+0002-FFFD"
  />
<missing-glyph horiz-adv-x="468" 
 />
    <glyph glyph-name="fi" unicode="fi" horiz-adv-x="1094" 
d="M50 0l151 869h-127l37 213h119l8 44q17 97 54.5 177.5t97 137.5t140 88t184.5 30q74 -2 144 -20.5t139 -41.5l-68 -240q-51 23 -105.5 36.5t-111.5 13.5q-86 0 -134.5 -50.5t-64.5 -131.5l-8 -43h173l-38 -213h-161l-151 -869h-278zM867 0h-277l188 1082h277z" />
    <glyph glyph-name=".notdef" horiz-adv-x="468" 
 />
    <glyph glyph-name=".null" horiz-adv-x="0" 
 />
    <glyph glyph-name="nonmarkingreturn" unicode="&#xd;" horiz-adv-x="468" 
 />
    <glyph glyph-name="NULL" horiz-adv-x="0" 
 />
    <glyph glyph-name="NULL" horiz-adv-x="0" 
 />
    <glyph glyph-name="uni0002" horiz-adv-x="49" 
 />
    <glyph glyph-name="uni0009" unicode="&#x9;" horiz-adv-x="49" 
 />
    <glyph glyph-name="space" unicode=" " horiz-adv-x="468" 
 />
    <glyph glyph-name="exclam" unicode="!" horiz-adv-x="527" 
d="M355 448h-229l143 1008h293zM35 132q0 33 11 62t31 50.5t48 34.5t61 14q33 0 60 -11.5t47 -31.5t31.5 -47.5t11.5 -59.5q0 -33 -10.5 -62t-30.5 -51t-48 -34.5t-61 -13.5q-33 0 -60.5 11t-47.5 31.5t-31.5 48t-11.5 59.5z" />
    <glyph glyph-name="quotedbl" unicode="&#x22;" horiz-adv-x="646" 
d="M381 1385l-100 -400h-162l87 551h199zM698 1385l-100 -400h-162l87 551h199z" />
    <glyph glyph-name="numbersign" unicode="#" horiz-adv-x="1035" 
d="M497 410h-124l-129 -410h-175l129 410h-175l30 173h199l90 283h-180l30 174h204l132 416h175l-132 -416h124l132 416h176l-132 -416h172l-31 -174h-195l-90 -283h174l-30 -173h-198l-130 -410h-176zM427 583h124l90 283h-123z" />
    <glyph glyph-name="dollar" unicode="$" horiz-adv-x="1015" 
d="M608 392q8 69 -16 122.5t-84 90.5q-69 43 -127 86t-98.5 95.5t-60.5 119t-14 156.5q6 84 35.5 154t79 123.5t117 87.5t150.5 46l39 214h149l-41 -220q78 -22 127 -70t76 -111.5t35.5 -136.5t5.5 -144h-277q1 16 2 40t-0.5 50.5t-6 52.5t-14.5 47t-27 34t-43 14
q-35 1 -59.5 -16.5t-40.5 -44.5t-24.5 -59.5t-11.5 -60.5q-8 -69 18.5 -120t85.5 -89q68 -44 125 -88t97 -97t59.5 -119.5t13.5 -155.5q-6 -85 -35 -155.5t-78 -123t-117 -85.5t-152 -45l-38 -199h-147l38 201q-87 18 -143.5 64t-89.5 110t-44.5 141t-7.5 157h277
q-2 -32 -1.5 -74t10.5 -80t34.5 -64t70.5 -26q37 0 64 15.5t45.5 41t29 57.5t14.5 64z" />
    <glyph glyph-name="percent" unicode="%" horiz-adv-x="1279" 
d="M190 1175q6 61 28 116.5t59 97.5t89 66t118 23q64 -2 110.5 -27t76 -67t42 -96t8.5 -112l-6 -77q-6 -61 -28 -116t-59 -96t-89 -65t-118 -22q-63 1 -109.5 26t-76.5 66.5t-43 95t-9 111.5zM363 1097q-1 -18 0 -40t7 -42t20 -33.5t38 -14.5q25 -1 43.5 12t31 32.5t19.5 43
t10 44.5l8 78q1 18 1 40.5t-6 43t-19.5 34.5t-38.5 15q-26 1 -44.5 -12t-31 -33.5t-19.5 -44t-10 -44.5zM605 356q6 61 27.5 116.5t59 97t89.5 65.5t118 23q64 -2 110.5 -27t76 -66.5t42.5 -95.5t9 -112l-7 -78q-6 -61 -28 -116t-58.5 -96.5t-88.5 -65.5t-118 -22
q-63 1 -110 26.5t-77 66.5t-43 94.5t-9 112.5zM779 277q-1 -17 0 -39t8 -42t20.5 -34.5t36.5 -15.5q28 -2 46.5 10.5t30.5 32.5t18 44t9 46l9 79q1 18 0.5 40.5t-6.5 42.5t-20 34t-38 15q-26 1 -44.5 -12t-31 -33t-19.5 -43.5t-10 -44.5zM334 112l-128 82l769 1126l129 -82z
" />
    <glyph glyph-name="ampersand" unicode="&#x26;" horiz-adv-x="1160" 
d="M37 385q5 66 29 121t61 101.5t84 86.5t99 76q-15 38 -28 76.5t-23 77.5t-14 79t-1 81q6 79 34 151t76.5 126.5t116 86t152.5 29.5q68 -2 122.5 -29.5t92 -73t56 -105t14.5 -125.5q-6 -105 -59.5 -186.5t-135.5 -142.5l-97 -71l134 -252q27 54 45 108.5t26 114.5l230 1
q-11 -127 -50 -242.5t-120 -214.5l135 -259h-296l-37 74q-69 -45 -142.5 -70t-156.5 -23q-86 2 -153.5 34t-112.5 86.5t-66 127t-15 156.5zM415 215q42 -2 81.5 15t74.5 37l-161 325l-11 -8q-31 -42 -51.5 -86.5t-26.5 -96.5q-3 -26 -1.5 -57.5t11.5 -59.5t30 -48t54 -21z
M482 1091q-5 -44 7 -86t29 -81l53 36q43 32 69.5 72t31.5 94q1 18 -1.5 38.5t-10.5 38t-23 28.5t-37 11q-29 0 -49.5 -15t-35 -37.5t-22.5 -49t-11 -49.5z" />
    <glyph glyph-name="quotesingle" unicode="'" horiz-adv-x="330" 
d="M389 1375l-89 -392h-181l87 553h208z" />
    <glyph glyph-name="parenleft" unicode="(" horiz-adv-x="652" 
d="M115 588q13 91 35 190.5t55 199t78 195t104 179.5t132 152.5t163 113.5l42 -160q-90 -84 -153.5 -185.5t-107.5 -213t-71 -230t-44 -236.5l-4 -28q-8 -62 -17 -136t-13.5 -153t-1.5 -160t17 -156.5t42.5 -143t76.5 -118.5l-64 -153q-76 51 -128.5 124.5t-86.5 160
t-51 182t-22 191.5t0 188.5t16 172.5z" />
    <glyph glyph-name="parenright" unicode=")" horiz-adv-x="652" 
d="M535 572q-13 -91 -36 -191t-57.5 -200t-81.5 -196.5t-108 -180.5t-136 -151.5t-166 -109.5l-38 157q89 85 152.5 186.5t107.5 213t71.5 230t44.5 237.5l4 28q8 60 17 134t13.5 153.5t2 161t-17 157.5t-43 143t-75.5 117l61 154q77 -49 131.5 -121.5t90 -159t54 -183
t25 -193t2 -189.5t-14.5 -172z" />
    <glyph glyph-name="asterisk" unicode="*" horiz-adv-x="912" 
d="M384 967l-290 89l83 174l287 -128l37 354h192l-75 -350l308 120l30 -191l-327 -90l165 -269l-163 -106l-131 292l-218 -279l-148 116z" />
    <glyph glyph-name="plus" unicode="+" horiz-adv-x="954" 
d="M640 816h275l-46 -263h-274l-71 -407h-262l71 407h-280l46 263h279l68 390h262z" />
    <glyph glyph-name="comma" unicode="," horiz-adv-x="498" 
d="M281 49q-20 -125 -86.5 -231.5t-165.5 -184.5l-146 80q24 39 48 76.5t44.5 76t36.5 79.5t25 88l37 213h240z" />
    <glyph glyph-name="hyphen" unicode="-" horiz-adv-x="732" 
d="M578 506h-476l42 236h476z" />
    <glyph glyph-name="period" unicode="." horiz-adv-x="588" 
d="M43 138q0 35 12 64.5t33.5 51.5t51 34.5t64.5 12.5q33 0 62 -11t50.5 -31t34 -48t12.5 -61q0 -35 -12 -64.5t-34 -51t-52 -34t-64 -12.5q-33 0 -61.5 10.5t-49.5 30.5t-33.5 48t-13.5 61z" />
    <glyph glyph-name="slash" unicode="/" horiz-adv-x="668" 
d="M79 -125h-210l698 1581h210z" />
    <glyph glyph-name="zero" unicode="0" horiz-adv-x="1015" 
d="M916 603q-10 -69 -27.5 -143t-44.5 -144t-65 -132.5t-90.5 -108.5t-120 -72t-152.5 -23q-82 2 -139.5 31.5t-96 77.5t-59.5 110.5t-29.5 131t-6.5 138.5t10 133l39 254q10 70 27 143.5t44 143.5t65.5 131.5t90.5 107.5t119.5 71.5t152.5 23.5q82 -3 139.5 -32t96 -77
t60 -110.5t30 -130.5t6.5 -138t-10 -133zM683 898q2 19 6.5 51t7 69.5t1.5 76.5t-10.5 71t-28.5 53.5t-52 23.5q-39 3 -67 -14.5t-48.5 -47.5t-34 -68.5t-22 -77.5t-14 -75.5t-8.5 -61.5l-48 -336q-2 -19 -6.5 -51.5t-7 -70.5t-1.5 -77.5t10.5 -72t28.5 -54t53 -23.5
q39 -3 67.5 15t49 48t33.5 69t21.5 78.5t13.5 76t8 62.5z" />
    <glyph glyph-name="one" unicode="1" horiz-adv-x="1015" 
d="M593 0h-277l192 1106l-288 -106l44 247l541 211h34z" />
    <glyph glyph-name="two" unicode="2" horiz-adv-x="1015" 
d="M832 0h-834l33 211l450 491q31 35 63 74.5t59.5 83t47.5 89.5t26 94q3 27 3 61t-8.5 65t-28.5 52.5t-57 22.5q-48 1 -79.5 -23.5t-51 -62t-29.5 -81t-14 -79.5l-275 -1q7 96 44 184t98.5 154t146 104.5t186.5 37.5q91 -2 160 -32.5t114.5 -84.5t65.5 -128.5t12 -162.5
t-41.5 -164.5t-82.5 -145.5t-107 -132.5t-114 -124.5l-223 -267h473z" />
    <glyph glyph-name="three" unicode="3" horiz-adv-x="1015" 
d="M381 857l123 -2q45 1 78 18.5t55.5 46.5t35.5 66.5t18 78.5q3 28 1.5 59t-12 57.5t-31.5 44t-56 18.5t-60.5 -13.5t-44 -38.5t-30 -53.5t-16.5 -58.5l-276 -1q7 87 43.5 161t95 127t135.5 82.5t166 27.5q90 -2 161 -32.5t119 -84t70.5 -127.5t15.5 -164
q-5 -57 -24.5 -105.5t-51 -89t-73 -73.5t-89.5 -59q43 -26 71.5 -62.5t45 -79t21.5 -89.5t1 -95q-7 -98 -47 -179.5t-105 -139.5t-151 -89t-184 -28q-91 2 -159.5 35.5t-114 90.5t-67 132.5t-18.5 161.5l275 -1q-1 -29 3 -61t16.5 -59t35 -45t59.5 -19q43 -2 76 16.5
t56.5 48t37 67t18.5 74.5q4 36 3 72t-13 65t-37 48.5t-68 21.5l-148 1z" />
    <glyph glyph-name="four" unicode="4" horiz-adv-x="1015" 
d="M808 550h121l-41 -235h-120l-55 -315h-277l56 315h-467l20 196l636 945h284zM326 550h206l93 491l-10 -15z" />
    <glyph glyph-name="five" unicode="5" horiz-adv-x="1015" 
d="M139 720l197 736h688l-43 -242h-457l-90 -314q36 26 77 40.5t86 15.5q66 0 115.5 -20.5t84.5 -56.5t56.5 -83.5t33 -101.5t13.5 -110.5t-3 -109.5q-9 -97 -45.5 -187.5t-97.5 -160t-145.5 -110.5t-190.5 -38q-90 3 -158.5 39t-115 94.5t-69 135t-20.5 160.5h273
q0 -29 4 -62t15.5 -61.5t33.5 -48t59 -20.5q51 -2 85 26.5t54.5 71.5t30 91.5t13.5 87.5q3 34 3 77t-11 80.5t-36.5 63t-72.5 25.5q-48 1 -82.5 -21t-62.5 -57z" />
    <glyph glyph-name="six" unicode="6" horiz-adv-x="1015" 
d="M877 1472l-24 -241l-10 1q-88 1 -156 -26.5t-120 -77t-90.5 -116t-66.5 -141.5q47 48 102.5 76.5t124.5 27.5q62 -1 108.5 -24t79 -61t52.5 -87.5t30 -103.5t11.5 -109t-2.5 -104q-9 -95 -44.5 -187t-95.5 -164t-144 -115t-189 -41q-76 2 -133.5 28.5t-99 70t-68 101
t-40 121.5t-16 131t4.5 129l15 112q13 100 41 198t71.5 187t103 164.5t136 131t170.5 87t206 32.5h43zM533 743q-28 1 -51.5 -9t-43 -27t-35 -39t-27.5 -44l-13 -104q-2 -19 -4.5 -49t-2.5 -63.5t4 -67.5t15.5 -61.5t31.5 -45.5t52 -19t57.5 12t45 35t33.5 50.5t23.5 59
t15 60t7.5 53.5q3 29 2.5 73t-10.5 85t-33.5 70.5t-66.5 30.5z" />
    <glyph glyph-name="seven" unicode="7" horiz-adv-x="1015" 
d="M1028 1280l-642 -1280h-301l639 1221h-562l37 235h856z" />
    <glyph glyph-name="eight" unicode="8" horiz-adv-x="1015" 
d="M965 1077q-8 -112 -66.5 -194t-153.5 -138q75 -63 105 -152t22 -186q-7 -95 -43 -174.5t-95 -136.5t-139.5 -88t-177.5 -28q-89 2 -158.5 33.5t-116 86.5t-68 129.5t-14.5 161.5q10 126 76 216.5t175 147.5q-64 60 -89.5 139.5t-19.5 165.5q6 90 39.5 167t89 133.5
t132 87.5t169.5 29q87 -2 152 -33.5t107.5 -85.5t61.5 -126t12 -155zM600 429q3 27 1.5 61.5t-11 65.5t-30.5 52t-58 22q-42 1 -71 -20.5t-48.5 -54t-29.5 -71t-13 -71.5q-3 -28 -1.5 -62.5t12 -65t32 -51t59.5 -21.5q42 -1 70.5 20.5t47 53.5t28 70.5t12.5 71.5zM688 1061
q2 23 1.5 54t-8 59t-24.5 48t-50 21q-36 0 -60.5 -20t-39.5 -50t-22.5 -64t-9.5 -62q-2 -23 -2 -54.5t7.5 -60.5t24.5 -49.5t50 -21.5q37 0 61.5 20.5t39.5 51t22 65.5t10 63z" />
    <glyph glyph-name="nine" unicode="9" horiz-adv-x="1015" 
d="M213 228q85 -2 151 22t116 68.5t86.5 107t62.5 137.5q-42 -38 -90 -65t-107 -27q-63 0 -110.5 22t-81 59t-54.5 85.5t-32 102.5t-13.5 109t2.5 105q9 94 43.5 188t94 169.5t143 121.5t188.5 44q76 -2 132 -30.5t95.5 -74.5t63.5 -106t36 -125.5t13 -132t-6 -126.5
l-13 -102q-14 -103 -42 -201.5t-71 -187t-102.5 -163t-136.5 -128.5t-172 -85t-209 -31h-23l25 244h11zM519 691q25 0 46 10.5t38 27t31 36.5t26 39l16 132q2 17 4.5 46t2.5 62.5t-3.5 68.5t-14 63t-29 46.5t-48.5 19.5q-47 1 -78 -30.5t-50 -77.5t-28.5 -95t-12.5 -82
q-2 -19 -3 -46t0 -56.5t6.5 -58.5t17.5 -52.5t31 -38t48 -14.5z" />
    <glyph glyph-name="colon" unicode=":" horiz-adv-x="555" 
d="M45 138q0 35 12 64.5t33.5 51.5t51 34.5t64.5 12.5q33 0 62 -11t50.5 -31t34 -48t12.5 -61q0 -35 -12 -64.5t-34 -51t-52 -34t-64 -12.5q-33 0 -61.5 10.5t-49.5 30.5t-33.5 48t-13.5 61zM186 956q0 35 12 64.5t33.5 51.5t51 34.5t64.5 12.5q33 0 62 -11t50.5 -31t34 -48
t12.5 -61q0 -35 -12 -64.5t-34 -51t-52 -34t-64 -12.5q-33 0 -61.5 10.5t-49.5 30.5t-33.5 48t-13.5 61z" />
    <glyph glyph-name="semicolon" unicode=";" horiz-adv-x="516" 
d="M170 956q0 35 12 64.5t33.5 51.5t51 34.5t64.5 12.5q33 0 62 -11t50.5 -31t34 -48t12.5 -61q0 -35 -12 -64.5t-34 -51t-52 -34t-64 -12.5q-33 0 -61.5 10.5t-49.5 30.5t-33.5 48t-13.5 61zM304 49q-20 -125 -86.5 -231.5t-165.5 -184.5l-146 80q24 39 48 76.5t44.5 76
t36.5 79.5t25 88l37 213h240z" />
    <glyph glyph-name="less" unicode="&#x3c;" horiz-adv-x="898" 
d="M328 611l406 -199l-47 -270l-645 365l42 238l771 365l-51 -295z" />
    <glyph glyph-name="equal" unicode="=" horiz-adv-x="1009" 
d="M894 744h-742l42 238h742zM819 311h-742l42 237h742z" />
    <glyph glyph-name="greater" unicode="&#x3e;" horiz-adv-x="912" 
d="M570 627l-414 201l47 268l654 -365l-41 -238l-782 -365l52 293z" />
    <glyph glyph-name="question" unicode="?" horiz-adv-x="900" 
d="M278 447q4 58 15.5 109.5t31.5 98.5t50 90t72 84q27 26 54 54t49.5 59t39 66t21.5 74q3 22 4 49.5t-5.5 52t-22.5 41t-47 17.5q-32 1 -55 -17t-38 -44t-24 -56.5t-13 -55.5l-275 -1q9 90 41.5 166t87 130.5t130 84.5t170.5 28q85 -2 150.5 -31t108.5 -80t62 -121t12 -154
q-5 -67 -30 -122t-62 -103.5t-82 -92t-90 -87.5q-53 -51 -79 -109t-38 -129zM190 136q0 33 11 62t30.5 50.5t47.5 34.5t61 14t60.5 -10.5t47.5 -31.5t31 -48t11 -60q0 -33 -10.5 -62t-30.5 -51t-48 -34.5t-61 -13.5q-33 0 -60 11t-47 31.5t-31.5 48t-11.5 59.5z" />
    <glyph glyph-name="at" unicode="@" horiz-adv-x="1532" 
d="M1433 542q-9 -58 -25.5 -123t-42 -128.5t-61 -120.5t-82 -100.5t-105 -68.5t-130.5 -23q-66 2 -114 36t-68 98q-21 -26 -44 -49.5t-49.5 -42t-57 -29.5t-65.5 -10q-53 1 -89.5 24t-59.5 59.5t-34 84t-13.5 96t1 95.5t9.5 84q10 56 29 120t47 127.5t65.5 122t85.5 103
t106.5 70t127.5 24.5q39 -1 72.5 -9t64 -22.5t59.5 -34t58 -42.5l-127 -582q-3 -18 -8 -45t-3.5 -52.5t13 -44.5t40.5 -20q40 -2 71.5 19t55.5 56t42 79.5t30 89.5t20 85t12 67q12 73 18 154.5t0.5 160t-26.5 150.5t-63.5 127.5t-109.5 89t-164 35.5q-102 3 -188 -31.5
t-156 -94.5t-125.5 -140.5t-96.5 -169.5t-68.5 -181.5t-42.5 -177.5q-13 -73 -20.5 -155t-3 -163.5t25 -156t62.5 -131.5t109 -91.5t166 -35.5q75 -1 146.5 17.5t138.5 50.5l23 -159q-66 -48 -148.5 -67.5t-163.5 -18.5q-127 2 -220 41t-157 106t-101.5 156t-53.5 189.5
t-12.5 208t20.5 210.5q18 109 54.5 222.5t91.5 221t127.5 201.5t163 164.5t199 110t234.5 37.5q119 -2 208 -40.5t150.5 -103t99 -150.5t54 -182t15 -198t-16.5 -199zM619 423q-2 -13 -6 -37.5t-7 -53.5t-2.5 -60t7 -56t20.5 -41.5t39 -17.5q24 -1 45.5 16.5t38.5 42.5
t28.5 52t17.5 45l120 496q-11 3 -20.5 5t-20.5 2q-47 2 -83 -17t-63 -51t-46 -74t-32.5 -86.5t-22 -87.5t-13.5 -77z" />
    <glyph glyph-name="A" unicode="A" 
d="M738 298h-387l-127 -298h-312l694 1456h263l191 -1456h-297zM456 543h262l-41 516z" />
    <glyph glyph-name="B" unicode="B" horiz-adv-x="1125" 
d="M9 0l252 1456l422 -1q92 -2 168.5 -26.5t130 -72.5t80 -120.5t19.5 -170.5q-9 -115 -69 -194.5t-163 -127.5q46 -19 75 -52.5t44.5 -75.5t20 -88t1.5 -91q-8 -107 -47.5 -189t-104.5 -137.5t-153 -83t-193 -26.5h-483zM406 633l-68 -389l168 -2q44 1 79 16t60 41.5
t40.5 62.5t21.5 78q4 31 4.5 64t-9 60.5t-31 46t-60.5 21.5zM442 847l136 -2q90 2 144 51t66 138q5 37 2.5 68.5t-15.5 54.5t-38.5 37t-65.5 16l-165 1z" />
    <glyph glyph-name="C" unicode="C" horiz-adv-x="1143" 
d="M1042 486q-13 -114 -56 -208t-112.5 -161t-165.5 -103.5t-214 -33.5q-88 2 -155 27.5t-115 69.5t-78.5 103.5t-46 128t-17.5 143.5t8 151l38 248q18 121 61 235t115 201.5t175 139.5t240 49q117 -2 197 -43t130 -110.5t72 -163t22 -199.5l-289 1q3 51 2 99t-15 85.5
t-47.5 61.5t-94.5 26q-53 2 -93 -13.5t-69.5 -44t-49.5 -66.5t-33.5 -80.5t-22 -88t-13.5 -87.5l-36 -251q-4 -34 -9 -75t-6.5 -82.5t4 -80.5t22 -70t47 -50.5t79.5 -21.5q64 -3 107 17t70.5 55.5t43 84.5t24.5 105z" />
    <glyph glyph-name="D" unicode="D" horiz-adv-x="1132" 
d="M9 0l252 1456l359 -1q131 -3 223.5 -54.5t148 -136t75 -194.5t4.5 -230l-34 -226q-20 -130 -70.5 -242.5t-131 -195.5t-191 -130t-249.5 -46h-386zM506 1211l-168 -967l71 -2q88 0 148.5 28t99.5 78.5t61 118.5t33 147l33 229q5 42 9 85t2 83t-11.5 75.5t-31 62.5
t-56.5 43t-88 18z" />
    <glyph glyph-name="E" unicode="E" horiz-adv-x="985" 
d="M849 630h-444l-67 -386h526l-43 -244h-812l252 1456h811l-43 -245h-523l-60 -344h445z" />
    <glyph glyph-name="F" unicode="F" horiz-adv-x="955" 
d="M842 594h-443l-103 -594h-287l252 1456h784l-43 -245h-496l-65 -373h444z" />
    <glyph glyph-name="G" unicode="G" horiz-adv-x="1172" 
d="M1010 165q-45 -50 -102.5 -85.5t-122 -58t-132.5 -32.5t-133 -9q-90 1 -159 26t-119.5 68t-83.5 102t-50.5 128t-20 145t7.5 155l37 246q12 82 35 161.5t58 149.5t82.5 129t109.5 101t138.5 64.5t169.5 20.5q114 -2 194 -38t130 -100t73 -152t24 -195l-279 1
q0 46 -4 88.5t-20 75.5t-47 54t-85 23q-80 3 -132 -32t-84.5 -91.5t-49.5 -125t-26 -132.5l-35 -249q-5 -37 -8.5 -79.5t-1.5 -84t10.5 -80t29 -68t54.5 -47.5t85 -19q50 -1 91 13.5t83 37.5l51 268h-201l39 222h486z" />
    <glyph glyph-name="H" unicode="H" horiz-adv-x="1229" 
d="M1001 0h-286l108 623h-419l-108 -623h-287l252 1456h287l-102 -589h419l103 589h286z" />
    <glyph glyph-name="I" unicode="I" horiz-adv-x="547" 
d="M308 0h-287l253 1456h287z" />
    <glyph glyph-name="J" unicode="J" horiz-adv-x="984" 
d="M726 1456h287l-172 -1008q-13 -95 -50 -180.5t-97 -150.5t-142 -102.5t-185 -35.5q-100 2 -169.5 38.5t-112.5 98t-61 142.5t-13 173l290 -1q-2 -28 -2.5 -63.5t7.5 -67t28 -53.5t60 -23q42 -1 71 21.5t47.5 56.5t28 73.5t14.5 72.5z" />
    <glyph glyph-name="K" unicode="K" horiz-adv-x="1109" 
d="M512 558l-146 -154l-70 -404h-287l252 1456h287l-108 -619l116 154l336 465h367l-527 -653l266 -803h-327z" />
    <glyph glyph-name="L" unicode="L" horiz-adv-x="961" 
d="M338 244h501l-43 -244h-787l252 1456h287z" />
    <glyph glyph-name="M" unicode="M" horiz-adv-x="1516" 
d="M631 1456l85 -1047l447 1047h378l-253 -1456h-288l70 403l126 575l-446 -978h-195l-110 1011l-83 -627l-66 -384h-287l252 1456h370z" />
    <glyph glyph-name="N" unicode="N" horiz-adv-x="1226" 
d="M998 0h-280l-254 965l-168 -965h-287l252 1456h281l255 -966l168 966h286z" />
    <glyph glyph-name="O" unicode="O" horiz-adv-x="1209" 
d="M1111 598q-12 -81 -36 -159.5t-60 -147.5t-85 -127t-111.5 -99.5t-139 -64t-167.5 -20.5q-87 2 -154.5 27t-118 68t-83.5 101t-50.5 126t-21 143t6.5 152l37 242q12 82 36 161.5t60 151t85 132t112 104t140.5 67t170.5 21.5q88 -2 156 -28.5t117.5 -72t81.5 -106.5
t48.5 -131t19 -146.5t-7.5 -152.5zM859 843q4 34 8 75t3.5 83.5t-7.5 83t-25 72.5t-49 52t-79 22q-53 2 -94 -14t-72 -45.5t-52.5 -69t-37 -83.5t-25 -90t-15.5 -88l-35 -245q-4 -34 -7.5 -74.5t-2 -81t10 -79t27 -68t49.5 -48.5t79 -21q77 -3 128.5 31.5t84.5 90t50 122.5
t26 129z" />
    <glyph glyph-name="P" unicode="P" horiz-adv-x="1140" 
d="M385 512l-89 -512h-287l252 1456l467 -1q101 -3 177.5 -41t127 -101.5t72.5 -148.5t14 -182q-10 -108 -52.5 -195.5t-111.5 -149t-160.5 -94t-199.5 -32.5zM427 757l185 -2q49 1 87.5 18.5t65.5 48t43.5 71t22.5 87.5q4 35 3 74t-13 72.5t-37.5 56.5t-68.5 26l-209 2z
" />
    <glyph glyph-name="Q" unicode="Q" horiz-adv-x="1209" 
d="M1112 616q-12 -79 -32.5 -154t-54 -142.5t-81.5 -127t-115 -106.5l163 -187l-197 -159l-215 244q-18 -2 -36.5 -3t-36.5 0q-88 1 -156 28t-117.5 72t-81 105.5t-48.5 130.5t-19.5 146t7.5 152l34 224q12 82 35.5 161.5t60 151t85.5 132t112 104t140.5 67t170.5 21.5
q89 -2 157 -28.5t117.5 -72t81.5 -106.5t48.5 -131t19 -146.5t-7.5 -152.5zM859 843q4 34 8 75t3.5 83.5t-8 83t-25.5 72.5t-49.5 52t-79.5 22q-53 2 -93.5 -14t-71.5 -45.5t-53 -69t-37.5 -83.5t-25 -90t-15.5 -88l-32 -227q-4 -34 -8 -75.5t-3.5 -84t8 -83t26 -72.5
t49.5 -52.5t80 -22.5q52 -3 93 14t71.5 46.5t52.5 69.5t37 84t24.5 90t15.5 87z" />
    <glyph glyph-name="R" unicode="R" horiz-adv-x="1110" 
d="M535 532h-146l-92 -532h-287l252 1456l440 -1q98 -3 173.5 -34t126 -86.5t73 -134t14.5 -176.5q-12 -141 -77.5 -248t-194.5 -168l146 -592v-16h-308zM431 777l151 -2q49 1 87 19t65 48.5t43.5 71t22.5 86.5q5 35 4.5 71t-12 66t-35.5 50t-67 23l-183 1z" />
    <glyph glyph-name="S" unicode="S" horiz-adv-x="1083" 
d="M678 389q6 45 -3.5 78.5t-31.5 59.5t-53.5 46t-70.5 38q-72 34 -136 76t-111 96t-72.5 122.5t-19.5 155.5q6 98 49 175.5t110.5 131.5t154 82t180.5 26q98 -2 173.5 -37.5t125.5 -96t74.5 -142t21.5 -175.5l-286 1q2 37 -2 73.5t-18 66.5t-41.5 48.5t-72.5 19.5
q-39 0 -71 -13t-56 -37t-39.5 -56t-19.5 -69q-5 -39 9.5 -69.5t39.5 -55t57 -43.5t63 -33q77 -36 141 -79.5t108.5 -99t67 -126t15.5 -162.5q-7 -99 -47.5 -176.5t-105 -130t-149.5 -80t-181 -25.5q-105 2 -187.5 39t-139 101t-84.5 151.5t-24 189.5l288 -1q-3 -48 2 -91.5
t23.5 -76.5t52.5 -52.5t90 -19.5q78 1 122.5 48t53.5 122z" />
    <glyph glyph-name="T" unicode="T" horiz-adv-x="1089" 
d="M1135 1211h-349l-210 -1211h-288l210 1211h-344l43 245h981z" />
    <glyph glyph-name="U" unicode="U" horiz-adv-x="1145" 
d="M1182 1456l-170 -1000q-15 -111 -57 -200t-109 -151.5t-158.5 -95t-206.5 -30.5q-108 2 -188.5 37t-132 97.5t-72 149.5t-8.5 193l170 1000h288l-168 -1001q-5 -45 -4.5 -86.5t14 -73t43 -50.5t82.5 -21q56 -2 95 14.5t65 48t40 74.5t21 94l169 1001h287z" />
    <glyph glyph-name="V" unicode="V" horiz-adv-x="1158" 
d="M539 403l402 1053h327l-635 -1456h-299l-177 1456h311z" />
    <glyph glyph-name="W" unicode="W" horiz-adv-x="1498" 
d="M1020 545l276 911h288l-478 -1456h-288l-30 854l-296 -854h-289l-25 1456h282l-11 -908l307 908h242z" />
    <glyph glyph-name="X" unicode="X" horiz-adv-x="1122" 
d="M607 958l267 498h339l-452 -735l221 -721h-322l-113 507l-272 -507h-343l462 746l-216 710h317z" />
    <glyph glyph-name="Y" unicode="Y" horiz-adv-x="1088" 
d="M570 805l325 651h323l-548 -942l-89 -514h-291l95 543l-216 913h302z" />
    <glyph glyph-name="Z" unicode="Z" horiz-adv-x="1063" 
d="M361 244h576l-39 -244h-917l30 189l729 1022h-576l39 245h913l-29 -185z" />
    <glyph glyph-name="bracketleft" unicode="[" horiz-adv-x="534" 
d="M621 1471h-102l-248 -1587h102l-35 -223h-379l318 2034h379z" />
    <glyph glyph-name="backslash" unicode="\" horiz-adv-x="768" 
d="M162 1456h273l221 -1581h-273z" />
    <glyph glyph-name="bracketright" unicode="]" horiz-adv-x="534" 
d="M204 1695h379l-318 -2034h-380l36 223h102l248 1587h-103z" />
    <glyph glyph-name="asciicircum" unicode="^" horiz-adv-x="786" 
d="M496 1181l-206 -452h-226l371 727h199l117 -727h-207z" />
    <glyph glyph-name="underscore" unicode="_" horiz-adv-x="804" 
d="M630 -228h-754l40 228h754z" />
    <glyph glyph-name="grave" unicode="`" horiz-adv-x="668" 
d="M642 1226h-217l-220 310h293z" />
    <glyph glyph-name="a" unicode="a" horiz-adv-x="945" 
d="M507 0q-5 21 -6.5 41.5t-1.5 42.5q-42 -48 -93 -76.5t-117 -28.5q-66 1 -117.5 27t-86.5 69.5t-52 100.5t-14 119q5 97 45 166.5t103.5 114t144.5 65.5t170 21h88l13 88q2 21 2.5 44.5t-5.5 42.5t-21 32t-43 13q-29 1 -49 -9.5t-34 -27.5t-22.5 -40t-12.5 -47l-275 -2
q5 82 41.5 147.5t93.5 110t130.5 67.5t152.5 22q81 -2 143 -28t103.5 -73t59.5 -112.5t10 -145.5l-77 -481q-5 -29 -9.5 -60t-6 -62.5t1.5 -62.5t13 -60l-1 -18h-271zM365 200q42 -1 75.5 17.5t60.5 46.5l49 229h-60q-39 -2 -71.5 -15.5t-56.5 -37.5t-39.5 -56t-20.5 -71
q-2 -19 -1.5 -38.5t7.5 -36t20.5 -27t36.5 -11.5z" />
    <glyph glyph-name="b" unicode="b" horiz-adv-x="994" 
d="M905 512q-7 -60 -20 -123.5t-33.5 -124t-51 -113.5t-74 -92t-100.5 -61t-131 -19q-70 3 -122 36.5t-86 93.5l-35 -109h-257l267 1536h276l-105 -543q42 50 93.5 80.5t119.5 29.5q70 -1 119 -25t80.5 -64t48 -92.5t22.5 -110t4 -116.5t-7 -112zM636 579q2 22 6 51.5
t5.5 61t-1 62.5t-13 55.5t-31.5 39.5t-55 16q-47 2 -80 -21.5t-59 -58.5l-86 -496q16 -38 43.5 -56t69.5 -20q41 -2 70 10.5t49.5 35t33.5 52t21 63t12 67.5t8 65z" />
    <glyph glyph-name="c" unicode="c" horiz-adv-x="924" 
d="M415 213q36 -1 61 12.5t41 36.5t25 52.5t14 59.5l259 1q-8 -84 -40.5 -157.5t-86.5 -127t-127.5 -83.5t-161.5 -28q-113 3 -185.5 48t-112 118t-50 165.5t0.5 190.5l9 78q9 69 27 135t46.5 125t67.5 108.5t90 84.5t115 53.5t142 16.5q92 -3 156 -38t103.5 -93.5
t55.5 -134t12 -159.5l-260 1q1 29 0.5 61.5t-9.5 61t-29.5 47.5t-58.5 21q-39 2 -66.5 -11t-46.5 -35.5t-31 -53t-19.5 -63t-11.5 -66t-7 -61.5l-7 -79q-2 -22 -6.5 -51.5t-6.5 -61t0 -62.5t12 -55.5t30.5 -40t55.5 -16.5z" />
    <glyph glyph-name="d" unicode="d" horiz-adv-x="995" 
d="M56 569q7 60 20.5 123.5t35 123.5t53.5 113.5t76 93t101 61t131 19.5q62 -2 110 -31t83 -80l102 544h278l-266 -1536h-248l15 110q-22 -28 -46.5 -52t-52.5 -42t-60.5 -28t-69.5 -10q-69 1 -117 25t-80 64.5t-49.5 93.5t-24.5 110.5t-6 115.5t7 110zM326 501
q-2 -21 -5.5 -50t-5 -60.5t1.5 -63t13.5 -56t30.5 -40.5t54 -16q45 -1 77 21t59 54l87 497q-17 35 -41.5 56t-65.5 23q-59 3 -95 -25.5t-57 -73t-30.5 -97t-14.5 -96.5z" />
    <glyph glyph-name="e" unicode="e" horiz-adv-x="961" 
d="M436 -20q-109 1 -186 42t-123.5 109t-63.5 158t-6 190l11 89q13 104 47.5 201.5t94.5 172.5t147.5 119t204.5 41q112 -3 181.5 -50t105.5 -122t44 -168t-4 -187l-19 -129h-540q-5 -43 -3 -83.5t16 -72.5t44 -52.5t81 -21.5q69 -2 129.5 24.5t112.5 70.5l93 -172
q-31 -42 -73.5 -72.5t-90.5 -50t-100 -28.5t-103 -8zM535 869q-48 2 -79.5 -19t-52 -54t-33 -74t-21.5 -78l275 -1l5 29q5 31 6 65t-7.5 63t-30.5 48t-62 21z" />
    <glyph glyph-name="f" unicode="f" horiz-adv-x="661" 
d="M58 0l151 869h-127l37 213l127 1l12 92q10 82 40 153t79 123t117.5 81t156.5 28q34 0 66.5 -6t65.5 -14l-23 -228q-17 5 -33.5 8t-33.5 3q-34 0 -60.5 -11t-46 -31.5t-31.5 -47.5t-18 -58l-14 -93h164l-37 -213h-164l-151 -869h-277z" />
    <glyph glyph-name="g" unicode="g" horiz-adv-x="1009" 
d="M61 568q7 61 21 125t36.5 124t55.5 113t78 92t103.5 60.5t132.5 19.5q68 -2 121.5 -30t88.5 -88l34 99l252 -1l-184 -1082q-14 -102 -53.5 -182.5t-103 -135.5t-149 -83.5t-189.5 -25.5q-43 1 -87 10t-85 25t-78.5 40t-67.5 55l113 194q40 -45 93.5 -70.5t113.5 -27.5
q49 -2 86.5 12t64 40t43.5 63t26 83l20 90q-44 -49 -95 -78.5t-119 -29.5q-69 1 -118 25t-81.5 64t-51.5 92.5t-27 109.5t-7.5 115.5t5.5 111.5zM329 501q-2 -22 -5 -51.5t-3 -61t4 -62t16 -55t33.5 -39.5t55.5 -16q42 -1 75 16t62 46l93 520q-19 33 -45.5 50t-64.5 19
q-59 3 -98 -25t-62.5 -72.5t-35.5 -97t-17 -98.5z" />
    <glyph glyph-name="h" unicode="h" horiz-adv-x="988" 
d="M425 986q45 52 100.5 85t126.5 32q57 -1 98.5 -20t69.5 -50.5t45 -73.5t24.5 -88.5t7.5 -95t-5 -94.5l-114 -681h-277l113 684q3 27 4.5 58.5t-5 58.5t-25.5 45.5t-56 18.5q-42 1 -72 -19.5t-56 -50.5l-139 -795h-277l267 1536h276z" />
    <glyph glyph-name="i" unicode="i" horiz-adv-x="511" 
d="M285 0h-277l188 1082h277zM232 1357q0 33 10.5 61t30.5 49t48 33.5t61 12.5q32 1 59 -10t47 -30.5t31.5 -46.5t11.5 -59q0 -33 -10.5 -61.5t-30.5 -49.5t-48 -33.5t-61 -12.5q-32 -1 -59.5 10t-47 30.5t-31 47t-11.5 59.5z" />
    <glyph glyph-name="j" unicode="j" horiz-adv-x="498" 
d="M474 1082l-194 -1139q-10 -78 -35.5 -148t-70 -122.5t-108.5 -83t-151 -30.5q-34 1 -67 5.5t-66 12.5l21 234q18 -5 36.5 -9t37.5 -4q31 0 53 12.5t36.5 33t22.5 46t13 52.5l195 1140h277zM227 1357q0 33 11 61t31 49t47.5 33t60.5 13q32 1 59 -10t47 -30.5t31.5 -46.5
t11.5 -59q0 -33 -10.5 -61.5t-30.5 -49.5t-48 -33.5t-61 -12.5q-32 -1 -59.5 10t-47 30.5t-31 47t-11.5 59.5z" />
    <glyph glyph-name="k" unicode="k" horiz-adv-x="961" 
d="M424 413l-97 -92l-56 -321h-276l267 1536h276l-153 -833l44 54l245 325h345l-394 -459l220 -623h-303z" />
    <glyph glyph-name="l" unicode="l" horiz-adv-x="511" 
d="M285 0h-277l266 1536h278z" />
    <glyph glyph-name="m" unicode="m" horiz-adv-x="1483" 
d="M440 1083l-18 -102q51 57 114 90t141 31q74 -2 126.5 -39t75.5 -107q27 33 56.5 60t63 46.5t72 30.5t82.5 10q56 -1 96 -20t67 -50.5t42.5 -72.5t22 -86.5t6 -93.5t-4.5 -92l-114 -688h-277l115 690q3 25 5 56t-4 57.5t-23 44.5t-53 18q-23 0 -42 -8.5t-35 -22t-29 -31
t-24 -35.5l-6 -48l-125 -721h-276l114 688q3 25 5.5 56t-3 58t-22.5 45.5t-53 18.5q-42 0 -71.5 -23.5t-54.5 -55.5l-137 -787h-276l188 1082z" />
    <glyph glyph-name="n" unicode="n" horiz-adv-x="988" 
d="M434 1083l-20 -109q25 29 52.5 53t59 41.5t67 26.5t74.5 8q56 -1 95.5 -20t66.5 -50.5t42 -73t21.5 -87t6 -93t-5.5 -91.5l-115 -688h-277l114 690q3 28 4.5 59t-5.5 57t-26 43t-56 17q-43 0 -73 -23.5t-56 -55.5l-137 -787h-278l188 1082z" />
    <glyph glyph-name="o" unicode="o" horiz-adv-x="998" 
d="M61 575q12 103 48.5 199t98 170t149 117.5t202.5 40.5q74 -2 130.5 -23.5t98 -59t68.5 -87.5t42 -107.5t18 -121t-4 -127.5l-8 -71q-12 -103 -48.5 -199t-98 -169.5t-148.5 -116.5t-202 -40q-111 3 -183.5 49t-114 120t-54 167t-2.5 189zM332 503q-2 -21 -4.5 -50.5
t-2.5 -61t4.5 -62.5t16 -56t32 -41.5t53.5 -18.5q57 -3 93 26.5t57.5 74.5t32 97t15.5 94l7 72q2 21 4.5 51t2.5 61.5t-5 63t-17 57t-33 41.5t-54 18q-54 3 -90 -27.5t-57.5 -76t-32.5 -97.5t-15 -92z" />
    <glyph glyph-name="p" unicode="p" horiz-adv-x="994" 
d="M905 508q-7 -59 -20.5 -121.5t-35 -122t-53 -112.5t-75 -92t-100 -61t-128.5 -19q-63 2 -113 29.5t-85 79.5l-96 -505h-276l260 1498l252 1l-15 -100q44 54 98 87.5t127 32.5q70 -1 119 -25.5t80.5 -65t48.5 -93.5t23 -111t4 -117.5t-7 -112.5zM636 584q2 21 5.5 50t4 60
t-2.5 61.5t-13.5 55t-31 39.5t-53.5 16q-45 1 -76.5 -19.5t-58.5 -53.5l-90 -510q17 -35 44.5 -51t67.5 -18q39 -2 68 11.5t50 36.5t35 54t22.5 64.5t13.5 67.5t8 64z" />
    <glyph glyph-name="q" unicode="q" horiz-adv-x="997" 
d="M57 571q7 60 20 123.5t34.5 123t52.5 112.5t74.5 92t101 60.5t131.5 19.5q70 -2 122.5 -35.5t85.5 -94.5l43 110h245l-260 -1498h-278l98 501q-42 -48 -93 -77.5t-117 -28.5q-69 1 -117 25.5t-79.5 65t-49 93.5t-24 110.5t-5.5 115.5t7 110zM327 499q-2 -21 -5 -50
t-4 -60.5t1.5 -62t13 -55.5t30.5 -40.5t53 -16.5q43 -1 74.5 17.5t58.5 49.5l91 518q-32 66 -106 69q-59 3 -96 -26.5t-58.5 -74.5t-31 -98t-14.5 -98z" />
    <glyph glyph-name="r" unicode="r" horiz-adv-x="669" 
d="M663 810l-44 6t-44 4q-61 1 -104 -27t-75 -78l-125 -715h-277l188 1082l259 1l-22 -119q17 27 36.5 52.5t43.5 45t53 31.5t64 12q22 0 43 -4.5t42 -10.5z" />
    <glyph glyph-name="s" unicode="s" horiz-adv-x="912" 
d="M515 297q4 29 -10.5 51t-38 39.5t-51 30t-47.5 22.5q-53 26 -100 56t-82 68.5t-54 88t-16 114.5q4 79 38.5 142t89 106.5t124.5 66t146 21.5q78 -2 142 -25.5t110 -67.5t71 -106.5t24 -141.5h-276q1 24 -1 47.5t-11 42t-26.5 29.5t-47.5 11q-48 0 -81.5 -32.5
t-41.5 -78.5q-5 -28 9.5 -49t38 -37t50 -28t45.5 -21q57 -26 106.5 -56t85 -69.5t54.5 -91t15 -120.5q-5 -83 -42 -145.5t-95 -104t-131.5 -61.5t-149.5 -18q-78 2 -143.5 28.5t-113 73t-74 111t-25.5 143.5l263 -1q-1 -31 3 -58t16.5 -46.5t34.5 -30.5t58 -11q52 1 88.5 28
t45.5 80z" />
    <glyph glyph-name="t" unicode="t" horiz-adv-x="620" 
d="M550 1348l-46 -266h140l-37 -213h-140l-91 -539q-3 -20 -4 -38.5t3.5 -33.5t16.5 -24.5t36 -10.5q17 -1 34 1l34 4l-25 -222q-35 -14 -71 -19.5t-73 -5.5q-70 1 -116.5 28t-73.5 70.5t-36 100.5t-3 120l93 569h-122l37 213h121l47 266h276z" />
    <glyph glyph-name="u" unicode="u" horiz-adv-x="988" 
d="M540 99q-47 -56 -105 -88.5t-133 -31.5q-83 1 -134 39t-77.5 96t-32.5 129t1 139l117 700h276l-117 -704q-2 -22 -3.5 -49.5t4 -52t21 -42t45.5 -18.5q49 -2 85 22t65 61l136 783h279l-188 -1082h-257z" />
    <glyph glyph-name="v" unicode="v" horiz-adv-x="902" 
d="M411 405l238 677h294l-457 -1082h-263l-121 1082h283z" />
    <glyph glyph-name="w" unicode="w" horiz-adv-x="1267" 
d="M840 477l199 605h270l-405 -1082h-229l-39 622l-256 -622h-231l-30 1082h260l-13 -601l243 601h197z" />
    <glyph glyph-name="x" unicode="x" horiz-adv-x="909" 
d="M471 763l172 319h303l-330 -542l159 -540h-283l-75 337l-181 -337h-305l343 566l-152 516h283z" />
    <glyph glyph-name="y" unicode="y" horiz-adv-x="897" 
d="M411 476l245 606h302l-558 -1245q-23 -55 -52.5 -105t-69.5 -88.5t-91 -61t-116 -22.5q-32 0 -62 6.5t-60 14.5l24 221q8 -1 15 -1.5t15 -0.5q66 -1 106 28t67 88l39 88l-112 1078h289z" />
    <glyph glyph-name="z" unicode="z" horiz-adv-x="909" 
d="M354 235h409l-37 -235h-743l30 188l501 658h-389l37 236h727l-28 -183z" />
    <glyph glyph-name="braceleft" unicode="{" horiz-adv-x="602" 
d="M355 -359q-75 30 -126 77.5t-80 108t-37.5 131.5t-0.5 148l28 204q4 34 5 68t-7.5 62t-30 47.5t-61.5 24.5l23 208q43 3 73.5 21.5t50.5 47.5t31 65t17 75l28 203q11 86 38 159.5t71.5 132.5t108 103t147.5 72l38 -164q-42 -22 -69 -56t-44.5 -74.5t-27 -85t-15.5 -87.5
l-27 -203q-14 -106 -64 -184t-143 -131q34 -29 56 -64t34 -74.5t15 -81.5t-1 -85l-27 -204q-5 -37 -10 -80t-2 -84.5t18.5 -78t51.5 -60.5z" />
    <glyph glyph-name="bar" unicode="|" horiz-adv-x="513" 
d="M204 -270h-173l270 1726h173z" />
    <glyph glyph-name="braceright" unicode="}" horiz-adv-x="602" 
d="M-73 -197q42 22 69 56t44.5 74.5t27 85t15.5 87.5l27 203q14 107 64.5 184.5t146.5 129.5q-36 28 -59 63t-35.5 74.5t-15.5 82.5t2 86l27 204q5 37 10 80t2 84.5t-19 78t-52 60.5l65 160q75 -30 125 -77.5t78.5 -108.5t36.5 -131.5t0 -146.5l-28 -204q-4 -34 -5 -68.5
t8 -63t30 -48t62 -24.5l-23 -208q-44 -3 -74 -21t-50 -46.5t-31.5 -64.5t-17.5 -75l-28 -203q-11 -86 -37.5 -159t-70.5 -132.5t-106.5 -104.5t-146.5 -74z" />
    <glyph glyph-name="asciitilde" unicode="~" horiz-adv-x="1117" 
d="M1033 795q-4 -45 -13.5 -94t-26.5 -96t-42.5 -89.5t-59.5 -74.5t-78 -50t-99 -17q-35 1 -66 12t-58 29t-50 42t-43 51q-10 13 -20.5 27.5t-22.5 26.5t-27 20.5t-34 8.5q-32 0 -53 -19t-34.5 -46.5t-20.5 -58.5t-11 -55l-201 3q5 67 25 141t58 135.5t96 100.5t140 37
q34 -1 65.5 -12t58.5 -29t50.5 -41.5t43.5 -50.5q9 -13 19.5 -28t22.5 -27.5t27 -20.5t34 -8q31 0 53 19.5t36 47.5t22 59.5t12 54.5z" />
    <glyph glyph-name="nonbreakingspace" unicode="&#xa0;" horiz-adv-x="468" 
 />
    <glyph glyph-name="exclamdown" unicode="&#xa1;" horiz-adv-x="548" 
d="M162 638h229l-142 -1007h-294zM482 952q0 -33 -11 -62t-31 -50.5t-48 -34.5t-61 -13q-33 -1 -60 10.5t-47 31.5t-31.5 47.5t-11.5 59.5q0 33 10.5 62t30.5 51t48 35t62 13q33 1 60 -10.5t47 -31.5t31.5 -48t11.5 -60z" />
    <glyph glyph-name="cent" unicode="&#xa2;" horiz-adv-x="1022" 
d="M442 213q36 -1 61 12.5t41 36.5t25 52.5t14 59.5l259 1q-7 -75 -34 -141.5t-71 -118.5t-104.5 -86t-133.5 -45l-40 -229h-187l42 241q-78 22 -128 72.5t-77 118.5t-33.5 149t3.5 165l9 78q12 95 42 184t80.5 160t123.5 118t171 58l38 219h187l-41 -236q60 -21 102.5 -61
t68 -93.5t36 -117.5t7.5 -133l-260 1q1 29 0.5 61.5t-9.5 61t-29.5 47.5t-58.5 21q-39 2 -66.5 -11t-46.5 -35.5t-31 -53t-19.5 -63t-11.5 -66t-7 -61.5l-7 -79q-2 -22 -6.5 -51.5t-6.5 -61t0 -62.5t12 -55.5t30.5 -40t55.5 -16.5z" />
    <glyph glyph-name="sterling" unicode="&#xa3;" horiz-adv-x="1052" 
d="M510 575l-17 -136q-8 -59 -31 -107t-64 -91l523 3l-42 -244h-881l37 243l70 -2q26 12 42.5 32t26 44.5t15 51.5t9.5 53l22 153h-124l41 237h118l30 227q10 89 44 169.5t90 141t133 95t173 31.5q92 -2 158 -36.5t107 -91.5t59 -132t14 -160l-274 1q1 25 0 55.5t-9 57.5
t-27 45.5t-53 18.5q-35 0 -58.5 -20.5t-38.5 -50.5t-23 -63.5t-11 -59.5l-26 -228h243l-42 -237h-234z" />
    <glyph glyph-name="currency" unicode="&#xa4;" horiz-adv-x="1384" 
d="M968 105q-82 -58 -174 -92.5t-195 -32.5q-92 2 -177 33t-154 93l-152 -132l-120 156l154 127q-27 85 -37.5 170.5t0.5 174.5q13 107 56 200.5t115 173.5l-115 155l150 133l110 -143q80 53 168.5 83.5t185.5 28.5q89 -1 171 -30t150 -86l169 148l122 -157l-170 -141
q29 -86 41 -173.5t1 -178.5q-25 -202 -157 -359l112 -149l-152 -134zM294 599q-11 -78 4.5 -154.5t55.5 -137t103.5 -98.5t149.5 -41q93 -3 175.5 34t146 100t105 145t53.5 170q10 78 -5 153.5t-55 135.5t-103.5 98t-148.5 41q-93 3 -175.5 -33.5t-146.5 -98.5t-105.5 -144
t-53.5 -170z" />
    <glyph glyph-name="yen" unicode="&#xa5;" horiz-adv-x="1078" 
d="M583 908l285 548h325l-423 -714h166l-31 -176h-236l-21 -114h238l-31 -175h-236l-49 -277h-287l49 277h-257l31 175h255l21 114h-257l31 176h204l-176 714h303z" />
    <glyph glyph-name="brokenbar" unicode="&#xa6;" horiz-adv-x="511" 
d="M-28 -270l138 795h256l-138 -795h-256zM395 698h-256l132 758h256z" />
    <glyph glyph-name="section" unicode="&#xa7;" horiz-adv-x="1107" 
d="M975 490q-8 -96 -54.5 -164t-127.5 -117q45 -62 59.5 -132.5t8.5 -145.5q-8 -97 -49.5 -169.5t-106.5 -120.5t-148.5 -71.5t-174.5 -21.5q-98 2 -174.5 30.5t-129 82t-78.5 130.5t-22 176l275 -1q-2 -40 5 -73t24 -56.5t46.5 -37t72.5 -13.5q34 0 65.5 9t56.5 27t41.5 45
t22.5 63q6 40 -9.5 69t-42.5 50t-61 36t-64 27q-73 30 -136 65.5t-108 83.5t-68.5 112.5t-16.5 151.5q8 96 55 164.5t126 118.5q-45 62 -60 132.5t-9 145.5q8 96 50.5 169.5t108.5 123t149.5 74.5t174.5 23q97 -2 171 -33.5t122.5 -87.5t71.5 -134t19 -173l-275 1
q1 34 -3.5 68t-18.5 61t-40 44t-67 18q-36 0 -67.5 -10t-56.5 -29.5t-41 -48t-22 -64.5q-6 -42 7 -71.5t38.5 -50t59 -35t67.5 -27.5q75 -29 139 -64t109.5 -83.5t69 -113.5t16.5 -153zM533 660q-24 10 -48.5 18.5t-47.5 18.5q-31 -30 -48 -64t-25 -77q-7 -43 3 -74
t31.5 -53.5t53.5 -39.5t68 -32q23 -10 47.5 -18.5t47.5 -18.5q32 30 52 63.5t28 77.5q7 41 -5 72t-35.5 54.5t-56 41t-65.5 31.5z" />
    <glyph glyph-name="dieresis" unicode="&#xa8;" horiz-adv-x="940" 
d="M209 1361q0 28 11 52t29.5 42t43 28t51.5 11q27 0 51 -9t43 -25.5t30.5 -39.5t11.5 -51t-10.5 -52t-29 -41.5t-43 -27.5t-51.5 -11q-27 0 -51.5 8.5t-43.5 25t-30.5 39.5t-11.5 51zM684 1361q0 28 10.5 52t29 41.5t43 27.5t51.5 11q27 0 51.5 -9t43 -25.5t30 -39.5
t11.5 -50q0 -28 -10.5 -52t-29 -41.5t-43 -27.5t-51.5 -11q-27 0 -51.5 8.5t-43.5 25t-30 39.5t-11 51z" />
    <glyph glyph-name="copyright" unicode="&#xa9;" horiz-adv-x="1568" 
d="M1079 596q-6 -75 -32.5 -134.5t-71.5 -100t-107 -61t-138 -18.5q-81 2 -139.5 35t-95.5 86.5t-52.5 122.5t-9.5 143l12 119q9 78 38 149t77 124.5t115 84.5t152 30q73 -2 130 -24t95.5 -63t57.5 -99t17 -130l-152 1q2 40 -4.5 73.5t-23.5 57t-46.5 36.5t-73.5 14
q-54 1 -94 -21t-67.5 -57.5t-44 -81.5t-22.5 -93l-14 -121q-4 -41 -1 -84.5t18.5 -80t45.5 -60.5t81 -26q45 -2 79.5 10t58.5 35t39 57t22 76zM223 722q-10 -76 -3 -151t30.5 -143t63.5 -126.5t94.5 -102t123.5 -69t152 -26.5q131 -3 246.5 49t205.5 140.5t148.5 203.5
t75.5 239q10 76 3 150.5t-30.5 142.5t-63 126t-94 101t-124 68t-151.5 27q-87 2 -168 -21t-152.5 -65.5t-132 -101.5t-106.5 -129.5t-76.5 -149.5t-41.5 -162zM103 722q11 99 45 194t87 179.5t124 155t155 121.5t180 78.5t200 25.5q99 -1 184 -31t153.5 -81t120 -121
t83.5 -152t44 -172.5t2 -183.5q-11 -99 -44.5 -194t-86.5 -179.5t-124 -155t-155 -121.5t-180 -79t-200 -26q-100 2 -185 31.5t-153.5 81t-120 121.5t-83.5 152t-44 172.5t-2 183.5z" />
    <glyph glyph-name="ordfeminine" unicode="&#xaa;" horiz-adv-x="791" 
d="M530 702q-1 17 -1.5 33t0.5 33q-33 -35 -72 -56t-89 -21q-48 0 -83.5 17.5t-59 48t-34.5 70.5t-9 84q2 66 28 111.5t68 74t96.5 41.5t113.5 13l78 -1l12 54q3 16 4.5 37.5t-2.5 40.5t-16 32t-36 14q-48 1 -73 -28t-35 -71l-165 14q4 55 26.5 99t58.5 74.5t83 46t102 14.5
q60 -1 102.5 -24t69 -60.5t37 -87.5t6.5 -105l-48 -314q-8 -47 -9.5 -91.5t4.5 -91.5zM408 833q16 0 32.5 5t31.5 13t29 18t27 20l34 146l-66 -1q-27 -2 -52.5 -9.5t-45.5 -22.5t-33.5 -36.5t-17.5 -50.5q-5 -35 9 -57.5t52 -24.5z" />
    <glyph glyph-name="guillemotleft" unicode="&#xab;" horiz-adv-x="902" 
d="M265 509l114 -385h-157l-166 389l1 19l288 391h185zM596 509l114 -385h-157l-166 389l1 19l288 391h185z" />
    <glyph glyph-name="logicalnot" unicode="&#xac;" horiz-adv-x="973" 
d="M772 374h-188l45 260h-502l31 171h689z" />
    <glyph glyph-name="uni00AD" unicode="&#xad;" horiz-adv-x="732" 
d="M578 506h-476l42 236h476z" />
    <glyph glyph-name="registered" unicode="&#xae;" horiz-adv-x="1568" 
d="M103 722q11 99 45 194t87 179.5t124 155t155 121.5t180 78.5t200 25.5q99 -1 184 -31t153.5 -81t120 -121t83.5 -152t44 -172.5t2 -183.5q-11 -99 -44.5 -194t-86.5 -179.5t-124 -155t-155 -121.5t-180 -79t-200 -26q-100 2 -185 31.5t-153.5 81t-120 121.5t-83.5 152
t-44 172.5t-2 183.5zM223 722q-10 -76 -3 -151t30.5 -143t63.5 -126.5t94.5 -102t123.5 -68.5t152 -27q87 -2 168 21.5t152.5 66t132 102t106.5 130.5t76 150t41 162q15 114 -8.5 223t-82.5 195.5t-152 140t-217 56.5q-87 2 -168 -21t-152.5 -65.5t-132 -101.5
t-106.5 -129.5t-76.5 -149.5t-41.5 -162zM642 653l-53 -337h-148l133 850l259 -1q59 -2 112.5 -17t93 -46t62 -78.5t18.5 -113.5q-2 -34 -13 -61t-29 -49.5t-42 -41t-51 -34.5q25 -18 40.5 -42t23 -51.5t9 -57t-1.5 -58.5l-6 -56q-4 -34 -3 -64t4 -62l-1 -18h-148
q-6 37 -4 73t6 73l7 55q6 63 -15.5 97t-87.5 38zM662 787l119 -1q30 1 62 7.5t59.5 20.5t47.5 37.5t26 57.5q7 37 -1.5 61t-28 37.5t-47 18.5t-59.5 6l-139 1z" />
    <glyph glyph-name="macron" unicode="&#xaf;" horiz-adv-x="920" 
d="M869 1290h-614l27 167h614z" />
    <glyph glyph-name="macron" unicode="&#x2c9;" horiz-adv-x="920" 
d="M869 1290h-614l27 167h614z" />
    <glyph glyph-name="degree" unicode="&#xb0;" horiz-adv-x="782" 
d="M227 1191q1 57 24.5 109t62 92t90 63t109.5 22q54 -1 98.5 -24t76 -60t48 -85t15.5 -99q-2 -57 -24 -108.5t-60 -90.5t-88.5 -62t-108.5 -22q-54 1 -99 23t-77.5 58.5t-50.5 84t-16 99.5zM370 1193q-3 -23 3 -44.5t19 -37.5t32.5 -25.5t43.5 -9.5q27 0 51 11t42.5 29
t31 41.5t15.5 49.5q3 23 -1.5 44.5t-16.5 39t-31 28t-43 10.5q-27 0 -52 -11.5t-45 -30.5t-33 -43.5t-16 -50.5z" />
    <glyph glyph-name="plusminus" unicode="&#xb1;" horiz-adv-x="950" 
d="M645 945h252l-38 -243h-252l-57 -363h-241l57 363h-256l39 243h254l54 342h241zM725 0h-710l42 238h710z" />
    <glyph glyph-name="twosuperior" unicode="&#xb2;" horiz-adv-x="676" 
d="M603 667h-519l26 149l265 248q15 16 32.5 34.5t32.5 39.5t26.5 44t15.5 46q2 12 2 25.5t-3.5 25t-12 19.5t-24.5 8q-21 0 -36 -11.5t-24.5 -28.5t-15.5 -37t-9 -36l-194 -1q4 57 25 107.5t56 88t83.5 59.5t108.5 22q56 0 101.5 -16.5t78 -47.5t49 -76t13.5 -102
q-3 -55 -24 -98t-52.5 -79t-69.5 -68t-75 -65l-83 -85h256z" />
    <glyph glyph-name="threesuperior" unicode="&#xb3;" horiz-adv-x="676" 
d="M329 1137h71q41 3 65.5 28.5t31.5 65.5q5 27 -5.5 48.5t-41.5 21.5q-30 0 -47 -17.5t-28 -41.5l-198 -1q5 54 26.5 96.5t56 71.5t80.5 44.5t100 14.5q50 -1 96 -14.5t81 -41t55 -68.5t18 -96q-3 -68 -42 -111t-97 -72q53 -23 75 -69t20 -101q-2 -60 -28 -105.5t-68 -76
t-95 -45t-108 -13.5q-56 1 -101 19.5t-76.5 51t-48 77.5t-16.5 101l190 -1q1 -16 4 -31t10.5 -26t20 -18t32.5 -7q40 0 65.5 28t31.5 65q6 38 -8 60.5t-52 24.5h-82z" />
    <glyph glyph-name="acute" unicode="&#xb4;" horiz-adv-x="670" 
d="M427 1536h326l-319 -310h-246z" />
    <glyph glyph-name="mu" unicode="&#xb5;" horiz-adv-x="1101" 
d="M486 1082l-101 -622q-2 -18 -5.5 -43t-4.5 -52t1.5 -53.5t11.5 -47.5t26.5 -34t46.5 -14q51 -1 88 23t67 63l135 780h278l-188 -1082h-248l7 51q-37 -32 -78 -52.5t-92 -20.5q-34 0 -63.5 9.5t-57.5 26.5l-83 -430h-275l260 1498h275z" />
    <glyph glyph-name="paragraph" unicode="&#xb6;" horiz-adv-x="875" 
d="M434 0l98 522h-54q-96 2 -163 41.5t-107 103.5t-55.5 145.5t-7.5 167.5q9 98 44.5 184.5t94.5 151.5t141.5 103t186.5 38l282 -1l-253 -1456h-207z" />
    <glyph glyph-name="periodcentered" unicode="&#xb7;" horiz-adv-x="576" 
d="M144 690q0 33 10.5 62.5t31 52t48.5 35.5t62 13q33 1 60.5 -10.5t47.5 -32t31.5 -48.5t11.5 -60q0 -33 -11 -62.5t-31 -51.5t-48 -35t-62 -13q-33 -1 -60.5 10.5t-47.5 31.5t-31.5 48t-11.5 60z" />
    <glyph glyph-name="cedilla" unicode="&#xb8;" horiz-adv-x="506" 
d="M215 7l-18 -61q27 -8 45.5 -24.5t29.5 -38.5t15 -47.5t4 -52.5q-2 -70 -31.5 -116.5t-76.5 -75t-105.5 -41t-118.5 -14.5l12 168q77 12 89 90q3 23 -4 36t-20.5 20t-31.5 9.5t-36 4.5l41 142z" />
    <glyph glyph-name="onesuperior" unicode="&#xb9;" horiz-adv-x="675" 
d="M478 668h-193l94 542l-151 -40l30 168l326 116h23z" />
    <glyph glyph-name="ordmasculine" unicode="&#xba;" horiz-adv-x="816" 
d="M197 1120q7 67 31 132t65 115.5t99.5 81t133.5 28.5q72 -2 122.5 -34t80.5 -82.5t41.5 -113.5t6.5 -126l-7 -77q-7 -67 -31 -131.5t-65 -115t-99 -80.5t-133 -28q-72 2 -122.5 34t-80.5 82t-42 113t-7 126zM354 1042q-2 -27 -2 -62.5t9 -67t29.5 -54.5t58.5 -24
q40 -1 68.5 19.5t46.5 52.5t28 69t14 69l7 78q2 27 2 62.5t-8.5 67t-29 54t-57.5 24.5q-41 1 -69 -19.5t-46.5 -52t-28.5 -68.5t-14 -69z" />
    <glyph glyph-name="guillemotright" unicode="&#xbb;" horiz-adv-x="903" 
d="M302 923l166 -388l-2 -20l-287 -391h-187l266 413l-115 386h159zM640 923l166 -388l-2 -20l-287 -391h-187l266 413l-115 386h159z" />
    <glyph glyph-name="onequarter" unicode="&#xbc;" horiz-adv-x="1247" 
d="M442 664h-193l94 542l-151 -40l30 168l326 116h23zM329 120l-128 82l769 1126l129 -82zM1043 326l64 1l-21 -168l-65 1l-31 -160h-193l28 159h-266l12 148l354 478l1 7l194 -3zM762 327h91l44 201l-10 -13z" />
    <glyph glyph-name="onehalf" unicode="&#xbd;" horiz-adv-x="1326" 
d="M295 120l-128 82l769 1126l129 -82zM430 670h-193l94 542l-151 -40l30 168l326 116h23zM1132 0h-519l26 149l265 248q15 16 32.5 34.5t32.5 39.5t26.5 44t15.5 46q2 12 2 25.5t-3.5 25t-12 19.5t-24.5 8q-21 0 -36 -11.5t-24.5 -28.5t-15.5 -37t-9 -36l-194 -1
q4 57 25 107.5t56 88t83.5 59.5t108.5 22q56 0 101.5 -16.5t78 -47.5t49 -76t13.5 -102q-3 -55 -24 -98t-52.5 -79t-69.5 -68t-75 -65l-83 -85h256z" />
    <glyph glyph-name="threequarters" unicode="&#xbe;" horiz-adv-x="1410" 
d="M461 120l-128 82l769 1126l129 -82zM1176 326l64 1l-21 -168l-65 1l-31 -160h-193l28 159h-266l12 148l354 478l1 7l194 -3zM895 327h91l44 201l-10 -13zM367 1138h71q41 3 65.5 28.5t31.5 65.5q5 27 -5.5 48.5t-41.5 21.5q-30 0 -47 -17.5t-28 -41.5l-198 -1
q5 54 26.5 96.5t56 71.5t80.5 44.5t100 14.5q50 -1 96 -14.5t81 -41t55 -68.5t18 -96q-3 -68 -42 -111t-97 -72q53 -23 75 -69t20 -101q-2 -60 -28 -105.5t-68 -76t-95 -45t-108 -13.5q-56 1 -101 19.5t-76.5 51t-48 77.5t-16.5 101l190 -1q1 -16 4 -31t10.5 -26t20 -18
t32.5 -7q40 0 65.5 28t31.5 65q6 38 -8 60.5t-52 24.5h-82z" />
    <glyph glyph-name="questiondown" unicode="&#xbf;" horiz-adv-x="898" 
d="M582 644q-5 -58 -15.5 -109t-30 -97.5t-49 -89t-70.5 -84.5q-28 -29 -55.5 -58.5t-50 -62t-38.5 -68.5t-21 -77q-3 -21 -3 -46.5t6 -48t21 -38t44 -16.5q34 -1 58 16t40 43t25 56.5t14 57.5l276 1q-8 -91 -41 -167t-88 -130.5t-131.5 -84t-170.5 -27.5q-86 2 -151 30.5
t-108 79.5t-62 121t-12 154q6 67 31 123.5t62 106t82 94t90 88.5q51 51 76 106t36 125zM681 953q0 -33 -11 -62t-30.5 -50.5t-47.5 -34.5t-61 -13q-33 -1 -60.5 10.5t-47.5 31.5t-31.5 47.5t-11.5 59.5q0 33 11 62.5t31 51t47.5 34.5t61.5 13q33 1 60 -10.5t47 -31.5
t31.5 -48t11.5 -60z" />
    <glyph glyph-name="Agrave" unicode="&#xc0;" 
d="M738 298h-387l-127 -298h-312l694 1456h263l191 -1456h-297zM456 543h262l-41 516zM892 1536h-217l-220 310h293z" />
    <glyph glyph-name="Aacute" unicode="&#xc1;" 
d="M738 298h-387l-127 -298h-312l694 1456h263l191 -1456h-297zM456 543h262l-41 516zM855 1846h326l-319 -310h-246z" />
    <glyph glyph-name="Acircumflex" unicode="&#xc2;" 
d="M738 298h-387l-127 -298h-312l694 1456h263l191 -1456h-297zM456 543h262l-41 516zM1101 1569v-18l-210 3l-95 143l-147 -142l-216 -3v20l289 274l155 1z" />
    <glyph glyph-name="Atilde" unicode="&#xc3;" 
d="M738 298h-387l-127 -298h-312l694 1456h263l191 -1456h-297zM456 543h262l-41 516zM1112 1832q-3 -44 -16 -91.5t-38 -87.5t-63 -65.5t-92 -24.5q-32 0 -58.5 15t-52 32t-51.5 30.5t-56 11.5q-19 -1 -32.5 -10.5t-22.5 -23t-14.5 -30t-9.5 -32.5l-157 9q3 43 16.5 91.5
t39 88.5t64 66t91.5 25q31 -1 58 -15.5t52.5 -31.5t52 -30.5t57.5 -11.5q19 1 32.5 10.5t22.5 23t15 30t11 32.5z" />
    <glyph glyph-name="Adieresis" unicode="&#xc4;" 
d="M738 298h-387l-127 -298h-312l694 1456h263l191 -1456h-297zM456 543h262l-41 516zM406 1671q0 28 11 52t29.5 42t43 28t51.5 11q27 0 51 -9t43 -25.5t30.5 -39.5t11.5 -51t-10.5 -52t-29 -41.5t-43 -27.5t-51.5 -11q-27 0 -51.5 8.5t-43.5 25t-30.5 39.5t-11.5 51z
M881 1671q0 28 10.5 52t29 41.5t43 27.5t51.5 11q27 0 51.5 -9t43 -25.5t30 -39.5t11.5 -50q0 -28 -10.5 -52t-29 -41.5t-43 -27.5t-51.5 -11q-27 0 -51.5 8.5t-43.5 25t-30 39.5t-11 51z" />
    <glyph glyph-name="Aring" unicode="&#xc5;" 
d="M738 298h-387l-127 -298h-312l694 1456h263l191 -1456h-297zM456 543h262l-41 516zM576 1723q0 46 18.5 85t50 67.5t72 44.5t85.5 16q42 0 79.5 -15t66 -41.5t45 -63t16.5 -79.5q0 -46 -19 -84.5t-50 -66.5t-72 -43t-85 -15q-41 0 -78.5 14.5t-66 40t-45.5 61.5t-17 79z
M689 1724q-5 -41 17 -71t65 -30q24 0 45 9t38 24.5t28 36t14 43.5q3 21 -1.5 39.5t-15 32.5t-27 22.5t-38.5 8.5q-24 0 -45 -9.5t-38 -25t-28 -36.5t-14 -44z" />
    <glyph glyph-name="AE" unicode="&#xc6;" horiz-adv-x="1634" 
d="M1451 0h-756l47 333h-317l-186 -333h-335l876 1456h873l-42 -238h-470l-49 -352h393l-42 -238h-384l-55 -390h489zM563 582h214l69 505z" />
    <glyph glyph-name="Ccedilla" unicode="&#xc7;" horiz-adv-x="1143" 
d="M1042 486q-13 -114 -56 -208t-112.5 -161t-165.5 -103.5t-214 -33.5q-88 2 -155 27.5t-115 69.5t-78.5 103.5t-46 128t-17.5 143.5t8 151l38 248q18 121 61 235t115 201.5t175 139.5t240 49q117 -2 197 -43t130 -110.5t72 -163t22 -199.5l-289 1q3 51 2 99t-15 85.5
t-47.5 61.5t-94.5 26q-53 2 -93 -13.5t-69.5 -44t-49.5 -66.5t-33.5 -80.5t-22 -88t-13.5 -87.5l-36 -251q-4 -34 -9 -75t-6.5 -82.5t4 -80.5t22 -70t47 -50.5t79.5 -21.5q64 -3 107 17t70.5 55.5t43 84.5t24.5 105zM575 6l-18 -61q27 -8 45.5 -24.5t29.5 -38.5t15 -47.5
t4 -52.5q-2 -70 -31.5 -116.5t-76.5 -75t-105.5 -41t-118.5 -14.5l12 168q77 12 89 90q3 23 -4 36t-20.5 20t-31.5 9.5t-36 4.5l41 142z" />
    <glyph glyph-name="Egrave" unicode="&#xc8;" horiz-adv-x="985" 
d="M849 630h-444l-67 -386h526l-43 -244h-812l252 1456h811l-43 -245h-523l-60 -344h445zM837 1539h-217l-220 310h293z" />
    <glyph glyph-name="Eacute" unicode="&#xc9;" horiz-adv-x="985" 
d="M849 630h-444l-67 -386h526l-43 -244h-812l252 1456h811l-43 -245h-523l-60 -344h445zM800 1849h326l-319 -310h-246z" />
    <glyph glyph-name="Ecircumflex" unicode="&#xca;" horiz-adv-x="985" 
d="M849 630h-444l-67 -386h526l-43 -244h-812l252 1456h811l-43 -245h-523l-60 -344h445zM1046 1572v-18l-210 3l-95 143l-147 -142l-216 -3v20l289 274l155 1z" />
    <glyph glyph-name="Edieresis" unicode="&#xcb;" horiz-adv-x="985" 
d="M849 630h-444l-67 -386h526l-43 -244h-812l252 1456h811l-43 -245h-523l-60 -344h445zM351 1674q0 28 11 52t29.5 42t43 28t51.5 11q27 0 51 -9t43 -25.5t30.5 -39.5t11.5 -51t-10.5 -52t-29 -41.5t-43 -27.5t-51.5 -11q-27 0 -51.5 8.5t-43.5 25t-30.5 39.5t-11.5 51z
M826 1674q0 28 10.5 52t29 41.5t43 27.5t51.5 11q27 0 51.5 -9t43 -25.5t30 -39.5t11.5 -50q0 -28 -10.5 -52t-29 -41.5t-43 -27.5t-51.5 -11q-27 0 -51.5 8.5t-43.5 25t-30 39.5t-11 51z" />
    <glyph glyph-name="Igrave" unicode="&#xcc;" horiz-adv-x="547" 
d="M308 0h-287l253 1456h287zM565 1539h-217l-220 310h293z" />
    <glyph glyph-name="Iacute" unicode="&#xcd;" horiz-adv-x="547" 
d="M308 0h-287l253 1456h287zM527 1849h326l-319 -310h-246z" />
    <glyph glyph-name="Icircumflex" unicode="&#xce;" horiz-adv-x="547" 
d="M308 0h-287l253 1456h287zM774 1572v-18l-210 3l-95 143l-147 -142l-216 -3v20l289 274l155 1z" />
    <glyph glyph-name="Idieresis" unicode="&#xcf;" horiz-adv-x="547" 
d="M308 0h-287l253 1456h287zM79 1674q0 28 11 52t29.5 42t43 28t51.5 11q27 0 51 -9t43 -25.5t30.5 -39.5t11.5 -51t-10.5 -52t-29 -41.5t-43 -27.5t-51.5 -11q-27 0 -51.5 8.5t-43.5 25t-30.5 39.5t-11.5 51zM554 1674q0 28 10.5 52t29 41.5t43 27.5t51.5 11q27 0 51.5 -9
t43 -25.5t30 -39.5t11.5 -50q0 -28 -10.5 -52t-29 -41.5t-43 -27.5t-51.5 -11q-27 0 -51.5 8.5t-43.5 25t-30 39.5t-11 51z" />
    <glyph glyph-name="Eth" unicode="&#xd0;" horiz-adv-x="1162" 
d="M39 0l111 641h-122l33 183h120l110 632l359 -1q131 -3 223.5 -54.5t148 -136t75 -194.5t4.5 -230l-34 -226q-20 -130 -70.5 -242.5t-131 -195.5t-191 -130t-249.5 -46h-386zM619 641h-182l-69 -397l71 -2q88 0 148.5 28t99.5 78.5t61 118.5t33 147l33 229q5 42 9 85t2 83
t-11.5 75.5t-31 62.5t-56.5 43t-88 18l-102 1l-67 -387h182z" />
    <glyph glyph-name="Ntilde" unicode="&#xd1;" horiz-adv-x="1226" 
d="M998 0h-280l-254 965l-168 -965h-287l252 1456h281l255 -966l168 966h286zM1128 1832q-3 -44 -16 -91.5t-38 -87.5t-63 -65.5t-92 -24.5q-32 0 -58.5 15t-52 32t-51.5 30.5t-56 11.5q-19 -1 -32.5 -10.5t-22.5 -23t-14.5 -30t-9.5 -32.5l-157 9q3 43 16.5 91.5t39 88.5
t64 66t91.5 25q31 -1 58 -15.5t52.5 -31.5t52 -30.5t57.5 -11.5q19 1 32.5 10.5t22.5 23t15 30t11 32.5z" />
    <glyph glyph-name="Ograve" unicode="&#xd2;" horiz-adv-x="1209" 
d="M1111 598q-12 -81 -36 -159.5t-60 -147.5t-85 -127t-111.5 -99.5t-139 -64t-167.5 -20.5q-87 2 -154.5 27t-118 68t-83.5 101t-50.5 126t-21 143t6.5 152l37 242q12 82 36 161.5t60 151t85 132t112 104t140.5 67t170.5 21.5q88 -2 156 -28.5t117.5 -72t81.5 -106.5
t48.5 -131t19 -146.5t-7.5 -152.5zM859 843q4 34 8 75t3.5 83.5t-7.5 83t-25 72.5t-49 52t-79 22q-53 2 -94 -14t-72 -45.5t-52.5 -69t-37 -83.5t-25 -90t-15.5 -88l-35 -245q-4 -34 -7.5 -74.5t-2 -81t10 -79t27 -68t49.5 -48.5t79 -21q77 -3 128.5 31.5t84.5 90t50 122.5
t26 129zM896 1536h-217l-220 310h293z" />
    <glyph glyph-name="Oacute" unicode="&#xd3;" horiz-adv-x="1209" 
d="M1111 598q-12 -81 -36 -159.5t-60 -147.5t-85 -127t-111.5 -99.5t-139 -64t-167.5 -20.5q-87 2 -154.5 27t-118 68t-83.5 101t-50.5 126t-21 143t6.5 152l37 242q12 82 36 161.5t60 151t85 132t112 104t140.5 67t170.5 21.5q88 -2 156 -28.5t117.5 -72t81.5 -106.5
t48.5 -131t19 -146.5t-7.5 -152.5zM859 843q4 34 8 75t3.5 83.5t-7.5 83t-25 72.5t-49 52t-79 22q-53 2 -94 -14t-72 -45.5t-52.5 -69t-37 -83.5t-25 -90t-15.5 -88l-35 -245q-4 -34 -7.5 -74.5t-2 -81t10 -79t27 -68t49.5 -48.5t79 -21q77 -3 128.5 31.5t84.5 90t50 122.5
t26 129zM859 1846h326l-319 -310h-246z" />
    <glyph glyph-name="Ocircumflex" unicode="&#xd4;" horiz-adv-x="1209" 
d="M1111 598q-12 -81 -36 -159.5t-60 -147.5t-85 -127t-111.5 -99.5t-139 -64t-167.5 -20.5q-87 2 -154.5 27t-118 68t-83.5 101t-50.5 126t-21 143t6.5 152l37 242q12 82 36 161.5t60 151t85 132t112 104t140.5 67t170.5 21.5q88 -2 156 -28.5t117.5 -72t81.5 -106.5
t48.5 -131t19 -146.5t-7.5 -152.5zM859 843q4 34 8 75t3.5 83.5t-7.5 83t-25 72.5t-49 52t-79 22q-53 2 -94 -14t-72 -45.5t-52.5 -69t-37 -83.5t-25 -90t-15.5 -88l-35 -245q-4 -34 -7.5 -74.5t-2 -81t10 -79t27 -68t49.5 -48.5t79 -21q77 -3 128.5 31.5t84.5 90t50 122.5
t26 129zM1105 1569v-18l-210 3l-95 143l-147 -142l-216 -3v20l289 274l155 1z" />
    <glyph glyph-name="Otilde" unicode="&#xd5;" horiz-adv-x="1209" 
d="M1111 598q-12 -81 -36 -159.5t-60 -147.5t-85 -127t-111.5 -99.5t-139 -64t-167.5 -20.5q-87 2 -154.5 27t-118 68t-83.5 101t-50.5 126t-21 143t6.5 152l37 242q12 82 36 161.5t60 151t85 132t112 104t140.5 67t170.5 21.5q88 -2 156 -28.5t117.5 -72t81.5 -106.5
t48.5 -131t19 -146.5t-7.5 -152.5zM859 843q4 34 8 75t3.5 83.5t-7.5 83t-25 72.5t-49 52t-79 22q-53 2 -94 -14t-72 -45.5t-52.5 -69t-37 -83.5t-25 -90t-15.5 -88l-35 -245q-4 -34 -7.5 -74.5t-2 -81t10 -79t27 -68t49.5 -48.5t79 -21q77 -3 128.5 31.5t84.5 90t50 122.5
t26 129zM1116 1832q-3 -44 -16 -91.5t-38 -87.5t-63 -65.5t-92 -24.5q-32 0 -58.5 15t-52 32t-51.5 30.5t-56 11.5q-19 -1 -32.5 -10.5t-22.5 -23t-14.5 -30t-9.5 -32.5l-157 9q3 43 16.5 91.5t39 88.5t64 66t91.5 25q31 -1 58 -15.5t52.5 -31.5t52 -30.5t57.5 -11.5
q19 1 32.5 10.5t22.5 23t15 30t11 32.5z" />
    <glyph glyph-name="Odieresis" unicode="&#xd6;" horiz-adv-x="1209" 
d="M1111 598q-12 -81 -36 -159.5t-60 -147.5t-85 -127t-111.5 -99.5t-139 -64t-167.5 -20.5q-87 2 -154.5 27t-118 68t-83.5 101t-50.5 126t-21 143t6.5 152l37 242q12 82 36 161.5t60 151t85 132t112 104t140.5 67t170.5 21.5q88 -2 156 -28.5t117.5 -72t81.5 -106.5
t48.5 -131t19 -146.5t-7.5 -152.5zM859 843q4 34 8 75t3.5 83.5t-7.5 83t-25 72.5t-49 52t-79 22q-53 2 -94 -14t-72 -45.5t-52.5 -69t-37 -83.5t-25 -90t-15.5 -88l-35 -245q-4 -34 -7.5 -74.5t-2 -81t10 -79t27 -68t49.5 -48.5t79 -21q77 -3 128.5 31.5t84.5 90t50 122.5
t26 129zM410 1671q0 28 11 52t29.5 42t43 28t51.5 11q27 0 51 -9t43 -25.5t30.5 -39.5t11.5 -51t-10.5 -52t-29 -41.5t-43 -27.5t-51.5 -11q-27 0 -51.5 8.5t-43.5 25t-30.5 39.5t-11.5 51zM885 1671q0 28 10.5 52t29 41.5t43 27.5t51.5 11q27 0 51.5 -9t43 -25.5t30 -39.5
t11.5 -50q0 -28 -10.5 -52t-29 -41.5t-43 -27.5t-51.5 -11q-27 0 -51.5 8.5t-43.5 25t-30 39.5t-11 51z" />
    <glyph glyph-name="multiply" unicode="&#xd7;" horiz-adv-x="941" 
d="M27 385l303 310l-197 315l179 159l187 -299l291 298l140 -182l-307 -315l194 -308l-179 -160l-184 294l-285 -292z" />
    <glyph glyph-name="Oslash" unicode="&#xd8;" horiz-adv-x="1206" 
d="M1119 598q-12 -81 -36 -159.5t-60 -147.5t-85 -127t-111.5 -99.5t-139 -64t-167.5 -20.5q-72 2 -129.5 18.5t-104.5 46.5l-91 -140h-188l166 256q-56 88 -73 201.5t-1 234.5l37 242q12 82 36 161.5t60 151t85 132t112 104t140.5 67t170.5 21.5q75 -2 134.5 -21.5
t106.5 -52.5l75 116h188l-155 -238q52 -92 66.5 -207.5t-0.5 -233.5zM387 596q-4 -27 -6.5 -58.5t-3.5 -63.5l456 701q-18 24 -46 39t-69 17q-53 2 -94 -14t-72 -45.5t-52.5 -69t-37 -83.5t-25 -90t-15.5 -88zM867 843q3 24 6 52.5t5 59.5l-446 -685q19 -20 46 -32t65 -14
q77 -3 128.5 31.5t84.5 90t50 122.5t26 129z" />
    <glyph glyph-name="Ugrave" unicode="&#xd9;" horiz-adv-x="1145" 
d="M1182 1456l-170 -1000q-15 -111 -57 -200t-109 -151.5t-158.5 -95t-206.5 -30.5q-108 2 -188.5 37t-132 97.5t-72 149.5t-8.5 193l170 1000h288l-168 -1001q-5 -45 -4.5 -86.5t14 -73t43 -50.5t82.5 -21q56 -2 95 14.5t65 48t40 74.5t21 94l169 1001h287zM857 1536h-217
l-220 310h293z" />
    <glyph glyph-name="Uacute" unicode="&#xda;" horiz-adv-x="1145" 
d="M1182 1456l-170 -1000q-15 -111 -57 -200t-109 -151.5t-158.5 -95t-206.5 -30.5q-108 2 -188.5 37t-132 97.5t-72 149.5t-8.5 193l170 1000h288l-168 -1001q-5 -45 -4.5 -86.5t14 -73t43 -50.5t82.5 -21q56 -2 95 14.5t65 48t40 74.5t21 94l169 1001h287zM820 1846h326
l-319 -310h-246z" />
    <glyph glyph-name="Ucircumflex" unicode="&#xdb;" horiz-adv-x="1145" 
d="M1182 1456l-170 -1000q-15 -111 -57 -200t-109 -151.5t-158.5 -95t-206.5 -30.5q-108 2 -188.5 37t-132 97.5t-72 149.5t-8.5 193l170 1000h288l-168 -1001q-5 -45 -4.5 -86.5t14 -73t43 -50.5t82.5 -21q56 -2 95 14.5t65 48t40 74.5t21 94l169 1001h287zM1066 1569v-18
l-210 3l-95 143l-147 -142l-216 -3v20l289 274l155 1z" />
    <glyph glyph-name="Udieresis" unicode="&#xdc;" horiz-adv-x="1145" 
d="M1182 1456l-170 -1000q-15 -111 -57 -200t-109 -151.5t-158.5 -95t-206.5 -30.5q-108 2 -188.5 37t-132 97.5t-72 149.5t-8.5 193l170 1000h288l-168 -1001q-5 -45 -4.5 -86.5t14 -73t43 -50.5t82.5 -21q56 -2 95 14.5t65 48t40 74.5t21 94l169 1001h287zM371 1671
q0 28 11 52t29.5 42t43 28t51.5 11q27 0 51 -9t43 -25.5t30.5 -39.5t11.5 -51t-10.5 -52t-29 -41.5t-43 -27.5t-51.5 -11q-27 0 -51.5 8.5t-43.5 25t-30.5 39.5t-11.5 51zM846 1671q0 28 10.5 52t29 41.5t43 27.5t51.5 11q27 0 51.5 -9t43 -25.5t30 -39.5t11.5 -50
q0 -28 -10.5 -52t-29 -41.5t-43 -27.5t-51.5 -11q-27 0 -51.5 8.5t-43.5 25t-30 39.5t-11 51z" />
    <glyph glyph-name="Yacute" unicode="&#xdd;" horiz-adv-x="1088" 
d="M570 805l325 651h323l-548 -942l-89 -514h-291l95 543l-216 913h302zM801 1846h326l-319 -310h-246z" />
    <glyph glyph-name="Thorn" unicode="&#xde;" horiz-adv-x="1069" 
d="M541 1456l-47 -267l141 -1q97 -3 173 -36t126.5 -91t74 -138.5t15.5 -176.5q-9 -107 -51 -192t-110 -145t-158.5 -92t-195.5 -32l-171 1l-50 -286h-276l252 1456h277zM463 961l-85 -440l143 -2q49 1 88.5 19t68.5 48t47 70.5t24 87.5q5 37 2 73t-17.5 65.5t-41 48.5
t-69.5 22l-156 3z" />
    <glyph glyph-name="germandbls" unicode="&#xdf;" horiz-adv-x="1121" 
d="M296 0h-276l188 1101q13 98 49 183t94.5 147t140.5 97t188 32q79 -2 140.5 -30t102.5 -76.5t60 -114t13 -143.5q-5 -54 -24 -99.5t-41.5 -89t-44 -88.5t-30.5 -96q-7 -38 2 -75t26 -74t39 -74t40.5 -75t30.5 -78t9 -83q-6 -91 -38.5 -163t-87.5 -122t-130.5 -76
t-166.5 -24q-59 1 -118 14t-110 45l76 229q35 -26 77.5 -40.5t86.5 -12.5q31 1 54.5 13t41 31.5t28 45t15.5 54.5q6 40 -3.5 76.5t-28 72t-41 70.5t-41.5 72t-30.5 76.5t-7.5 83.5q4 52 24 98t42.5 90.5t43 89.5t26.5 96q3 24 1 49t-11 46t-27 35t-47 16q-43 2 -70.5 -22
t-44 -60t-24.5 -77t-12 -72z" />
    <glyph glyph-name="agrave" unicode="&#xe0;" horiz-adv-x="945" 
d="M507 0q-5 21 -6.5 41.5t-1.5 42.5q-42 -48 -93 -76.5t-117 -28.5q-66 1 -117.5 27t-86.5 69.5t-52 100.5t-14 119q5 97 45 166.5t103.5 114t144.5 65.5t170 21h88l13 88q2 21 2.5 44.5t-5.5 42.5t-21 32t-43 13q-29 1 -49 -9.5t-34 -27.5t-22.5 -40t-12.5 -47l-275 -2
q5 82 41.5 147.5t93.5 110t130.5 67.5t152.5 22q81 -2 143 -28t103.5 -73t59.5 -112.5t10 -145.5l-77 -481q-5 -29 -9.5 -60t-6 -62.5t1.5 -62.5t13 -60l-1 -18h-271zM365 200q42 -1 75.5 17.5t60.5 46.5l49 229h-60q-39 -2 -71.5 -15.5t-56.5 -37.5t-39.5 -56t-20.5 -71
q-2 -19 -1.5 -38.5t7.5 -36t20.5 -27t36.5 -11.5zM707 1226h-217l-220 310h293z" />
    <glyph glyph-name="aacute" unicode="&#xe1;" horiz-adv-x="945" 
d="M507 0q-5 21 -6.5 41.5t-1.5 42.5q-42 -48 -93 -76.5t-117 -28.5q-66 1 -117.5 27t-86.5 69.5t-52 100.5t-14 119q5 97 45 166.5t103.5 114t144.5 65.5t170 21h88l13 88q2 21 2.5 44.5t-5.5 42.5t-21 32t-43 13q-29 1 -49 -9.5t-34 -27.5t-22.5 -40t-12.5 -47l-275 -2
q5 82 41.5 147.5t93.5 110t130.5 67.5t152.5 22q81 -2 143 -28t103.5 -73t59.5 -112.5t10 -145.5l-77 -481q-5 -29 -9.5 -60t-6 -62.5t1.5 -62.5t13 -60l-1 -18h-271zM365 200q42 -1 75.5 17.5t60.5 46.5l49 229h-60q-39 -2 -71.5 -15.5t-56.5 -37.5t-39.5 -56t-20.5 -71
q-2 -19 -1.5 -38.5t7.5 -36t20.5 -27t36.5 -11.5zM670 1536h326l-319 -310h-246z" />
    <glyph glyph-name="acircumflex" unicode="&#xe2;" horiz-adv-x="945" 
d="M507 0q-5 21 -6.5 41.5t-1.5 42.5q-42 -48 -93 -76.5t-117 -28.5q-66 1 -117.5 27t-86.5 69.5t-52 100.5t-14 119q5 97 45 166.5t103.5 114t144.5 65.5t170 21h88l13 88q2 21 2.5 44.5t-5.5 42.5t-21 32t-43 13q-29 1 -49 -9.5t-34 -27.5t-22.5 -40t-12.5 -47l-275 -2
q5 82 41.5 147.5t93.5 110t130.5 67.5t152.5 22q81 -2 143 -28t103.5 -73t59.5 -112.5t10 -145.5l-77 -481q-5 -29 -9.5 -60t-6 -62.5t1.5 -62.5t13 -60l-1 -18h-271zM365 200q42 -1 75.5 17.5t60.5 46.5l49 229h-60q-39 -2 -71.5 -15.5t-56.5 -37.5t-39.5 -56t-20.5 -71
q-2 -19 -1.5 -38.5t7.5 -36t20.5 -27t36.5 -11.5zM916 1259v-18l-210 3l-95 143l-147 -142l-216 -3v20l289 274l155 1z" />
    <glyph glyph-name="atilde" unicode="&#xe3;" horiz-adv-x="945" 
d="M507 0q-5 21 -6.5 41.5t-1.5 42.5q-42 -48 -93 -76.5t-117 -28.5q-66 1 -117.5 27t-86.5 69.5t-52 100.5t-14 119q5 97 45 166.5t103.5 114t144.5 65.5t170 21h88l13 88q2 21 2.5 44.5t-5.5 42.5t-21 32t-43 13q-29 1 -49 -9.5t-34 -27.5t-22.5 -40t-12.5 -47l-275 -2
q5 82 41.5 147.5t93.5 110t130.5 67.5t152.5 22q81 -2 143 -28t103.5 -73t59.5 -112.5t10 -145.5l-77 -481q-5 -29 -9.5 -60t-6 -62.5t1.5 -62.5t13 -60l-1 -18h-271zM365 200q42 -1 75.5 17.5t60.5 46.5l49 229h-60q-39 -2 -71.5 -15.5t-56.5 -37.5t-39.5 -56t-20.5 -71
q-2 -19 -1.5 -38.5t7.5 -36t20.5 -27t36.5 -11.5zM927 1523q-3 -44 -16 -91.5t-38 -87.5t-63 -65.5t-92 -24.5q-32 0 -58.5 15t-52 32t-51.5 30.5t-56 11.5q-19 -1 -32.5 -10.5t-22.5 -23t-14.5 -30t-9.5 -32.5l-157 9q3 43 16.5 91.5t39 88.5t64 66t91.5 25q31 -1 58 -15.5
t52.5 -31.5t52 -30.5t57.5 -11.5q19 1 32.5 10.5t22.5 23t15 30t11 32.5z" />
    <glyph glyph-name="adieresis" unicode="&#xe4;" horiz-adv-x="945" 
d="M507 0q-5 21 -6.5 41.5t-1.5 42.5q-42 -48 -93 -76.5t-117 -28.5q-66 1 -117.5 27t-86.5 69.5t-52 100.5t-14 119q5 97 45 166.5t103.5 114t144.5 65.5t170 21h88l13 88q2 21 2.5 44.5t-5.5 42.5t-21 32t-43 13q-29 1 -49 -9.5t-34 -27.5t-22.5 -40t-12.5 -47l-275 -2
q5 82 41.5 147.5t93.5 110t130.5 67.5t152.5 22q81 -2 143 -28t103.5 -73t59.5 -112.5t10 -145.5l-77 -481q-5 -29 -9.5 -60t-6 -62.5t1.5 -62.5t13 -60l-1 -18h-271zM365 200q42 -1 75.5 17.5t60.5 46.5l49 229h-60q-39 -2 -71.5 -15.5t-56.5 -37.5t-39.5 -56t-20.5 -71
q-2 -19 -1.5 -38.5t7.5 -36t20.5 -27t36.5 -11.5zM221 1361q0 28 11 52t29.5 42t43 28t51.5 11q27 0 51 -9t43 -25.5t30.5 -39.5t11.5 -51t-10.5 -52t-29 -41.5t-43 -27.5t-51.5 -11q-27 0 -51.5 8.5t-43.5 25t-30.5 39.5t-11.5 51zM696 1361q0 28 10.5 52t29 41.5t43 27.5
t51.5 11q27 0 51.5 -9t43 -25.5t30 -39.5t11.5 -50q0 -28 -10.5 -52t-29 -41.5t-43 -27.5t-51.5 -11q-27 0 -51.5 8.5t-43.5 25t-30 39.5t-11 51z" />
    <glyph glyph-name="aring" unicode="&#xe5;" horiz-adv-x="945" 
d="M507 0q-5 21 -6.5 41.5t-1.5 42.5q-42 -48 -93 -76.5t-117 -28.5q-66 1 -117.5 27t-86.5 69.5t-52 100.5t-14 119q5 97 45 166.5t103.5 114t144.5 65.5t170 21h88l13 88q2 21 2.5 44.5t-5.5 42.5t-21 32t-43 13q-29 1 -49 -9.5t-34 -27.5t-22.5 -40t-12.5 -47l-275 -2
q5 82 41.5 147.5t93.5 110t130.5 67.5t152.5 22q81 -2 143 -28t103.5 -73t59.5 -112.5t10 -145.5l-77 -481q-5 -29 -9.5 -60t-6 -62.5t1.5 -62.5t13 -60l-1 -18h-271zM365 200q42 -1 75.5 17.5t60.5 46.5l49 229h-60q-39 -2 -71.5 -15.5t-56.5 -37.5t-39.5 -56t-20.5 -71
q-2 -19 -1.5 -38.5t7.5 -36t20.5 -27t36.5 -11.5zM391 1413q0 46 18.5 85t50 67.5t72 44.5t85.5 16q42 0 79.5 -15t66 -41.5t45 -63t16.5 -79.5q0 -46 -19 -84.5t-50 -66.5t-72 -43t-85 -15q-41 0 -78.5 14.5t-66 40t-45.5 61.5t-17 79zM504 1414q-5 -41 17 -71t65 -30
q24 0 45 9t38 24.5t28 36t14 43.5q3 21 -1.5 39.5t-15 32.5t-27 22.5t-38.5 8.5q-24 0 -45 -9.5t-38 -25t-28 -36.5t-14 -44z" />
    <glyph glyph-name="ae" unicode="&#xe6;" horiz-adv-x="1456" 
d="M941 -20q-42 1 -84 9t-80 24t-71 41.5t-58 60.5q-69 -66 -152.5 -101.5t-180.5 -33.5q-74 1 -130.5 26t-95 69t-56.5 104t-14 132q6 94 46.5 159t104.5 105.5t144 58t164 17.5l119 -1l11 57q3 22 4 49.5t-5.5 52t-22.5 41.5t-47 18q-28 1 -50 -9t-38.5 -27t-27 -39.5
t-16.5 -47.5l-273 18q6 84 44 148.5t97.5 107.5t134 64t154.5 20q69 -1 134.5 -22t114.5 -72q60 46 126.5 70t142.5 22q66 -2 116.5 -23t87 -56.5t60.5 -83t36 -101.5t14 -111.5t-5 -113.5l-25 -163h-518q-4 -41 -1 -81.5t18 -73.5t45 -54.5t79 -23.5q68 -2 127 20.5
t117 54.5l53 -193q-32 -32 -73 -54.5t-86.5 -36.5t-92.5 -20.5t-91 -6.5zM382 192q21 0 41.5 5.5t39.5 15.5t37 22t34 24l38 201l-96 1q-33 -2 -63.5 -13t-54 -31t-39.5 -48t-21 -62q-7 -48 12.5 -81t71.5 -34zM1052 869q-45 2 -76.5 -20t-53 -56t-35 -74.5t-22.5 -74.5
l254 -1l5 31q4 24 6 57t-3.5 63t-22.5 51.5t-52 23.5z" />
    <glyph glyph-name="ccedilla" unicode="&#xe7;" horiz-adv-x="924" 
d="M415 213q36 -1 61 12.5t41 36.5t25 52.5t14 59.5l259 1q-8 -84 -40.5 -157.5t-86.5 -127t-127.5 -83.5t-161.5 -28q-113 3 -185.5 48t-112 118t-50 165.5t0.5 190.5l9 78q9 69 27 135t46.5 125t67.5 108.5t90 84.5t115 53.5t142 16.5q92 -3 156 -38t103.5 -93.5
t55.5 -134t12 -159.5l-260 1q1 29 0.5 61.5t-9.5 61t-29.5 47.5t-58.5 21q-39 2 -66.5 -11t-46.5 -35.5t-31 -53t-19.5 -63t-11.5 -66t-7 -61.5l-7 -79q-2 -22 -6.5 -51.5t-6.5 -61t0 -62.5t12 -55.5t30.5 -40t55.5 -16.5zM468 6l-18 -61q27 -8 45.5 -24.5t29.5 -38.5
t15 -47.5t4 -52.5q-2 -70 -31.5 -116.5t-76.5 -75t-105.5 -41t-118.5 -14.5l12 168q77 12 89 90q3 23 -4 36t-20.5 20t-31.5 9.5t-36 4.5l41 142z" />
    <glyph glyph-name="egrave" unicode="&#xe8;" horiz-adv-x="961" 
d="M436 -20q-109 1 -186 42t-123.5 109t-63.5 158t-6 190l11 89q13 104 47.5 201.5t94.5 172.5t147.5 119t204.5 41q112 -3 181.5 -50t105.5 -122t44 -168t-4 -187l-19 -129h-540q-5 -43 -3 -83.5t16 -72.5t44 -52.5t81 -21.5q69 -2 129.5 24.5t112.5 70.5l93 -172
q-31 -42 -73.5 -72.5t-90.5 -50t-100 -28.5t-103 -8zM535 869q-48 2 -79.5 -19t-52 -54t-33 -74t-21.5 -78l275 -1l5 29q5 31 6 65t-7.5 63t-30.5 48t-62 21zM702 1226h-217l-220 310h293z" />
    <glyph glyph-name="eacute" unicode="&#xe9;" horiz-adv-x="961" 
d="M436 -20q-109 1 -186 42t-123.5 109t-63.5 158t-6 190l11 89q13 104 47.5 201.5t94.5 172.5t147.5 119t204.5 41q112 -3 181.5 -50t105.5 -122t44 -168t-4 -187l-19 -129h-540q-5 -43 -3 -83.5t16 -72.5t44 -52.5t81 -21.5q69 -2 129.5 24.5t112.5 70.5l93 -172
q-31 -42 -73.5 -72.5t-90.5 -50t-100 -28.5t-103 -8zM535 869q-48 2 -79.5 -19t-52 -54t-33 -74t-21.5 -78l275 -1l5 29q5 31 6 65t-7.5 63t-30.5 48t-62 21zM665 1536h326l-319 -310h-246z" />
    <glyph glyph-name="ecircumflex" unicode="&#xea;" horiz-adv-x="961" 
d="M436 -20q-109 1 -186 42t-123.5 109t-63.5 158t-6 190l11 89q13 104 47.5 201.5t94.5 172.5t147.5 119t204.5 41q112 -3 181.5 -50t105.5 -122t44 -168t-4 -187l-19 -129h-540q-5 -43 -3 -83.5t16 -72.5t44 -52.5t81 -21.5q69 -2 129.5 24.5t112.5 70.5l93 -172
q-31 -42 -73.5 -72.5t-90.5 -50t-100 -28.5t-103 -8zM535 869q-48 2 -79.5 -19t-52 -54t-33 -74t-21.5 -78l275 -1l5 29q5 31 6 65t-7.5 63t-30.5 48t-62 21zM911 1259v-18l-210 3l-95 143l-147 -142l-216 -3v20l289 274l155 1z" />
    <glyph glyph-name="edieresis" unicode="&#xeb;" horiz-adv-x="961" 
d="M436 -20q-109 1 -186 42t-123.5 109t-63.5 158t-6 190l11 89q13 104 47.5 201.5t94.5 172.5t147.5 119t204.5 41q112 -3 181.5 -50t105.5 -122t44 -168t-4 -187l-19 -129h-540q-5 -43 -3 -83.5t16 -72.5t44 -52.5t81 -21.5q69 -2 129.5 24.5t112.5 70.5l93 -172
q-31 -42 -73.5 -72.5t-90.5 -50t-100 -28.5t-103 -8zM535 869q-48 2 -79.5 -19t-52 -54t-33 -74t-21.5 -78l275 -1l5 29q5 31 6 65t-7.5 63t-30.5 48t-62 21zM216 1361q0 28 11 52t29.5 42t43 28t51.5 11q27 0 51 -9t43 -25.5t30.5 -39.5t11.5 -51t-10.5 -52t-29 -41.5
t-43 -27.5t-51.5 -11q-27 0 -51.5 8.5t-43.5 25t-30.5 39.5t-11.5 51zM691 1361q0 28 10.5 52t29 41.5t43 27.5t51.5 11q27 0 51.5 -9t43 -25.5t30 -39.5t11.5 -50q0 -28 -10.5 -52t-29 -41.5t-43 -27.5t-51.5 -11q-27 0 -51.5 8.5t-43.5 25t-30 39.5t-11 51z" />
    <glyph glyph-name="igrave" unicode="&#xec;" horiz-adv-x="531" 
d="M292 0h-276l187 1082h277zM501 1211h-217l-220 310h293z" />
    <glyph glyph-name="iacute" unicode="&#xed;" horiz-adv-x="531" 
d="M292 0h-276l187 1082h277zM463 1521h326l-319 -310h-246z" />
    <glyph glyph-name="icircumflex" unicode="&#xee;" horiz-adv-x="531" 
d="M292 0h-276l187 1082h277zM710 1244v-18l-210 3l-95 143l-147 -142l-216 -3v20l289 274l155 1z" />
    <glyph glyph-name="idieresis" unicode="&#xef;" horiz-adv-x="531" 
d="M292 0h-276l187 1082h277zM15 1346q0 28 11 52t29.5 42t43 28t51.5 11q27 0 51 -9t43 -25.5t30.5 -39.5t11.5 -51t-10.5 -52t-29 -41.5t-43 -27.5t-51.5 -11q-27 0 -51.5 8.5t-43.5 25t-30.5 39.5t-11.5 51zM490 1346q0 28 10.5 52t29 41.5t43 27.5t51.5 11q27 0 51.5 -9
t43 -25.5t30 -39.5t11.5 -50q0 -28 -10.5 -52t-29 -41.5t-43 -27.5t-51.5 -11q-27 0 -51.5 8.5t-43.5 25t-30 39.5t-11 51z" />
    <glyph glyph-name="eth" unicode="&#xf0;" horiz-adv-x="1008" 
d="M833 1305q77 -157 101.5 -318t2.5 -334l-9 -74q-9 -68 -29 -139.5t-51.5 -139t-75 -127t-98.5 -103.5t-122.5 -68.5t-147.5 -22.5q-98 3 -168 45.5t-113.5 110t-61 153t-9.5 172.5q6 61 21 123t40 118.5t61 106t83 85t105 55.5t128 18q50 -2 94 -17.5t84 -44.5
q-6 129 -67 242l-168 -116l-56 127l137 88q-40 40 -88 65.5t-100 45.5l110 223q87 -26 164.5 -68.5t141.5 -106.5l162 107l53 -129zM666 675q-21 35 -54 53t-75 19q-55 1 -93 -27.5t-62 -71.5t-36.5 -94t-16.5 -94q-3 -30 -2.5 -71.5t10.5 -80t32.5 -66t64.5 -29.5
q39 -2 69 14.5t52.5 44.5t38.5 64t27 74t17.5 74t10.5 64l15 105z" />
    <glyph glyph-name="ntilde" unicode="&#xf1;" horiz-adv-x="988" 
d="M434 1083l-20 -109q25 29 52.5 53t59 41.5t67 26.5t74.5 8q56 -1 95.5 -20t66.5 -50.5t42 -73t21.5 -87t6 -93t-5.5 -91.5l-115 -688h-277l114 690q3 28 4.5 59t-5.5 57t-26 43t-56 17q-43 0 -73 -23.5t-56 -55.5l-137 -787h-278l188 1082zM951 1523q-3 -44 -16 -91.5
t-38 -87.5t-63 -65.5t-92 -24.5q-32 0 -58.5 15t-52 32t-51.5 30.5t-56 11.5q-19 -1 -32.5 -10.5t-22.5 -23t-14.5 -30t-9.5 -32.5l-157 9q3 43 16.5 91.5t39 88.5t64 66t91.5 25q31 -1 58 -15.5t52.5 -31.5t52 -30.5t57.5 -11.5q19 1 32.5 10.5t22.5 23t15 30t11 32.5z" />
    <glyph glyph-name="ograve" unicode="&#xf2;" horiz-adv-x="998" 
d="M61 575q12 103 48.5 199t98 170t149 117.5t202.5 40.5q74 -2 130.5 -23.5t98 -59t68.5 -87.5t42 -107.5t18 -121t-4 -127.5l-8 -71q-12 -103 -48.5 -199t-98 -169.5t-148.5 -116.5t-202 -40q-111 3 -183.5 49t-114 120t-54 167t-2.5 189zM332 503q-2 -21 -4.5 -50.5
t-2.5 -61t4.5 -62.5t16 -56t32 -41.5t53.5 -18.5q57 -3 93 26.5t57.5 74.5t32 97t15.5 94l7 72q2 21 4.5 51t2.5 61.5t-5 63t-17 57t-33 41.5t-54 18q-54 3 -90 -27.5t-57.5 -76t-32.5 -97.5t-15 -92zM730 1226h-217l-220 310h293z" />
    <glyph glyph-name="oacute" unicode="&#xf3;" horiz-adv-x="998" 
d="M61 575q12 103 48.5 199t98 170t149 117.5t202.5 40.5q74 -2 130.5 -23.5t98 -59t68.5 -87.5t42 -107.5t18 -121t-4 -127.5l-8 -71q-12 -103 -48.5 -199t-98 -169.5t-148.5 -116.5t-202 -40q-111 3 -183.5 49t-114 120t-54 167t-2.5 189zM332 503q-2 -21 -4.5 -50.5
t-2.5 -61t4.5 -62.5t16 -56t32 -41.5t53.5 -18.5q57 -3 93 26.5t57.5 74.5t32 97t15.5 94l7 72q2 21 4.5 51t2.5 61.5t-5 63t-17 57t-33 41.5t-54 18q-54 3 -90 -27.5t-57.5 -76t-32.5 -97.5t-15 -92zM693 1536h326l-319 -310h-246z" />
    <glyph glyph-name="ocircumflex" unicode="&#xf4;" horiz-adv-x="998" 
d="M61 575q12 103 48.5 199t98 170t149 117.5t202.5 40.5q74 -2 130.5 -23.5t98 -59t68.5 -87.5t42 -107.5t18 -121t-4 -127.5l-8 -71q-12 -103 -48.5 -199t-98 -169.5t-148.5 -116.5t-202 -40q-111 3 -183.5 49t-114 120t-54 167t-2.5 189zM332 503q-2 -21 -4.5 -50.5
t-2.5 -61t4.5 -62.5t16 -56t32 -41.5t53.5 -18.5q57 -3 93 26.5t57.5 74.5t32 97t15.5 94l7 72q2 21 4.5 51t2.5 61.5t-5 63t-17 57t-33 41.5t-54 18q-54 3 -90 -27.5t-57.5 -76t-32.5 -97.5t-15 -92zM939 1259v-18l-210 3l-95 143l-147 -142l-216 -3v20l289 274l155 1z" />
    <glyph glyph-name="otilde" unicode="&#xf5;" horiz-adv-x="998" 
d="M61 575q12 103 48.5 199t98 170t149 117.5t202.5 40.5q74 -2 130.5 -23.5t98 -59t68.5 -87.5t42 -107.5t18 -121t-4 -127.5l-8 -71q-12 -103 -48.5 -199t-98 -169.5t-148.5 -116.5t-202 -40q-111 3 -183.5 49t-114 120t-54 167t-2.5 189zM332 503q-2 -21 -4.5 -50.5
t-2.5 -61t4.5 -62.5t16 -56t32 -41.5t53.5 -18.5q57 -3 93 26.5t57.5 74.5t32 97t15.5 94l7 72q2 21 4.5 51t2.5 61.5t-5 63t-17 57t-33 41.5t-54 18q-54 3 -90 -27.5t-57.5 -76t-32.5 -97.5t-15 -92zM950 1523q-3 -44 -16 -91.5t-38 -87.5t-63 -65.5t-92 -24.5
q-32 0 -58.5 15t-52 32t-51.5 30.5t-56 11.5q-19 -1 -32.5 -10.5t-22.5 -23t-14.5 -30t-9.5 -32.5l-157 9q3 43 16.5 91.5t39 88.5t64 66t91.5 25q31 -1 58 -15.5t52.5 -31.5t52 -30.5t57.5 -11.5q19 1 32.5 10.5t22.5 23t15 30t11 32.5z" />
    <glyph glyph-name="odieresis" unicode="&#xf6;" horiz-adv-x="998" 
d="M61 575q12 103 48.5 199t98 170t149 117.5t202.5 40.5q74 -2 130.5 -23.5t98 -59t68.5 -87.5t42 -107.5t18 -121t-4 -127.5l-8 -71q-12 -103 -48.5 -199t-98 -169.5t-148.5 -116.5t-202 -40q-111 3 -183.5 49t-114 120t-54 167t-2.5 189zM332 503q-2 -21 -4.5 -50.5
t-2.5 -61t4.5 -62.5t16 -56t32 -41.5t53.5 -18.5q57 -3 93 26.5t57.5 74.5t32 97t15.5 94l7 72q2 21 4.5 51t2.5 61.5t-5 63t-17 57t-33 41.5t-54 18q-54 3 -90 -27.5t-57.5 -76t-32.5 -97.5t-15 -92zM244 1361q0 28 11 52t29.5 42t43 28t51.5 11q27 0 51 -9t43 -25.5
t30.5 -39.5t11.5 -51t-10.5 -52t-29 -41.5t-43 -27.5t-51.5 -11q-27 0 -51.5 8.5t-43.5 25t-30.5 39.5t-11.5 51zM719 1361q0 28 10.5 52t29 41.5t43 27.5t51.5 11q27 0 51.5 -9t43 -25.5t30 -39.5t11.5 -50q0 -28 -10.5 -52t-29 -41.5t-43 -27.5t-51.5 -11q-27 0 -51.5 8.5
t-43.5 25t-30 39.5t-11 51z" />
    <glyph glyph-name="divide" unicode="&#xf7;" horiz-adv-x="1002" 
d="M908 570h-845l41 232h845zM423 1084q0 33 11 62t31.5 50t48.5 33.5t61 12.5q33 1 60.5 -10t47.5 -30.5t32 -46.5t12 -60q0 -34 -11 -62.5t-31.5 -49.5t-48.5 -33.5t-61 -12.5q-33 -1 -60.5 10t-48 30.5t-32 46.5t-11.5 60zM283 272q0 33 11 62t31 50t48 33.5t61 13.5
t60.5 -10t48 -30.5t32 -47t11.5 -60.5t-11 -62t-31 -50t-48 -33.5t-62 -12.5q-32 -1 -60 10t-48 30.5t-31.5 46.5t-11.5 60z" />
    <glyph glyph-name="oslash" unicode="&#xf8;" horiz-adv-x="996" 
d="M61 575q12 103 48.5 199t98 170t149 117.5t202.5 40.5q86 -3 150 -32l84 146h160l-132 -232q31 -38 51.5 -85.5t31 -100t12.5 -109t-4 -113.5l-8 -71q-12 -103 -48.5 -199t-98 -169.5t-148.5 -116.5t-202 -40q-81 3 -144 29l-86 -151h-160l133 233q-33 38 -54.5 85.5
t-33 101t-13.5 111.5t4 116zM332 503q-2 -20 -4.5 -48t-2.5 -58l260 456q-23 15 -51 16q-54 3 -90 -27.5t-57.5 -76t-32.5 -97.5t-15 -92zM636 577q2 19 4 43.5t3 52.5l-256 -447q9 -5 19.5 -8.5t24.5 -4.5q57 -3 93 26.5t57.5 74.5t32 97t15.5 94z" />
    <glyph glyph-name="ugrave" unicode="&#xf9;" horiz-adv-x="988" 
d="M540 99q-47 -56 -105 -88.5t-133 -31.5q-83 1 -134 39t-77.5 96t-32.5 129t1 139l117 700h276l-117 -704q-2 -22 -3.5 -49.5t4 -52t21 -42t45.5 -18.5q49 -2 85 22t65 61l136 783h279l-188 -1082h-257zM727 1226h-217l-220 310h293z" />
    <glyph glyph-name="uacute" unicode="&#xfa;" horiz-adv-x="988" 
d="M540 99q-47 -56 -105 -88.5t-133 -31.5q-83 1 -134 39t-77.5 96t-32.5 129t1 139l117 700h276l-117 -704q-2 -22 -3.5 -49.5t4 -52t21 -42t45.5 -18.5q49 -2 85 22t65 61l136 783h279l-188 -1082h-257zM690 1536h326l-319 -310h-246z" />
    <glyph glyph-name="ucircumflex" unicode="&#xfb;" horiz-adv-x="988" 
d="M540 99q-47 -56 -105 -88.5t-133 -31.5q-83 1 -134 39t-77.5 96t-32.5 129t1 139l117 700h276l-117 -704q-2 -22 -3.5 -49.5t4 -52t21 -42t45.5 -18.5q49 -2 85 22t65 61l136 783h279l-188 -1082h-257zM936 1259v-18l-210 3l-95 143l-147 -142l-216 -3v20l289 274l155 1z
" />
    <glyph glyph-name="udieresis" unicode="&#xfc;" horiz-adv-x="988" 
d="M540 99q-47 -56 -105 -88.5t-133 -31.5q-83 1 -134 39t-77.5 96t-32.5 129t1 139l117 700h276l-117 -704q-2 -22 -3.5 -49.5t4 -52t21 -42t45.5 -18.5q49 -2 85 22t65 61l136 783h279l-188 -1082h-257zM241 1361q0 28 11 52t29.5 42t43 28t51.5 11q27 0 51 -9t43 -25.5
t30.5 -39.5t11.5 -51t-10.5 -52t-29 -41.5t-43 -27.5t-51.5 -11q-27 0 -51.5 8.5t-43.5 25t-30.5 39.5t-11.5 51zM716 1361q0 28 10.5 52t29 41.5t43 27.5t51.5 11q27 0 51.5 -9t43 -25.5t30 -39.5t11.5 -50q0 -28 -10.5 -52t-29 -41.5t-43 -27.5t-51.5 -11q-27 0 -51.5 8.5
t-43.5 25t-30 39.5t-11 51z" />
    <glyph glyph-name="yacute" unicode="&#xfd;" horiz-adv-x="897" 
d="M411 476l245 606h302l-558 -1245q-23 -55 -52.5 -105t-69.5 -88.5t-91 -61t-116 -22.5q-32 0 -62 6.5t-60 14.5l24 221q8 -1 15 -1.5t15 -0.5q66 -1 106 28t67 88l39 88l-112 1078h289zM650 1536h326l-319 -310h-246z" />
    <glyph glyph-name="thorn" unicode="&#xfe;" horiz-adv-x="1002" 
d="M449 1014q40 42 88 66t110 23q71 -1 119.5 -25.5t80 -65t48.5 -93.5t23 -111t4 -117.5t-7 -112.5l-8 -70q-7 -59 -20.5 -121.5t-35 -122t-53 -112.5t-75 -92t-100 -61t-128.5 -19q-63 2 -113 29.5t-85 79.5l-96 -505h-276l72 416h-1l266 1536h278zM638 584q2 21 5.5 50
t4 60t-2.5 61.5t-13.5 55t-31 39.5t-53.5 16q-45 1 -76.5 -19.5t-58.5 -53.5l-84 -476l-6 -35q17 -35 44.5 -50.5t67.5 -17.5q39 -2 68 11.5t50 36.5t35 54t22.5 64.5t13.5 67.5t8 64z" />
    <glyph glyph-name="ydieresis" unicode="&#xff;" horiz-adv-x="897" 
d="M411 476l245 606h302l-558 -1245q-23 -55 -52.5 -105t-69.5 -88.5t-91 -61t-116 -22.5q-32 0 -62 6.5t-60 14.5l24 221q8 -1 15 -1.5t15 -0.5q66 -1 106 28t67 88l39 88l-112 1078h289zM202 1361q0 28 11 52t29.5 42t43 28t51.5 11q27 0 51 -9t43 -25.5t30.5 -39.5
t11.5 -51t-10.5 -52t-29 -41.5t-43 -27.5t-51.5 -11q-27 0 -51.5 8.5t-43.5 25t-30.5 39.5t-11.5 51zM677 1361q0 28 10.5 52t29 41.5t43 27.5t51.5 11q27 0 51.5 -9t43 -25.5t30 -39.5t11.5 -50q0 -28 -10.5 -52t-29 -41.5t-43 -27.5t-51.5 -11q-27 0 -51.5 8.5t-43.5 25
t-30 39.5t-11 51z" />
    <glyph glyph-name="Amacron" unicode="&#x100;" 
d="M738 298h-387l-127 -298h-312l694 1456h263l191 -1456h-297zM456 543h262l-41 516zM1077 1598h-614l27 167h614z" />
    <glyph glyph-name="amacron" unicode="&#x101;" horiz-adv-x="945" 
d="M507 0q-5 21 -6.5 41.5t-1.5 42.5q-42 -48 -93 -76.5t-117 -28.5q-66 1 -117.5 27t-86.5 69.5t-52 100.5t-14 119q5 97 45 166.5t103.5 114t144.5 65.5t170 21h88l13 88q2 21 2.5 44.5t-5.5 42.5t-21 32t-43 13q-29 1 -49 -9.5t-34 -27.5t-22.5 -40t-12.5 -47l-275 -2
q5 82 41.5 147.5t93.5 110t130.5 67.5t152.5 22q81 -2 143 -28t103.5 -73t59.5 -112.5t10 -145.5l-77 -481q-5 -29 -9.5 -60t-6 -62.5t1.5 -62.5t13 -60l-1 -18h-271zM365 200q42 -1 75.5 17.5t60.5 46.5l49 229h-60q-39 -2 -71.5 -15.5t-56.5 -37.5t-39.5 -56t-20.5 -71
q-2 -19 -1.5 -38.5t7.5 -36t20.5 -27t36.5 -11.5zM892 1289h-614l27 167h614z" />
    <glyph glyph-name="Abreve" unicode="&#x102;" 
d="M738 298h-387l-127 -298h-312l694 1456h263l191 -1456h-297zM456 543h262l-41 516zM1135 1839q-4 -73 -34 -129.5t-78 -94.5t-110.5 -57.5t-132.5 -17.5q-68 1 -125.5 21.5t-99.5 59t-65.5 93t-23.5 124.5l201 -1q-2 -59 25 -94.5t91 -36.5t102.5 34.5t50.5 95.5z" />
    <glyph glyph-name="abreve" unicode="&#x103;" horiz-adv-x="945" 
d="M507 0q-5 21 -6.5 41.5t-1.5 42.5q-42 -48 -93 -76.5t-117 -28.5q-66 1 -117.5 27t-86.5 69.5t-52 100.5t-14 119q5 97 45 166.5t103.5 114t144.5 65.5t170 21h88l13 88q2 21 2.5 44.5t-5.5 42.5t-21 32t-43 13q-29 1 -49 -9.5t-34 -27.5t-22.5 -40t-12.5 -47l-275 -2
q5 82 41.5 147.5t93.5 110t130.5 67.5t152.5 22q81 -2 143 -28t103.5 -73t59.5 -112.5t10 -145.5l-77 -481q-5 -29 -9.5 -60t-6 -62.5t1.5 -62.5t13 -60l-1 -18h-271zM365 200q42 -1 75.5 17.5t60.5 46.5l49 229h-60q-39 -2 -71.5 -15.5t-56.5 -37.5t-39.5 -56t-20.5 -71
q-2 -19 -1.5 -38.5t7.5 -36t20.5 -27t36.5 -11.5zM950 1529q-4 -73 -34 -129.5t-78 -94.5t-110.5 -57.5t-132.5 -17.5q-68 1 -125.5 21.5t-99.5 59t-65.5 93t-23.5 124.5l201 -1q-2 -59 25 -94.5t91 -36.5t102.5 34.5t50.5 95.5z" />
    <glyph glyph-name="Aogonek" unicode="&#x104;" 
d="M981 0q-23 -18 -47 -37t-44.5 -40.5t-35.5 -47t-18 -56.5q-2 -20 2.5 -38t28.5 -19q17 -1 33 5.5t30 12.5l15 -160q-29 -21 -64 -31t-71 -10q-44 0 -78 16t-57 43t-35 63.5t-11 78.5q1 79 38 135.5t95 98.5l-24 284h-387l-127 -298h-312l694 1456h263l191 -1456h-79z
M456 543h262l-41 516z" />
    <glyph glyph-name="aogonek" unicode="&#x105;" horiz-adv-x="945" 
d="M724 0q-23 -18 -47 -37t-44.5 -40.5t-35.5 -47t-18 -56.5q-2 -20 2.5 -38t28.5 -19q17 -1 33 5.5t30 12.5l15 -160q-29 -21 -64 -31t-71 -10q-44 0 -78 16t-57 43t-35 63.5t-11 78.5q1 79 37.5 135.5t94.5 97.5q-3 17 -4 34.5t-1 36.5q-42 -48 -93 -76.5t-117 -28.5
q-66 1 -117.5 27t-86.5 69.5t-52 100.5t-14 119q5 97 45 166.5t103.5 114t144.5 65.5t170 21h88l13 88q2 21 2.5 44.5t-5.5 42.5t-21 32t-43 13q-29 1 -49 -9.5t-34 -27.5t-22.5 -40t-12.5 -47l-275 -2q5 82 41.5 147.5t93.5 110t130.5 67.5t152.5 22q81 -2 143 -28
t103.5 -73t59.5 -112.5t10 -145.5l-77 -481q-5 -29 -9.5 -60t-6 -62.5t1.5 -62.5t13 -60l-1 -18h-54zM365 200q42 -1 75.5 17.5t60.5 46.5l49 229h-60q-39 -2 -71.5 -15.5t-56.5 -37.5t-39.5 -56t-20.5 -71q-2 -19 -1.5 -38.5t7.5 -36t20.5 -27t36.5 -11.5z" />
    <glyph glyph-name="Cacute" unicode="&#x106;" horiz-adv-x="1143" 
d="M1042 486q-13 -114 -56 -208t-112.5 -161t-165.5 -103.5t-214 -33.5q-88 2 -155 27.5t-115 69.5t-78.5 103.5t-46 128t-17.5 143.5t8 151l38 248q18 121 61 235t115 201.5t175 139.5t240 49q117 -2 197 -43t130 -110.5t72 -163t22 -199.5l-289 1q3 51 2 99t-15 85.5
t-47.5 61.5t-94.5 26q-53 2 -93 -13.5t-69.5 -44t-49.5 -66.5t-33.5 -80.5t-22 -88t-13.5 -87.5l-36 -251q-4 -34 -9 -75t-6.5 -82.5t4 -80.5t22 -70t47 -50.5t79.5 -21.5q64 -3 107 17t70.5 55.5t43 84.5t24.5 105zM843 1854h326l-319 -310h-246z" />
    <glyph glyph-name="cacute" unicode="&#x107;" horiz-adv-x="924" 
d="M415 213q36 -1 61 12.5t41 36.5t25 52.5t14 59.5l259 1q-8 -84 -40.5 -157.5t-86.5 -127t-127.5 -83.5t-161.5 -28q-113 3 -185.5 48t-112 118t-50 165.5t0.5 190.5l9 78q9 69 27 135t46.5 125t67.5 108.5t90 84.5t115 53.5t142 16.5q92 -3 156 -38t103.5 -93.5
t55.5 -134t12 -159.5l-260 1q1 29 0.5 61.5t-9.5 61t-29.5 47.5t-58.5 21q-39 2 -66.5 -11t-46.5 -35.5t-31 -53t-19.5 -63t-11.5 -66t-7 -61.5l-7 -79q-2 -22 -6.5 -51.5t-6.5 -61t0 -62.5t12 -55.5t30.5 -40t55.5 -16.5zM658 1536h326l-319 -310h-246z" />
    <glyph glyph-name="Ccircumflex" unicode="&#x108;" horiz-adv-x="1143" 
d="M1042 486q-13 -114 -56 -208t-112.5 -161t-165.5 -103.5t-214 -33.5q-88 2 -155 27.5t-115 69.5t-78.5 103.5t-46 128t-17.5 143.5t8 151l38 248q18 121 61 235t115 201.5t175 139.5t240 49q117 -2 197 -43t130 -110.5t72 -163t22 -199.5l-289 1q3 51 2 99t-15 85.5
t-47.5 61.5t-94.5 26q-53 2 -93 -13.5t-69.5 -44t-49.5 -66.5t-33.5 -80.5t-22 -88t-13.5 -87.5l-36 -251q-4 -34 -9 -75t-6.5 -82.5t4 -80.5t22 -70t47 -50.5t79.5 -21.5q64 -3 107 17t70.5 55.5t43 84.5t24.5 105zM1089 1577v-18l-210 3l-95 143l-147 -142l-216 -3v20
l289 274l155 1z" />
    <glyph glyph-name="ccircumflex" unicode="&#x109;" horiz-adv-x="924" 
d="M415 213q36 -1 61 12.5t41 36.5t25 52.5t14 59.5l259 1q-8 -84 -40.5 -157.5t-86.5 -127t-127.5 -83.5t-161.5 -28q-113 3 -185.5 48t-112 118t-50 165.5t0.5 190.5l9 78q9 69 27 135t46.5 125t67.5 108.5t90 84.5t115 53.5t142 16.5q92 -3 156 -38t103.5 -93.5
t55.5 -134t12 -159.5l-260 1q1 29 0.5 61.5t-9.5 61t-29.5 47.5t-58.5 21q-39 2 -66.5 -11t-46.5 -35.5t-31 -53t-19.5 -63t-11.5 -66t-7 -61.5l-7 -79q-2 -22 -6.5 -51.5t-6.5 -61t0 -62.5t12 -55.5t30.5 -40t55.5 -16.5zM904 1259v-18l-210 3l-95 143l-147 -142l-216 -3
v20l289 274l155 1z" />
    <glyph glyph-name="uni010A" unicode="&#x10a;" horiz-adv-x="1143" 
d="M1042 486q-13 -114 -56 -208t-112.5 -161t-165.5 -103.5t-214 -33.5q-88 2 -155 27.5t-115 69.5t-78.5 103.5t-46 128t-17.5 143.5t8 151l38 248q18 121 61 235t115 201.5t175 139.5t240 49q117 -2 197 -43t130 -110.5t72 -163t22 -199.5l-289 1q3 51 2 99t-15 85.5
t-47.5 61.5t-94.5 26q-53 2 -93 -13.5t-69.5 -44t-49.5 -66.5t-33.5 -80.5t-22 -88t-13.5 -87.5l-36 -251q-4 -34 -9 -75t-6.5 -82.5t4 -80.5t22 -70t47 -50.5t79.5 -21.5q64 -3 107 17t70.5 55.5t43 84.5t24.5 105zM630 1705q-1 31 10 57.5t30.5 45.5t46 30t57.5 11
q30 1 56 -8.5t45.5 -27t31.5 -42.5t12 -56q1 -32 -10 -57.5t-30.5 -44.5t-46 -29.5t-57.5 -10.5q-29 0 -55.5 9t-46 26t-31.5 42t-12 55z" />
    <glyph glyph-name="uni010B" unicode="&#x10b;" horiz-adv-x="924" 
d="M415 213q36 -1 61 12.5t41 36.5t25 52.5t14 59.5l259 1q-8 -84 -40.5 -157.5t-86.5 -127t-127.5 -83.5t-161.5 -28q-113 3 -185.5 48t-112 118t-50 165.5t0.5 190.5l9 78q9 69 27 135t46.5 125t67.5 108.5t90 84.5t115 53.5t142 16.5q92 -3 156 -38t103.5 -93.5
t55.5 -134t12 -159.5l-260 1q1 29 0.5 61.5t-9.5 61t-29.5 47.5t-58.5 21q-39 2 -66.5 -11t-46.5 -35.5t-31 -53t-19.5 -63t-11.5 -66t-7 -61.5l-7 -79q-2 -22 -6.5 -51.5t-6.5 -61t0 -62.5t12 -55.5t30.5 -40t55.5 -16.5zM445 1387q-1 31 10 57.5t30.5 45.5t46 30t57.5 11
q30 1 56 -8.5t45.5 -27t31.5 -42.5t12 -56q1 -32 -10 -57.5t-30.5 -44.5t-46 -29.5t-57.5 -10.5q-29 0 -55.5 9t-46 26t-31.5 42t-12 55z" />
    <glyph glyph-name="Ccaron" unicode="&#x10c;" horiz-adv-x="1143" 
d="M1042 486q-13 -114 -56 -208t-112.5 -161t-165.5 -103.5t-214 -33.5q-88 2 -155 27.5t-115 69.5t-78.5 103.5t-46 128t-17.5 143.5t8 151l38 248q18 121 61 235t115 201.5t175 139.5t240 49q117 -2 197 -43t130 -110.5t72 -163t22 -199.5l-289 1q3 51 2 99t-15 85.5
t-47.5 61.5t-94.5 26q-53 2 -93 -13.5t-69.5 -44t-49.5 -66.5t-33.5 -80.5t-22 -88t-13.5 -87.5l-36 -251q-4 -34 -9 -75t-6.5 -82.5t4 -80.5t22 -70t47 -50.5t79.5 -21.5q64 -3 107 17t70.5 55.5t43 84.5t24.5 105zM765 1715l137 139l240 4l1 -17l-298 -278h-171l-224 280
v16l228 -4z" />
    <glyph glyph-name="ccaron" unicode="&#x10d;" horiz-adv-x="924" 
d="M415 213q36 -1 61 12.5t41 36.5t25 52.5t14 59.5l259 1q-8 -84 -40.5 -157.5t-86.5 -127t-127.5 -83.5t-161.5 -28q-113 3 -185.5 48t-112 118t-50 165.5t0.5 190.5l9 78q9 69 27 135t46.5 125t67.5 108.5t90 84.5t115 53.5t142 16.5q92 -3 156 -38t103.5 -93.5
t55.5 -134t12 -159.5l-260 1q1 29 0.5 61.5t-9.5 61t-29.5 47.5t-58.5 21q-39 2 -66.5 -11t-46.5 -35.5t-31 -53t-19.5 -63t-11.5 -66t-7 -61.5l-7 -79q-2 -22 -6.5 -51.5t-6.5 -61t0 -62.5t12 -55.5t30.5 -40t55.5 -16.5zM580 1397l137 139l240 4l1 -17l-298 -278h-171
l-224 280v16l228 -4z" />
    <glyph glyph-name="Dcaron" unicode="&#x10e;" horiz-adv-x="1132" 
d="M9 0l252 1456l359 -1q131 -3 223.5 -54.5t148 -136t75 -194.5t4.5 -230l-34 -226q-20 -130 -70.5 -242.5t-131 -195.5t-191 -130t-249.5 -46h-386zM506 1211l-168 -967l71 -2q88 0 148.5 28t99.5 78.5t61 118.5t33 147l33 229q5 42 9 85t2 83t-11.5 75.5t-31 62.5
t-56.5 43t-88 18zM619 1710l137 139l240 4l1 -17l-298 -278h-171l-224 280v16l228 -4z" />
    <glyph glyph-name="dcaron" unicode="&#x10f;" horiz-adv-x="1145" 
d="M56 569q7 60 20.5 123.5t35 123.5t53.5 113.5t76 93t101 61t131 19.5q62 -2 110 -31t83 -80l102 544h278l-266 -1536h-248l15 110q-22 -28 -46.5 -52t-52.5 -42t-60.5 -28t-69.5 -10q-69 1 -117 25t-80 64.5t-49.5 93.5t-24.5 110.5t-6 115.5t7 110zM326 501
q-2 -21 -5.5 -50t-5 -60.5t1.5 -63t13.5 -56t30.5 -40.5t54 -16q45 -1 77 21t59 54l87 497q-17 35 -41.5 56t-65.5 23q-59 3 -95 -25.5t-57 -73t-30.5 -97t-14.5 -96.5zM1393 1381q-17 -108 -72 -204t-134 -170l-133 83q41 70 73 139.5t47 150.5l27 156h216z" />
    <glyph glyph-name="Dcroat" unicode="&#x110;" horiz-adv-x="1162" 
d="M39 0l111 641h-122l33 183h120l110 632l359 -1q131 -3 223.5 -54.5t148 -136t75 -194.5t4.5 -230l-34 -226q-20 -130 -70.5 -242.5t-131 -195.5t-191 -130t-249.5 -46h-386zM619 641h-182l-69 -397l71 -2q88 0 148.5 28t99.5 78.5t61 118.5t33 147l33 229q5 42 9 85t2 83
t-11.5 75.5t-31 62.5t-56.5 43t-88 18l-102 1l-67 -387h182z" />
    <glyph glyph-name="dcroat" unicode="&#x111;" horiz-adv-x="1025" 
d="M1118 1218h-127l-211 -1218h-248l15 110q-22 -28 -46.5 -52t-52.5 -42t-60.5 -28t-69.5 -10q-69 1 -117 25t-80 64.5t-49.5 93.5t-24.5 110.5t-6 115.5t7 110l8 72q7 60 20.5 123.5t35 123.5t53.5 113.5t76 93t101 61t131 19.5q62 -2 110 -31t83 -80l42 226h-181l33 183
h182l26 135h278l-24 -135h128zM326 501q-2 -21 -5.5 -50t-5 -60.5t1.5 -63t13.5 -56t30.5 -40.5t54 -16q45 -1 77 21t59 54l87 497q-17 35 -41.5 56t-65.5 23q-59 3 -95 -25.5t-57 -73t-30.5 -97t-14.5 -96.5z" />
    <glyph glyph-name="Emacron" unicode="&#x112;" horiz-adv-x="985" 
d="M849 630h-444l-67 -386h526l-43 -244h-812l252 1456h811l-43 -245h-523l-60 -344h445zM1022 1601h-614l27 167h614z" />
    <glyph glyph-name="emacron" unicode="&#x113;" horiz-adv-x="961" 
d="M436 -20q-109 1 -186 42t-123.5 109t-63.5 158t-6 190l11 89q13 104 47.5 201.5t94.5 172.5t147.5 119t204.5 41q112 -3 181.5 -50t105.5 -122t44 -168t-4 -187l-19 -129h-540q-5 -43 -3 -83.5t16 -72.5t44 -52.5t81 -21.5q69 -2 129.5 24.5t112.5 70.5l93 -172
q-31 -42 -73.5 -72.5t-90.5 -50t-100 -28.5t-103 -8zM535 869q-48 2 -79.5 -19t-52 -54t-33 -74t-21.5 -78l275 -1l5 29q5 31 6 65t-7.5 63t-30.5 48t-62 21zM887 1289h-614l27 167h614z" />
    <glyph glyph-name="Ebreve" unicode="&#x114;" horiz-adv-x="985" 
d="M849 630h-444l-67 -386h526l-43 -244h-812l252 1456h811l-43 -245h-523l-60 -344h445zM1080 1842q-4 -73 -34 -129.5t-78 -94.5t-110.5 -57.5t-132.5 -17.5q-68 1 -125.5 21.5t-99.5 59t-65.5 93t-23.5 124.5l201 -1q-2 -59 25 -94.5t91 -36.5t102.5 34.5t50.5 95.5z" />
    <glyph glyph-name="ebreve" unicode="&#x115;" horiz-adv-x="961" 
d="M436 -20q-109 1 -186 42t-123.5 109t-63.5 158t-6 190l11 89q13 104 47.5 201.5t94.5 172.5t147.5 119t204.5 41q112 -3 181.5 -50t105.5 -122t44 -168t-4 -187l-19 -129h-540q-5 -43 -3 -83.5t16 -72.5t44 -52.5t81 -21.5q69 -2 129.5 24.5t112.5 70.5l93 -172
q-31 -42 -73.5 -72.5t-90.5 -50t-100 -28.5t-103 -8zM535 869q-48 2 -79.5 -19t-52 -54t-33 -74t-21.5 -78l275 -1l5 29q5 31 6 65t-7.5 63t-30.5 48t-62 21zM945 1529q-4 -73 -34 -129.5t-78 -94.5t-110.5 -57.5t-132.5 -17.5q-68 1 -125.5 21.5t-99.5 59t-65.5 93
t-23.5 124.5l201 -1q-2 -59 25 -94.5t91 -36.5t102.5 34.5t50.5 95.5z" />
    <glyph glyph-name="Edotaccent" unicode="&#x116;" horiz-adv-x="985" 
d="M849 630h-444l-67 -386h526l-43 -244h-812l252 1456h811l-43 -245h-523l-60 -344h445zM587 1700q-1 31 10 57.5t30.5 45.5t46 30t57.5 11q30 1 56 -8.5t45.5 -27t31.5 -42.5t12 -56q1 -32 -10 -57.5t-30.5 -44.5t-46 -29.5t-57.5 -10.5q-29 0 -55.5 9t-46 26t-31.5 42
t-12 55z" />
    <glyph glyph-name="edotaccent" unicode="&#x117;" horiz-adv-x="961" 
d="M436 -20q-109 1 -186 42t-123.5 109t-63.5 158t-6 190l11 89q13 104 47.5 201.5t94.5 172.5t147.5 119t204.5 41q112 -3 181.5 -50t105.5 -122t44 -168t-4 -187l-19 -129h-540q-5 -43 -3 -83.5t16 -72.5t44 -52.5t81 -21.5q69 -2 129.5 24.5t112.5 70.5l93 -172
q-31 -42 -73.5 -72.5t-90.5 -50t-100 -28.5t-103 -8zM535 869q-48 2 -79.5 -19t-52 -54t-33 -74t-21.5 -78l275 -1l5 29q5 31 6 65t-7.5 63t-30.5 48t-62 21zM452 1387q-1 31 10 57.5t30.5 45.5t46 30t57.5 11q30 1 56 -8.5t45.5 -27t31.5 -42.5t12 -56q1 -32 -10 -57.5
t-30.5 -44.5t-46 -29.5t-57.5 -10.5q-29 0 -55.5 9t-46 26t-31.5 42t-12 55z" />
    <glyph glyph-name="Eogonek" unicode="&#x118;" horiz-adv-x="985" 
d="M849 630h-444l-67 -386h526l-43 -244h-141q-23 -18 -47 -37t-44.5 -40.5t-35.5 -47t-18 -56.5q-2 -20 2.5 -38t28.5 -19q17 -1 33 5.5t30 12.5l15 -160q-29 -21 -64 -31t-71 -10q-44 0 -78 16t-57 43t-35 63.5t-11 78.5q1 72 32 126t82 94h-433l252 1456h811l-43 -245
h-523l-60 -344h445z" />
    <glyph glyph-name="eogonek" unicode="&#x119;" horiz-adv-x="961" 
d="M803 139q-41 -55 -99 -90t-124 -52q-36 -29 -66 -63.5t-35 -82.5q-2 -20 2.5 -38t28.5 -19q17 -1 33 5.5t30 12.5l15 -160q-29 -21 -64 -31t-71 -10q-44 0 -78 16t-57 43t-35 63.5t-11 78.5q1 55 19 99.5t50 79.5q-83 18 -141 63t-93 110.5t-47 146t-3 168.5l11 89
q13 104 47.5 201.5t94.5 172.5t147.5 119t204.5 41q112 -3 181.5 -50t105.5 -122t44 -168t-4 -187l-19 -129h-540q-5 -43 -3 -83.5t16 -72.5t44 -52.5t81 -21.5q69 -2 129.5 24.5t112.5 70.5zM535 869q-48 2 -79.5 -19t-52 -54t-33 -74t-21.5 -78l275 -1l5 29q5 31 6 65
t-7.5 63t-30.5 48t-62 21z" />
    <glyph glyph-name="Ecaron" unicode="&#x11a;" horiz-adv-x="985" 
d="M849 630h-444l-67 -386h526l-43 -244h-812l252 1456h811l-43 -245h-523l-60 -344h445zM722 1710l137 139l240 4l1 -17l-298 -278h-171l-224 280v16l228 -4z" />
    <glyph glyph-name="ecaron" unicode="&#x11b;" horiz-adv-x="961" 
d="M436 -20q-109 1 -186 42t-123.5 109t-63.5 158t-6 190l11 89q13 104 47.5 201.5t94.5 172.5t147.5 119t204.5 41q112 -3 181.5 -50t105.5 -122t44 -168t-4 -187l-19 -129h-540q-5 -43 -3 -83.5t16 -72.5t44 -52.5t81 -21.5q69 -2 129.5 24.5t112.5 70.5l93 -172
q-31 -42 -73.5 -72.5t-90.5 -50t-100 -28.5t-103 -8zM535 869q-48 2 -79.5 -19t-52 -54t-33 -74t-21.5 -78l275 -1l5 29q5 31 6 65t-7.5 63t-30.5 48t-62 21zM587 1397l137 139l240 4l1 -17l-298 -278h-171l-224 280v16l228 -4z" />
    <glyph glyph-name="Gcircumflex" unicode="&#x11c;" horiz-adv-x="1172" 
d="M1010 165q-45 -50 -102.5 -85.5t-122 -58t-132.5 -32.5t-133 -9q-90 1 -159 26t-119.5 68t-83.5 102t-50.5 128t-20 145t7.5 155l37 246q12 82 35 161.5t58 149.5t82.5 129t109.5 101t138.5 64.5t169.5 20.5q114 -2 194 -38t130 -100t73 -152t24 -195l-279 1
q0 46 -4 88.5t-20 75.5t-47 54t-85 23q-80 3 -132 -32t-84.5 -91.5t-49.5 -125t-26 -132.5l-35 -249q-5 -37 -8.5 -79.5t-1.5 -84t10.5 -80t29 -68t54.5 -47.5t85 -19q50 -1 91 13.5t83 37.5l51 268h-201l39 222h486zM1092 1577v-18l-210 3l-95 143l-147 -142l-216 -3v20
l289 274l155 1z" />
    <glyph glyph-name="gcircumflex" unicode="&#x11d;" horiz-adv-x="1009" 
d="M61 568q7 61 21 125t36.5 124t55.5 113t78 92t103.5 60.5t132.5 19.5q68 -2 121.5 -30t88.5 -88l34 99l252 -1l-184 -1082q-14 -102 -53.5 -182.5t-103 -135.5t-149 -83.5t-189.5 -25.5q-43 1 -87 10t-85 25t-78.5 40t-67.5 55l113 194q40 -45 93.5 -70.5t113.5 -27.5
q49 -2 86.5 12t64 40t43.5 63t26 83l20 90q-44 -49 -95 -78.5t-119 -29.5q-69 1 -118 25t-81.5 64t-51.5 92.5t-27 109.5t-7.5 115.5t5.5 111.5zM329 501q-2 -22 -5 -51.5t-3 -61t4 -62t16 -55t33.5 -39.5t55.5 -16q42 -1 75 16t62 46l93 520q-19 33 -45.5 50t-64.5 19
q-59 3 -98 -25t-62.5 -72.5t-35.5 -97t-17 -98.5zM921 1259v-18l-210 3l-95 143l-147 -142l-216 -3v20l289 274l155 1z" />
    <glyph glyph-name="Gbreve" unicode="&#x11e;" horiz-adv-x="1172" 
d="M1010 165q-45 -50 -102.5 -85.5t-122 -58t-132.5 -32.5t-133 -9q-90 1 -159 26t-119.5 68t-83.5 102t-50.5 128t-20 145t7.5 155l37 246q12 82 35 161.5t58 149.5t82.5 129t109.5 101t138.5 64.5t169.5 20.5q114 -2 194 -38t130 -100t73 -152t24 -195l-279 1
q0 46 -4 88.5t-20 75.5t-47 54t-85 23q-80 3 -132 -32t-84.5 -91.5t-49.5 -125t-26 -132.5l-35 -249q-5 -37 -8.5 -79.5t-1.5 -84t10.5 -80t29 -68t54.5 -47.5t85 -19q50 -1 91 13.5t83 37.5l51 268h-201l39 222h486zM1126 1847q-4 -73 -34 -129.5t-78 -94.5t-110.5 -57.5
t-132.5 -17.5q-68 1 -125.5 21.5t-99.5 59t-65.5 93t-23.5 124.5l201 -1q-2 -59 25 -94.5t91 -36.5t102.5 34.5t50.5 95.5z" />
    <glyph glyph-name="gbreve" unicode="&#x11f;" horiz-adv-x="1009" 
d="M61 568q7 61 21 125t36.5 124t55.5 113t78 92t103.5 60.5t132.5 19.5q68 -2 121.5 -30t88.5 -88l34 99l252 -1l-184 -1082q-14 -102 -53.5 -182.5t-103 -135.5t-149 -83.5t-189.5 -25.5q-43 1 -87 10t-85 25t-78.5 40t-67.5 55l113 194q40 -45 93.5 -70.5t113.5 -27.5
q49 -2 86.5 12t64 40t43.5 63t26 83l20 90q-44 -49 -95 -78.5t-119 -29.5q-69 1 -118 25t-81.5 64t-51.5 92.5t-27 109.5t-7.5 115.5t5.5 111.5zM329 501q-2 -22 -5 -51.5t-3 -61t4 -62t16 -55t33.5 -39.5t55.5 -16q42 -1 75 16t62 46l93 520q-19 33 -45.5 50t-64.5 19
q-59 3 -98 -25t-62.5 -72.5t-35.5 -97t-17 -98.5zM955 1529q-4 -73 -34 -129.5t-78 -94.5t-110.5 -57.5t-132.5 -17.5q-68 1 -125.5 21.5t-99.5 59t-65.5 93t-23.5 124.5l201 -1q-2 -59 25 -94.5t91 -36.5t102.5 34.5t50.5 95.5z" />
    <glyph glyph-name="uni0120" unicode="&#x120;" horiz-adv-x="1172" 
d="M1010 165q-45 -50 -102.5 -85.5t-122 -58t-132.5 -32.5t-133 -9q-90 1 -159 26t-119.5 68t-83.5 102t-50.5 128t-20 145t7.5 155l37 246q12 82 35 161.5t58 149.5t82.5 129t109.5 101t138.5 64.5t169.5 20.5q114 -2 194 -38t130 -100t73 -152t24 -195l-279 1
q0 46 -4 88.5t-20 75.5t-47 54t-85 23q-80 3 -132 -32t-84.5 -91.5t-49.5 -125t-26 -132.5l-35 -249q-5 -37 -8.5 -79.5t-1.5 -84t10.5 -80t29 -68t54.5 -47.5t85 -19q50 -1 91 13.5t83 37.5l51 268h-201l39 222h486zM633 1705q-1 31 10 57.5t30.5 45.5t46 30t57.5 11
q30 1 56 -8.5t45.5 -27t31.5 -42.5t12 -56q1 -32 -10 -57.5t-30.5 -44.5t-46 -29.5t-57.5 -10.5q-29 0 -55.5 9t-46 26t-31.5 42t-12 55z" />
    <glyph glyph-name="uni0121" unicode="&#x121;" horiz-adv-x="1009" 
d="M61 568q7 61 21 125t36.5 124t55.5 113t78 92t103.5 60.5t132.5 19.5q68 -2 121.5 -30t88.5 -88l34 99l252 -1l-184 -1082q-14 -102 -53.5 -182.5t-103 -135.5t-149 -83.5t-189.5 -25.5q-43 1 -87 10t-85 25t-78.5 40t-67.5 55l113 194q40 -45 93.5 -70.5t113.5 -27.5
q49 -2 86.5 12t64 40t43.5 63t26 83l20 90q-44 -49 -95 -78.5t-119 -29.5q-69 1 -118 25t-81.5 64t-51.5 92.5t-27 109.5t-7.5 115.5t5.5 111.5zM329 501q-2 -22 -5 -51.5t-3 -61t4 -62t16 -55t33.5 -39.5t55.5 -16q42 -1 75 16t62 46l93 520q-19 33 -45.5 50t-64.5 19
q-59 3 -98 -25t-62.5 -72.5t-35.5 -97t-17 -98.5zM462 1387q-1 31 10 57.5t30.5 45.5t46 30t57.5 11q30 1 56 -8.5t45.5 -27t31.5 -42.5t12 -56q1 -32 -10 -57.5t-30.5 -44.5t-46 -29.5t-57.5 -10.5q-29 0 -55.5 9t-46 26t-31.5 42t-12 55z" />
    <glyph glyph-name="Gcommaaccent" unicode="&#x122;" horiz-adv-x="1172" 
d="M1010 165q-45 -50 -102.5 -85.5t-122 -58t-132.5 -32.5t-133 -9q-90 1 -159 26t-119.5 68t-83.5 102t-50.5 128t-20 145t7.5 155l37 246q12 82 35 161.5t58 149.5t82.5 129t109.5 101t138.5 64.5t169.5 20.5q114 -2 194 -38t130 -100t73 -152t24 -195l-279 1
q0 46 -4 88.5t-20 75.5t-47 54t-85 23q-80 3 -132 -32t-84.5 -91.5t-49.5 -125t-26 -132.5l-35 -249q-5 -37 -8.5 -79.5t-1.5 -84t10.5 -80t29 -68t54.5 -47.5t85 -19q50 -1 91 13.5t83 37.5l51 268h-201l39 222h486zM563 -165q-11 -100 -57.5 -191t-116.5 -163l-132 81
q38 62 65 123.5t40 133.5l16 87h192z" />
    <glyph glyph-name="gcommaaccent" unicode="&#x123;" horiz-adv-x="1009" 
d="M61 568q7 61 21 125t36.5 124t55.5 113t78 92t103.5 60.5t132.5 19.5q68 -2 121.5 -30t88.5 -88l34 99l252 -1l-184 -1082q-14 -102 -53.5 -182.5t-103 -135.5t-149 -83.5t-189.5 -25.5q-43 1 -87 10t-85 25t-78.5 40t-67.5 55l113 194q40 -45 93.5 -70.5t113.5 -27.5
q49 -2 86.5 12t64 40t43.5 63t26 83l20 90q-44 -49 -95 -78.5t-119 -29.5q-69 1 -118 25t-81.5 64t-51.5 92.5t-27 109.5t-7.5 115.5t5.5 111.5zM329 501q-2 -22 -5 -51.5t-3 -61t4 -62t16 -55t33.5 -39.5t55.5 -16q42 -1 75 16t62 46l93 520q-19 33 -45.5 50t-64.5 19
q-59 3 -98 -25t-62.5 -72.5t-35.5 -97t-17 -98.5zM492 1395q7 47 20 93t34 88.5t50.5 79.5t69.5 66l141 -80q-35 -62 -61.5 -125t-39.5 -133l-23 -125h-211z" />
    <glyph glyph-name="Hcircumflex" unicode="&#x124;" horiz-adv-x="1229" 
d="M1001 0h-286l108 623h-419l-108 -623h-287l252 1456h287l-102 -589h419l103 589h286zM1114 1572v-18l-210 3l-95 143l-147 -142l-216 -3v20l289 274l155 1z" />
    <glyph glyph-name="hcircumflex" unicode="&#x125;" horiz-adv-x="988" 
d="M425 986q45 52 100.5 85t126.5 32q57 -1 98.5 -20t69.5 -50.5t45 -73.5t24.5 -88.5t7.5 -95t-5 -94.5l-114 -681h-277l113 684q3 27 4.5 58.5t-5 58.5t-25.5 45.5t-56 18.5q-42 1 -72 -19.5t-56 -50.5l-139 -795h-277l267 1536h276zM973 1641v-18l-210 3l-95 143
l-147 -142l-216 -3v20l289 274l155 1z" />
    <glyph glyph-name="Hbar" unicode="&#x126;" horiz-adv-x="1264" 
d="M1236 1226h94l-31 -175h-94l-182 -1051h-286l108 623h-419l-108 -623h-287l182 1051h-87l31 175h86l40 230h287l-40 -230h419l41 230h286zM887 867l32 184h-419l-32 -184h419z" />
    <glyph glyph-name="hbar" unicode="&#x127;" horiz-adv-x="1018" 
d="M691 1215h-192l-44 -229q45 52 100.5 85t126.5 32q57 -1 98.5 -20t69.5 -50.5t45 -73.5t24.5 -88.5t7.5 -95t-5 -94.5l-114 -681h-277l113 684q3 27 4.5 58.5t-5 58.5t-25.5 45.5t-56 18.5q-42 1 -72 -19.5t-56 -50.5l-139 -795h-277l211 1215h-129l33 183h128l24 138
h276l-27 -138h189z" />
    <glyph glyph-name="Itilde" unicode="&#x128;" horiz-adv-x="547" 
d="M308 0h-287l253 1456h287zM785 1835q-3 -44 -16 -91.5t-38 -87.5t-63 -65.5t-92 -24.5q-32 0 -58.5 15t-52 32t-51.5 30.5t-56 11.5q-19 -1 -32.5 -10.5t-22.5 -23t-14.5 -30t-9.5 -32.5l-157 9q3 43 16.5 91.5t39 88.5t64 66t91.5 25q31 -1 58 -15.5t52.5 -31.5
t52 -30.5t57.5 -11.5q19 1 32.5 10.5t22.5 23t15 30t11 32.5z" />
    <glyph glyph-name="itilde" unicode="&#x129;" horiz-adv-x="531" 
d="M292 0h-276l187 1082h277zM721 1507q-3 -44 -16 -91.5t-38 -87.5t-63 -65.5t-92 -24.5q-32 0 -58.5 15t-52 32t-51.5 30.5t-56 11.5q-19 -1 -32.5 -10.5t-22.5 -23t-14.5 -30t-9.5 -32.5l-157 9q3 43 16.5 91.5t39 88.5t64 66t91.5 25q31 -1 58 -15.5t52.5 -31.5
t52 -30.5t57.5 -11.5q19 1 32.5 10.5t22.5 23t15 30t11 32.5z" />
    <glyph glyph-name="Imacron" unicode="&#x12a;" horiz-adv-x="547" 
d="M308 0h-287l253 1456h287zM750 1601h-614l27 167h614z" />
    <glyph glyph-name="imacron" unicode="&#x12b;" horiz-adv-x="531" 
d="M292 0h-276l187 1082h277zM686 1273h-614l27 167h614z" />
    <glyph glyph-name="Ibreve" unicode="&#x12c;" horiz-adv-x="547" 
d="M308 0h-287l253 1456h287zM808 1842q-4 -73 -34 -129.5t-78 -94.5t-110.5 -57.5t-132.5 -17.5q-68 1 -125.5 21.5t-99.5 59t-65.5 93t-23.5 124.5l201 -1q-2 -59 25 -94.5t91 -36.5t102.5 34.5t50.5 95.5z" />
    <glyph glyph-name="ibreve" unicode="&#x12d;" horiz-adv-x="531" 
d="M292 0h-276l187 1082h277zM744 1514q-4 -73 -34 -129.5t-78 -94.5t-110.5 -57.5t-132.5 -17.5q-68 1 -125.5 21.5t-99.5 59t-65.5 93t-23.5 124.5l201 -1q-2 -59 25 -94.5t91 -36.5t102.5 34.5t50.5 95.5z" />
    <glyph glyph-name="Iogonek" unicode="&#x12e;" horiz-adv-x="547" 
d="M308 0h-58q-23 -18 -47 -37t-44.5 -40.5t-35.5 -47t-18 -56.5q-2 -20 2.5 -38t28.5 -19q17 -1 33 5.5t30 12.5l15 -160q-29 -21 -64 -31t-71 -10q-44 0 -78 16t-57 43t-35 63.5t-11 78.5q2 76 36 131.5t88 96.5l252 1448h287z" />
    <glyph glyph-name="iogonek" unicode="&#x12f;" horiz-adv-x="511" 
d="M285 0h-42q-23 -18 -47 -37t-44.5 -40.5t-35.5 -47t-18 -56.5q-2 -20 2.5 -38t28.5 -19q17 -1 33 5.5t30 12.5l15 -160q-29 -21 -64 -31t-71 -10q-44 0 -78 16t-57 43t-35 63.5t-11 78.5q2 74 34 128t83 94l188 1080h277zM232 1357q0 33 10.5 61t30.5 49t48 33.5t61 12.5
q32 1 59 -10t47 -30.5t31.5 -46.5t11.5 -59q0 -33 -10.5 -61.5t-30.5 -49.5t-48 -33.5t-61 -12.5q-32 -1 -59.5 10t-47 30.5t-31 47t-11.5 59.5z" />
    <glyph glyph-name="Idotaccent" unicode="&#x130;" horiz-adv-x="547" 
d="M308 0h-287l253 1456h287zM314 1700q-1 31 10 57.5t30.5 45.5t46 30t57.5 11q30 1 56 -8.5t45.5 -27t31.5 -42.5t12 -56q1 -32 -10 -57.5t-30.5 -44.5t-46 -29.5t-57.5 -10.5q-29 0 -55.5 9t-46 26t-31.5 42t-12 55z" />
    <glyph glyph-name="dotlessi" unicode="&#x131;" horiz-adv-x="531" 
d="M292 0h-276l187 1082h277z" />
    <glyph glyph-name="IJ" unicode="&#x132;" horiz-adv-x="1531" 
d="M308 0h-287l253 1456h287zM1273 1456h287l-172 -1008q-13 -95 -50 -180.5t-97 -150.5t-142 -102.5t-185 -35.5q-100 2 -169.5 38.5t-112.5 98t-61 142.5t-13 173l290 -1q-2 -28 -2.5 -63.5t7.5 -67t28 -53.5t60 -23q42 -1 71 21.5t47.5 56.5t28 73.5t14.5 72.5z" />
    <glyph glyph-name="ij" unicode="&#x133;" horiz-adv-x="1009" 
d="M285 0h-277l188 1082h277zM232 1357q0 33 10.5 61t30.5 49t48 33.5t61 12.5q32 1 59 -10t47 -30.5t31.5 -46.5t11.5 -59q0 -33 -10.5 -61.5t-30.5 -49.5t-48 -33.5t-61 -12.5q-32 -1 -59.5 10t-47 30.5t-31 47t-11.5 59.5zM985 1082l-194 -1139q-10 -78 -35.5 -148
t-70 -122.5t-108.5 -83t-151 -30.5q-34 1 -67 5.5t-66 12.5l21 234q18 -5 36.5 -9t37.5 -4q31 0 53 12.5t36.5 33t22.5 46t13 52.5l195 1140h277zM738 1357q0 33 11 61t31 49t47.5 33t60.5 13q32 1 59 -10t47 -30.5t31.5 -46.5t11.5 -59q0 -33 -10.5 -61.5t-30.5 -49.5
t-48 -33.5t-61 -12.5q-32 -1 -59.5 10t-47 30.5t-31 47t-11.5 59.5z" />
    <glyph glyph-name="Jcircumflex" unicode="&#x134;" horiz-adv-x="984" 
d="M726 1456h287l-172 -1008q-13 -95 -50 -180.5t-97 -150.5t-142 -102.5t-185 -35.5q-100 2 -169.5 38.5t-112.5 98t-61 142.5t-13 173l290 -1q-2 -28 -2.5 -63.5t7.5 -67t28 -53.5t60 -23q42 -1 71 21.5t47.5 56.5t28 73.5t14.5 72.5zM1215 1569v-18l-210 3l-95 143
l-147 -142l-216 -3v20l289 274l155 1z" />
    <glyph glyph-name="jcircumflex" unicode="&#x135;" horiz-adv-x="544" 
d="M495 1082l-190 -1114q-11 -81 -37.5 -155t-73 -130.5t-113.5 -90t-158 -32.5q-34 1 -66.5 6t-65.5 14l38 230q20 -6 40.5 -11.5t41.5 -4.5q32 1 53 18.5t34 44t20 56t11 54.5l190 1115h276zM702 1234v-18l-210 3l-95 143l-147 -142l-216 -3v20l289 274l155 1z" />
    <glyph glyph-name="Kcommaaccent" unicode="&#x136;" horiz-adv-x="1109" 
d="M512 558l-146 -154l-70 -404h-287l252 1456h287l-108 -619l116 154l336 465h367l-527 -653l266 -803h-327zM533 -102q-11 -100 -57.5 -191t-116.5 -163l-132 81q38 62 65 123.5t40 133.5l16 87h192z" />
    <glyph glyph-name="kcommaaccent" unicode="&#x137;" horiz-adv-x="961" 
d="M424 413l-97 -92l-56 -321h-276l267 1536h276l-153 -833l44 54l245 325h345l-394 -459l220 -623h-303zM460 -123q-11 -100 -57.5 -191t-116.5 -163l-132 81q38 62 65 123.5t40 133.5l16 87h192z" />
    <glyph glyph-name="kgreenlandic" unicode="&#x138;" horiz-adv-x="1055" 
d="M446 397h-88l-68 -397h-276l187 1082h277l-77 -408h52l268 408h362l-393 -519l197 -563h-335z" />
    <glyph glyph-name="Lacute" unicode="&#x139;" horiz-adv-x="961" 
d="M338 244h501l-43 -244h-787l252 1456h287zM522 1846h326l-319 -310h-246z" />
    <glyph glyph-name="lacute" unicode="&#x13a;" horiz-adv-x="511" 
d="M285 0h-277l266 1536h278zM523 1928h326l-319 -310h-246z" />
    <glyph glyph-name="Lcommaaccent" unicode="&#x13b;" horiz-adv-x="961" 
d="M338 244h501l-43 -244h-787l252 1456h287zM474 -153q-11 -100 -57.5 -191t-116.5 -163l-132 81q38 62 65 123.5t40 133.5l16 87h192z" />
    <glyph glyph-name="lcommaaccent" unicode="&#x13c;" horiz-adv-x="511" 
d="M285 0h-277l266 1536h278zM219 -153q-11 -100 -57.5 -191t-116.5 -163l-132 81q38 62 65 123.5t40 133.5l16 87h192z" />
    <glyph glyph-name="Lcaron" unicode="&#x13d;" horiz-adv-x="961" 
d="M338 244h501l-43 -244h-787l252 1456h287zM977 1301q-17 -108 -72 -204t-134 -170l-133 83q41 70 73 139.5t47 150.5l27 156h216z" />
    <glyph glyph-name="lcaron" unicode="&#x13e;" horiz-adv-x="661" 
d="M285 0h-277l266 1536h278zM893 1381q-17 -108 -72 -204t-134 -170l-133 83q41 70 73 139.5t47 150.5l27 156h216z" />
    <glyph glyph-name="Ldot" unicode="&#x13f;" horiz-adv-x="961" 
d="M338 244h501l-43 -244h-787l252 1456h287zM542 824q-1 31 10 57.5t30.5 45.5t46 30t57.5 11q30 1 56 -8.5t45.5 -27t31.5 -42.5t12 -56q1 -32 -10 -57.5t-30.5 -44.5t-46 -29.5t-57.5 -10.5q-29 0 -55.5 9t-46 26t-31.5 42t-12 55z" />
    <glyph glyph-name="ldot" unicode="&#x140;" horiz-adv-x="731" 
d="M285 0h-277l266 1536h278zM487 767q-1 31 10 57.5t30.5 45.5t46 30t57.5 11q30 1 56 -8.5t45.5 -27t31.5 -42.5t12 -56q1 -32 -10 -57.5t-30.5 -44.5t-46 -29.5t-57.5 -10.5q-29 0 -55.5 9t-46 26t-31.5 42t-12 55z" />
    <glyph glyph-name="Lslash" unicode="&#x141;" horiz-adv-x="993" 
d="M487 910l163 53l-36 -209l-163 -53l-79 -457h501l-43 -244h-787l104 601l-106 -34l37 209l105 34l112 646h287z" />
    <glyph glyph-name="lslash" unicode="&#x142;" horiz-adv-x="579" 
d="M472 922l114 42l-38 -210l-112 -42l-124 -712h-277l104 603l-100 -37l37 210l100 37l125 723h278z" />
    <glyph glyph-name="Nacute" unicode="&#x143;" horiz-adv-x="1226" 
d="M998 0h-280l-254 965l-168 -965h-287l252 1456h281l255 -966l168 966h286zM871 1846h326l-319 -310h-246z" />
    <glyph glyph-name="nacute" unicode="&#x144;" horiz-adv-x="988" 
d="M434 1083l-20 -109q25 29 52.5 53t59 41.5t67 26.5t74.5 8q56 -1 95.5 -20t66.5 -50.5t42 -73t21.5 -87t6 -93t-5.5 -91.5l-115 -688h-277l114 690q3 28 4.5 59t-5.5 57t-26 43t-56 17q-43 0 -73 -23.5t-56 -55.5l-137 -787h-278l188 1082zM694 1536h326l-319 -310h-246z
" />
    <glyph glyph-name="Ncommaaccent" unicode="&#x145;" horiz-adv-x="1226" 
d="M998 0h-280l-254 965l-168 -965h-287l252 1456h281l255 -966l168 966h286zM577 -161q-11 -100 -57.5 -191t-116.5 -163l-132 81q38 62 65 123.5t40 133.5l16 87h192z" />
    <glyph glyph-name="ncommaaccent" unicode="&#x146;" horiz-adv-x="988" 
d="M434 1083l-20 -109q25 29 52.5 53t59 41.5t67 26.5t74.5 8q56 -1 95.5 -20t66.5 -50.5t42 -73t21.5 -87t6 -93t-5.5 -91.5l-115 -688h-277l114 690q3 28 4.5 59t-5.5 57t-26 43t-56 17q-43 0 -73 -23.5t-56 -55.5l-137 -787h-278l188 1082zM455 -153q-11 -100 -57.5 -191
t-116.5 -163l-132 81q38 62 65 123.5t40 133.5l16 87h192z" />
    <glyph glyph-name="Ncaron" unicode="&#x147;" horiz-adv-x="1226" 
d="M998 0h-280l-254 965l-168 -965h-287l252 1456h281l255 -966l168 966h286zM793 1707l137 139l240 4l1 -17l-298 -278h-171l-224 280v16l228 -4z" />
    <glyph glyph-name="ncaron" unicode="&#x148;" horiz-adv-x="988" 
d="M434 1083l-20 -109q25 29 52.5 53t59 41.5t67 26.5t74.5 8q56 -1 95.5 -20t66.5 -50.5t42 -73t21.5 -87t6 -93t-5.5 -91.5l-115 -688h-277l114 690q3 28 4.5 59t-5.5 57t-26 43t-56 17q-43 0 -73 -23.5t-56 -55.5l-137 -787h-278l188 1082zM616 1397l137 139l240 4l1 -17
l-298 -278h-171l-224 280v16l228 -4z" />
    <glyph glyph-name="napostrophe" unicode="&#x149;" horiz-adv-x="988" 
d="M434 1083l-20 -109q25 29 52.5 53t59 41.5t67 26.5t74.5 8q56 -1 95.5 -20t66.5 -50.5t42 -73t21.5 -87t6 -93t-5.5 -91.5l-115 -688h-277l114 690q3 28 4.5 59t-5.5 57t-26 43t-56 17q-43 0 -73 -23.5t-56 -55.5l-137 -787h-278l188 1082zM369 1381q-17 -108 -72 -204
t-134 -170l-133 83q41 70 73 139.5t47 150.5l27 156h216z" />
    <glyph glyph-name="Eng" unicode="&#x14a;" horiz-adv-x="1221" 
d="M1250 1456l-253 -1481q-11 -83 -38.5 -158.5t-74.5 -133t-115.5 -91t-160.5 -33.5q-35 0 -68 5t-66 13l34 243q20 -7 41 -11.5t42 -3.5q31 1 52 18.5t34.5 43t21 55t12.5 53.5l4 25l-262 912l-158 -912h-287l252 1456h281l262 -909l159 909h288z" />
    <glyph glyph-name="eng" unicode="&#x14b;" horiz-adv-x="996" 
d="M436 1083l-23 -145q23 33 49.5 63.5t58 53t68.5 36t80 12.5q58 -1 98.5 -22t67 -56t41 -80t20.5 -94t5 -99t-6 -93l-112 -692q-11 -81 -38 -155.5t-73 -130.5t-112.5 -89t-157.5 -33q-32 1 -63.5 5.5t-63.5 12.5l34 236q20 -7 39.5 -12t40.5 -4q31 1 52 18.5t34 43
t19.5 55t10.5 53.5l112 693q3 24 6.5 59t-0.5 67t-20.5 55t-53.5 24q-43 2 -77.5 -19.5t-63.5 -50.5l-140 -795h-276l188 1082z" />
    <glyph glyph-name="Omacron" unicode="&#x14c;" horiz-adv-x="1209" 
d="M1111 598q-12 -81 -36 -159.5t-60 -147.5t-85 -127t-111.5 -99.5t-139 -64t-167.5 -20.5q-87 2 -154.5 27t-118 68t-83.5 101t-50.5 126t-21 143t6.5 152l37 242q12 82 36 161.5t60 151t85 132t112 104t140.5 67t170.5 21.5q88 -2 156 -28.5t117.5 -72t81.5 -106.5
t48.5 -131t19 -146.5t-7.5 -152.5zM859 843q4 34 8 75t3.5 83.5t-7.5 83t-25 72.5t-49 52t-79 22q-53 2 -94 -14t-72 -45.5t-52.5 -69t-37 -83.5t-25 -90t-15.5 -88l-35 -245q-4 -34 -7.5 -74.5t-2 -81t10 -79t27 -68t49.5 -48.5t79 -21q77 -3 128.5 31.5t84.5 90t50 122.5
t26 129zM1081 1598h-614l27 167h614z" />
    <glyph glyph-name="omacron" unicode="&#x14d;" horiz-adv-x="998" 
d="M61 575q12 103 48.5 199t98 170t149 117.5t202.5 40.5q74 -2 130.5 -23.5t98 -59t68.5 -87.5t42 -107.5t18 -121t-4 -127.5l-8 -71q-12 -103 -48.5 -199t-98 -169.5t-148.5 -116.5t-202 -40q-111 3 -183.5 49t-114 120t-54 167t-2.5 189zM332 503q-2 -21 -4.5 -50.5
t-2.5 -61t4.5 -62.5t16 -56t32 -41.5t53.5 -18.5q57 -3 93 26.5t57.5 74.5t32 97t15.5 94l7 72q2 21 4.5 51t2.5 61.5t-5 63t-17 57t-33 41.5t-54 18q-54 3 -90 -27.5t-57.5 -76t-32.5 -97.5t-15 -92zM915 1289h-614l27 167h614z" />
    <glyph glyph-name="Obreve" unicode="&#x14e;" horiz-adv-x="1209" 
d="M1111 598q-12 -81 -36 -159.5t-60 -147.5t-85 -127t-111.5 -99.5t-139 -64t-167.5 -20.5q-87 2 -154.5 27t-118 68t-83.5 101t-50.5 126t-21 143t6.5 152l37 242q12 82 36 161.5t60 151t85 132t112 104t140.5 67t170.5 21.5q88 -2 156 -28.5t117.5 -72t81.5 -106.5
t48.5 -131t19 -146.5t-7.5 -152.5zM859 843q4 34 8 75t3.5 83.5t-7.5 83t-25 72.5t-49 52t-79 22q-53 2 -94 -14t-72 -45.5t-52.5 -69t-37 -83.5t-25 -90t-15.5 -88l-35 -245q-4 -34 -7.5 -74.5t-2 -81t10 -79t27 -68t49.5 -48.5t79 -21q77 -3 128.5 31.5t84.5 90t50 122.5
t26 129zM1139 1839q-4 -73 -34 -129.5t-78 -94.5t-110.5 -57.5t-132.5 -17.5q-68 1 -125.5 21.5t-99.5 59t-65.5 93t-23.5 124.5l201 -1q-2 -59 25 -94.5t91 -36.5t102.5 34.5t50.5 95.5z" />
    <glyph glyph-name="obreve" unicode="&#x14f;" horiz-adv-x="998" 
d="M61 575q12 103 48.5 199t98 170t149 117.5t202.5 40.5q74 -2 130.5 -23.5t98 -59t68.5 -87.5t42 -107.5t18 -121t-4 -127.5l-8 -71q-12 -103 -48.5 -199t-98 -169.5t-148.5 -116.5t-202 -40q-111 3 -183.5 49t-114 120t-54 167t-2.5 189zM332 503q-2 -21 -4.5 -50.5
t-2.5 -61t4.5 -62.5t16 -56t32 -41.5t53.5 -18.5q57 -3 93 26.5t57.5 74.5t32 97t15.5 94l7 72q2 21 4.5 51t2.5 61.5t-5 63t-17 57t-33 41.5t-54 18q-54 3 -90 -27.5t-57.5 -76t-32.5 -97.5t-15 -92zM973 1529q-4 -73 -34 -129.5t-78 -94.5t-110.5 -57.5t-132.5 -17.5
q-68 1 -125.5 21.5t-99.5 59t-65.5 93t-23.5 124.5l201 -1q-2 -59 25 -94.5t91 -36.5t102.5 34.5t50.5 95.5z" />
    <glyph glyph-name="Ohungarumlaut" unicode="&#x150;" horiz-adv-x="1209" 
d="M1111 598q-12 -81 -36 -159.5t-60 -147.5t-85 -127t-111.5 -99.5t-139 -64t-167.5 -20.5q-87 2 -154.5 27t-118 68t-83.5 101t-50.5 126t-21 143t6.5 152l37 242q12 82 36 161.5t60 151t85 132t112 104t140.5 67t170.5 21.5q88 -2 156 -28.5t117.5 -72t81.5 -106.5
t48.5 -131t19 -146.5t-7.5 -152.5zM859 843q4 34 8 75t3.5 83.5t-7.5 83t-25 72.5t-49 52t-79 22q-53 2 -94 -14t-72 -45.5t-52.5 -69t-37 -83.5t-25 -90t-15.5 -88l-35 -245q-4 -34 -7.5 -74.5t-2 -81t10 -79t27 -68t49.5 -48.5t79 -21q77 -3 128.5 31.5t84.5 90t50 122.5
t26 129zM1020 1845h257l-266 -301h-219zM684 1845h253l-238 -301h-212z" />
    <glyph glyph-name="ohungarumlaut" unicode="&#x151;" horiz-adv-x="998" 
d="M61 575q12 103 48.5 199t98 170t149 117.5t202.5 40.5q74 -2 130.5 -23.5t98 -59t68.5 -87.5t42 -107.5t18 -121t-4 -127.5l-8 -71q-12 -103 -48.5 -199t-98 -169.5t-148.5 -116.5t-202 -40q-111 3 -183.5 49t-114 120t-54 167t-2.5 189zM332 503q-2 -21 -4.5 -50.5
t-2.5 -61t4.5 -62.5t16 -56t32 -41.5t53.5 -18.5q57 -3 93 26.5t57.5 74.5t32 97t15.5 94l7 72q2 21 4.5 51t2.5 61.5t-5 63t-17 57t-33 41.5t-54 18q-54 3 -90 -27.5t-57.5 -76t-32.5 -97.5t-15 -92zM854 1535h257l-266 -301h-219zM518 1535h253l-238 -301h-212z" />
    <glyph glyph-name="OE" unicode="&#x152;" horiz-adv-x="1682" 
d="M1487 630h-444l-67 -386h526l-43 -244h-722v-1q-56 -8 -111.5 -13t-112.5 -4q-81 2 -146 26.5t-114.5 66.5t-84 98.5t-54 122t-24.5 137t4 143.5l48 304q18 117 64.5 225.5t121.5 191.5t177 132.5t231 48.5q60 -1 119 -7.5t119 -14.5h736l-43 -245h-523l-60 -344h445z
M528 218q40 -2 79.5 1t78.5 9l174 1003q-35 6 -69.5 9.5t-69.5 4.5q-75 1 -128.5 -32t-89.5 -85.5t-56.5 -117.5t-29.5 -128l-47 -307q-4 -33 -6.5 -72t0 -78t11.5 -75.5t28 -65t49.5 -46.5t75.5 -20z" />
    <glyph glyph-name="oe" unicode="&#x153;" horiz-adv-x="1542" 
d="M77 545q8 68 26.5 136t48 130.5t70 116.5t93 93.5t117.5 61t143 20.5q78 -2 149.5 -32t120.5 -93q61 58 132 92t157 32q102 -2 168 -46.5t102.5 -114t46 -155.5t-0.5 -173l-26 -164h-503q-3 -36 -1 -76t15 -74t39.5 -57.5t72.5 -25.5q69 -3 129.5 20t119.5 55l56 -190
q-34 -33 -76 -56.5t-87.5 -38t-93.5 -21t-94 -5.5q-80 2 -152.5 31.5t-122.5 93.5q-66 -60 -141 -93.5t-166 -31.5q-74 1 -130 24.5t-97 63.5t-67 93t-39.5 113t-16 124t4.5 126zM350 524q-2 -21 -5 -52t-4 -65t2.5 -68.5t14.5 -62t32 -45.5t55 -19q38 -2 66.5 13.5t49.5 42
t35 61t23 70.5t14 70.5t8 62.5l2 21l5 52.5t4 66t-2.5 69t-14.5 62.5t-32 46t-55 19q-38 2 -66.5 -14t-49 -42.5t-35 -61.5t-23.5 -71t-14 -71t-8 -62zM1107 870q-40 1 -68 -23t-46.5 -58.5t-30.5 -73.5t-21 -68l239 -1l5 29q4 26 6.5 59t-4 63t-25 51t-55.5 22z" />
    <glyph glyph-name="Racute" unicode="&#x154;" horiz-adv-x="1110" 
d="M535 532h-146l-92 -532h-287l252 1456l440 -1q98 -3 173.5 -34t126 -86.5t73 -134t14.5 -176.5q-12 -141 -77.5 -248t-194.5 -168l146 -592v-16h-308zM431 777l151 -2q49 1 87 19t65 48.5t43.5 71t22.5 86.5q5 35 4.5 71t-12 66t-35.5 50t-67 23l-183 1zM765 1846h326
l-319 -310h-246z" />
    <glyph glyph-name="racute" unicode="&#x155;" horiz-adv-x="669" 
d="M663 810l-44 6t-44 4q-61 1 -104 -27t-75 -78l-125 -715h-277l188 1082l259 1l-22 -119q17 27 36.5 52.5t43.5 45t53 31.5t64 12q22 0 43 -4.5t42 -10.5zM559 1536h326l-319 -310h-246z" />
    <glyph glyph-name="Rcommaaccent" unicode="&#x156;" horiz-adv-x="1110" 
d="M535 532h-146l-92 -532h-287l252 1456l440 -1q98 -3 173.5 -34t126 -86.5t73 -134t14.5 -176.5q-12 -141 -77.5 -248t-194.5 -168l146 -592v-16h-308zM431 777l151 -2q49 1 87 19t65 48.5t43.5 71t22.5 86.5q5 35 4.5 71t-12 66t-35.5 50t-67 23l-183 1zM488 -153
q-11 -100 -57.5 -191t-116.5 -163l-132 81q38 62 65 123.5t40 133.5l16 87h192z" />
    <glyph glyph-name="rcommaaccent" unicode="&#x157;" horiz-adv-x="669" 
d="M663 810l-44 6t-44 4q-61 1 -104 -27t-75 -78l-125 -715h-277l188 1082l259 1l-22 -119q17 27 36.5 52.5t43.5 45t53 31.5t64 12q22 0 43 -4.5t42 -10.5zM211 -153q-11 -100 -57.5 -191t-116.5 -163l-132 81q38 62 65 123.5t40 133.5l16 87h192z" />
    <glyph glyph-name="Rcaron" unicode="&#x158;" horiz-adv-x="1110" 
d="M535 532h-146l-92 -532h-287l252 1456l440 -1q98 -3 173.5 -34t126 -86.5t73 -134t14.5 -176.5q-12 -141 -77.5 -248t-194.5 -168l146 -592v-16h-308zM431 777l151 -2q49 1 87 19t65 48.5t43.5 71t22.5 86.5q5 35 4.5 71t-12 66t-35.5 50t-67 23l-183 1zM687 1707
l137 139l240 4l1 -17l-298 -278h-171l-224 280v16l228 -4z" />
    <glyph glyph-name="rcaron" unicode="&#x159;" horiz-adv-x="669" 
d="M663 810l-44 6t-44 4q-61 1 -104 -27t-75 -78l-125 -715h-277l188 1082l259 1l-22 -119q17 27 36.5 52.5t43.5 45t53 31.5t64 12q22 0 43 -4.5t42 -10.5zM482 1397l137 139l240 4l1 -17l-298 -278h-171l-224 280v16l228 -4z" />
    <glyph glyph-name="Sacute" unicode="&#x15a;" horiz-adv-x="1083" 
d="M678 389q6 45 -3.5 78.5t-31.5 59.5t-53.5 46t-70.5 38q-72 34 -136 76t-111 96t-72.5 122.5t-19.5 155.5q6 98 49 175.5t110.5 131.5t154 82t180.5 26q98 -2 173.5 -37.5t125.5 -96t74.5 -142t21.5 -175.5l-286 1q2 37 -2 73.5t-18 66.5t-41.5 48.5t-72.5 19.5
q-39 0 -71 -13t-56 -37t-39.5 -56t-19.5 -69q-5 -39 9.5 -69.5t39.5 -55t57 -43.5t63 -33q77 -36 141 -79.5t108.5 -99t67 -126t15.5 -162.5q-7 -99 -47.5 -176.5t-105 -130t-149.5 -80t-181 -25.5q-105 2 -187.5 39t-139 101t-84.5 151.5t-24 189.5l288 -1q-3 -48 2 -91.5
t23.5 -76.5t52.5 -52.5t90 -19.5q78 1 122.5 48t53.5 122zM793 1846h326l-319 -310h-246z" />
    <glyph glyph-name="sacute" unicode="&#x15b;" horiz-adv-x="912" 
d="M515 297q4 29 -10.5 51t-38 39.5t-51 30t-47.5 22.5q-53 26 -100 56t-82 68.5t-54 88t-16 114.5q4 79 38.5 142t89 106.5t124.5 66t146 21.5q78 -2 142 -25.5t110 -67.5t71 -106.5t24 -141.5h-276q1 24 -1 47.5t-11 42t-26.5 29.5t-47.5 11q-48 0 -81.5 -32.5
t-41.5 -78.5q-5 -28 9.5 -49t38 -37t50 -28t45.5 -21q57 -26 106.5 -56t85 -69.5t54.5 -91t15 -120.5q-5 -83 -42 -145.5t-95 -104t-131.5 -61.5t-149.5 -18q-78 2 -143.5 28.5t-113 73t-74 111t-25.5 143.5l263 -1q-1 -31 3 -58t16.5 -46.5t34.5 -30.5t58 -11q52 1 88.5 28
t45.5 80zM647 1536h326l-319 -310h-246z" />
    <glyph glyph-name="Scircumflex" unicode="&#x15c;" horiz-adv-x="1083" 
d="M678 389q6 45 -3.5 78.5t-31.5 59.5t-53.5 46t-70.5 38q-72 34 -136 76t-111 96t-72.5 122.5t-19.5 155.5q6 98 49 175.5t110.5 131.5t154 82t180.5 26q98 -2 173.5 -37.5t125.5 -96t74.5 -142t21.5 -175.5l-286 1q2 37 -2 73.5t-18 66.5t-41.5 48.5t-72.5 19.5
q-39 0 -71 -13t-56 -37t-39.5 -56t-19.5 -69q-5 -39 9.5 -69.5t39.5 -55t57 -43.5t63 -33q77 -36 141 -79.5t108.5 -99t67 -126t15.5 -162.5q-7 -99 -47.5 -176.5t-105 -130t-149.5 -80t-181 -25.5q-105 2 -187.5 39t-139 101t-84.5 151.5t-24 189.5l288 -1q-3 -48 2 -91.5
t23.5 -76.5t52.5 -52.5t90 -19.5q78 1 122.5 48t53.5 122zM1039 1569v-18l-210 3l-95 143l-147 -142l-216 -3v20l289 274l155 1z" />
    <glyph glyph-name="scircumflex" unicode="&#x15d;" horiz-adv-x="912" 
d="M515 297q4 29 -10.5 51t-38 39.5t-51 30t-47.5 22.5q-53 26 -100 56t-82 68.5t-54 88t-16 114.5q4 79 38.5 142t89 106.5t124.5 66t146 21.5q78 -2 142 -25.5t110 -67.5t71 -106.5t24 -141.5h-276q1 24 -1 47.5t-11 42t-26.5 29.5t-47.5 11q-48 0 -81.5 -32.5
t-41.5 -78.5q-5 -28 9.5 -49t38 -37t50 -28t45.5 -21q57 -26 106.5 -56t85 -69.5t54.5 -91t15 -120.5q-5 -83 -42 -145.5t-95 -104t-131.5 -61.5t-149.5 -18q-78 2 -143.5 28.5t-113 73t-74 111t-25.5 143.5l263 -1q-1 -31 3 -58t16.5 -46.5t34.5 -30.5t58 -11q52 1 88.5 28
t45.5 80zM894 1259v-18l-210 3l-95 143l-147 -142l-216 -3v20l289 274l155 1z" />
    <glyph glyph-name="Scedilla" unicode="&#x15e;" horiz-adv-x="1083" 
d="M678 389q6 45 -3.5 78.5t-31.5 59.5t-53.5 46t-70.5 38q-72 34 -136 76t-111 96t-72.5 122.5t-19.5 155.5q6 98 49 175.5t110.5 131.5t154 82t180.5 26q98 -2 173.5 -37.5t125.5 -96t74.5 -142t21.5 -175.5l-286 1q2 37 -2 73.5t-18 66.5t-41.5 48.5t-72.5 19.5
q-39 0 -71 -13t-56 -37t-39.5 -56t-19.5 -69q-5 -39 9.5 -69.5t39.5 -55t57 -43.5t63 -33q77 -36 141 -79.5t108.5 -99t67 -126t15.5 -162.5q-7 -99 -47.5 -176.5t-105 -130t-149.5 -80t-181 -25.5q-105 2 -187.5 39t-139 101t-84.5 151.5t-24 189.5l288 -1q-3 -48 2 -91.5
t23.5 -76.5t52.5 -52.5t90 -19.5q78 1 122.5 48t53.5 122zM558 7l-18 -61q27 -8 45.5 -24.5t29.5 -38.5t15 -47.5t4 -52.5q-2 -70 -31.5 -116.5t-76.5 -75t-105.5 -41t-118.5 -14.5l12 168q77 12 89 90q3 23 -4 36t-20.5 20t-31.5 9.5t-36 4.5l41 142z" />
    <glyph glyph-name="scedilla" unicode="&#x15f;" horiz-adv-x="912" 
d="M515 297q4 29 -10.5 51t-38 39.5t-51 30t-47.5 22.5q-53 26 -100 56t-82 68.5t-54 88t-16 114.5q4 79 38.5 142t89 106.5t124.5 66t146 21.5q78 -2 142 -25.5t110 -67.5t71 -106.5t24 -141.5h-276q1 24 -1 47.5t-11 42t-26.5 29.5t-47.5 11q-48 0 -81.5 -32.5
t-41.5 -78.5q-5 -28 9.5 -49t38 -37t50 -28t45.5 -21q57 -26 106.5 -56t85 -69.5t54.5 -91t15 -120.5q-5 -83 -42 -145.5t-95 -104t-131.5 -61.5t-149.5 -18q-78 2 -143.5 28.5t-113 73t-74 111t-25.5 143.5l263 -1q-1 -31 3 -58t16.5 -46.5t34.5 -30.5t58 -11q52 1 88.5 28
t45.5 80zM457 -2l-18 -61q27 -8 45.5 -24.5t29.5 -38.5t15 -47.5t4 -52.5q-2 -70 -31.5 -116.5t-76.5 -75t-105.5 -41t-118.5 -14.5l12 168q77 12 89 90q3 23 -4 36t-20.5 20t-31.5 9.5t-36 4.5l41 142z" />
    <glyph glyph-name="Scaron" unicode="&#x160;" horiz-adv-x="1083" 
d="M678 389q6 45 -3.5 78.5t-31.5 59.5t-53.5 46t-70.5 38q-72 34 -136 76t-111 96t-72.5 122.5t-19.5 155.5q6 98 49 175.5t110.5 131.5t154 82t180.5 26q98 -2 173.5 -37.5t125.5 -96t74.5 -142t21.5 -175.5l-286 1q2 37 -2 73.5t-18 66.5t-41.5 48.5t-72.5 19.5
q-39 0 -71 -13t-56 -37t-39.5 -56t-19.5 -69q-5 -39 9.5 -69.5t39.5 -55t57 -43.5t63 -33q77 -36 141 -79.5t108.5 -99t67 -126t15.5 -162.5q-7 -99 -47.5 -176.5t-105 -130t-149.5 -80t-181 -25.5q-105 2 -187.5 39t-139 101t-84.5 151.5t-24 189.5l288 -1q-3 -48 2 -91.5
t23.5 -76.5t52.5 -52.5t90 -19.5q78 1 122.5 48t53.5 122zM715 1707l137 139l240 4l1 -17l-298 -278h-171l-224 280v16l228 -4z" />
    <glyph glyph-name="scaron" unicode="&#x161;" horiz-adv-x="912" 
d="M515 297q4 29 -10.5 51t-38 39.5t-51 30t-47.5 22.5q-53 26 -100 56t-82 68.5t-54 88t-16 114.5q4 79 38.5 142t89 106.5t124.5 66t146 21.5q78 -2 142 -25.5t110 -67.5t71 -106.5t24 -141.5h-276q1 24 -1 47.5t-11 42t-26.5 29.5t-47.5 11q-48 0 -81.5 -32.5
t-41.5 -78.5q-5 -28 9.5 -49t38 -37t50 -28t45.5 -21q57 -26 106.5 -56t85 -69.5t54.5 -91t15 -120.5q-5 -83 -42 -145.5t-95 -104t-131.5 -61.5t-149.5 -18q-78 2 -143.5 28.5t-113 73t-74 111t-25.5 143.5l263 -1q-1 -31 3 -58t16.5 -46.5t34.5 -30.5t58 -11q52 1 88.5 28
t45.5 80zM569 1397l137 139l240 4l1 -17l-298 -278h-171l-224 280v16l228 -4z" />
    <glyph glyph-name="uni0162" unicode="&#x162;" horiz-adv-x="1089" 
d="M1135 1211h-349l-210 -1211h-288l210 1211h-344l43 245h981zM532 14l-18 -61q27 -8 45.5 -24.5t29.5 -38.5t15 -47.5t4 -52.5q-2 -70 -31.5 -116.5t-76.5 -75t-105.5 -41t-118.5 -14.5l12 168q77 12 89 90q3 23 -4 36t-20.5 20t-31.5 9.5t-36 4.5l41 142z" />
    <glyph glyph-name="uni0163" unicode="&#x163;" horiz-adv-x="620" 
d="M550 1348l-46 -266h140l-37 -213h-140l-91 -539q-3 -20 -4 -38.5t3.5 -33.5t16.5 -24.5t36 -10.5q17 -1 34 1l34 4l-25 -222q-35 -14 -71 -19.5t-73 -5.5q-70 1 -116.5 28t-73.5 70.5t-36 100.5t-3 120l93 569h-122l37 213h121l47 266h276zM372 7l-18 -61
q27 -8 45.5 -24.5t29.5 -38.5t15 -47.5t4 -52.5q-2 -70 -31.5 -116.5t-76.5 -75t-105.5 -41t-118.5 -14.5l12 168q77 12 89 90q3 23 -4 36t-20.5 20t-31.5 9.5t-36 4.5l41 142z" />
    <glyph glyph-name="Tcaron" unicode="&#x164;" horiz-adv-x="1089" 
d="M1135 1211h-349l-210 -1211h-288l210 1211h-344l43 245h981zM716 1707l137 139l240 4l1 -17l-298 -278h-171l-224 280v16l228 -4z" />
    <glyph glyph-name="tcaron" unicode="&#x165;" horiz-adv-x="660" 
d="M550 1348l-46 -266h140l-37 -213h-140l-91 -539q-3 -20 -4 -38.5t3.5 -33.5t16.5 -24.5t36 -10.5q17 -1 34 1l34 4l-25 -222q-35 -14 -71 -19.5t-73 -5.5q-70 1 -116.5 28t-73.5 70.5t-36 100.5t-3 120l93 569h-122l37 213h121l47 266h276zM971 1512q-17 -108 -72 -204
t-134 -170l-133 83q41 70 73 139.5t47 150.5l27 156h216z" />
    <glyph glyph-name="Tbar" unicode="&#x166;" horiz-adv-x="1089" 
d="M845 746h-140l-129 -746h-288l129 746h-163l33 183h162l49 282h-344l43 245h981l-43 -245h-349l-49 -282h140z" />
    <glyph glyph-name="tbar" unicode="&#x167;" horiz-adv-x="620" 
d="M563 529h-154l-33 -199q-3 -20 -4 -38.5t3.5 -33.5t16.5 -24.5t36 -10.5q17 -1 34 1l34 4l-25 -222q-35 -14 -71 -19.5t-73 -5.5q-70 1 -116.5 28t-73.5 70.5t-36 100.5t-3 120l37 229h-163l33 183h160l26 157h-122l37 213h121l47 266h276l-46 -266h140l-37 -213h-140
l-27 -157h155z" />
    <glyph glyph-name="Utilde" unicode="&#x168;" horiz-adv-x="1145" 
d="M1182 1456l-170 -1000q-15 -111 -57 -200t-109 -151.5t-158.5 -95t-206.5 -30.5q-108 2 -188.5 37t-132 97.5t-72 149.5t-8.5 193l170 1000h288l-168 -1001q-5 -45 -4.5 -86.5t14 -73t43 -50.5t82.5 -21q56 -2 95 14.5t65 48t40 74.5t21 94l169 1001h287zM1077 1832
q-3 -44 -16 -91.5t-38 -87.5t-63 -65.5t-92 -24.5q-32 0 -58.5 15t-52 32t-51.5 30.5t-56 11.5q-19 -1 -32.5 -10.5t-22.5 -23t-14.5 -30t-9.5 -32.5l-157 9q3 43 16.5 91.5t39 88.5t64 66t91.5 25q31 -1 58 -15.5t52.5 -31.5t52 -30.5t57.5 -11.5q19 1 32.5 10.5t22.5 23
t15 30t11 32.5z" />
    <glyph glyph-name="utilde" unicode="&#x169;" horiz-adv-x="988" 
d="M540 99q-47 -56 -105 -88.5t-133 -31.5q-83 1 -134 39t-77.5 96t-32.5 129t1 139l117 700h276l-117 -704q-2 -22 -3.5 -49.5t4 -52t21 -42t45.5 -18.5q49 -2 85 22t65 61l136 783h279l-188 -1082h-257zM947 1523q-3 -44 -16 -91.5t-38 -87.5t-63 -65.5t-92 -24.5
q-32 0 -58.5 15t-52 32t-51.5 30.5t-56 11.5q-19 -1 -32.5 -10.5t-22.5 -23t-14.5 -30t-9.5 -32.5l-157 9q3 43 16.5 91.5t39 88.5t64 66t91.5 25q31 -1 58 -15.5t52.5 -31.5t52 -30.5t57.5 -11.5q19 1 32.5 10.5t22.5 23t15 30t11 32.5z" />
    <glyph glyph-name="Umacron" unicode="&#x16a;" horiz-adv-x="1145" 
d="M1182 1456l-170 -1000q-15 -111 -57 -200t-109 -151.5t-158.5 -95t-206.5 -30.5q-108 2 -188.5 37t-132 97.5t-72 149.5t-8.5 193l170 1000h288l-168 -1001q-5 -45 -4.5 -86.5t14 -73t43 -50.5t82.5 -21q56 -2 95 14.5t65 48t40 74.5t21 94l169 1001h287zM1042 1598h-614
l27 167h614z" />
    <glyph glyph-name="umacron" unicode="&#x16b;" horiz-adv-x="988" 
d="M540 99q-47 -56 -105 -88.5t-133 -31.5q-83 1 -134 39t-77.5 96t-32.5 129t1 139l117 700h276l-117 -704q-2 -22 -3.5 -49.5t4 -52t21 -42t45.5 -18.5q49 -2 85 22t65 61l136 783h279l-188 -1082h-257zM912 1289h-614l27 167h614z" />
    <glyph glyph-name="Ubreve" unicode="&#x16c;" horiz-adv-x="1145" 
d="M1182 1456l-170 -1000q-15 -111 -57 -200t-109 -151.5t-158.5 -95t-206.5 -30.5q-108 2 -188.5 37t-132 97.5t-72 149.5t-8.5 193l170 1000h288l-168 -1001q-5 -45 -4.5 -86.5t14 -73t43 -50.5t82.5 -21q56 -2 95 14.5t65 48t40 74.5t21 94l169 1001h287zM1100 1839
q-4 -73 -34 -129.5t-78 -94.5t-110.5 -57.5t-132.5 -17.5q-68 1 -125.5 21.5t-99.5 59t-65.5 93t-23.5 124.5l201 -1q-2 -59 25 -94.5t91 -36.5t102.5 34.5t50.5 95.5z" />
    <glyph glyph-name="ubreve" unicode="&#x16d;" horiz-adv-x="988" 
d="M540 99q-47 -56 -105 -88.5t-133 -31.5q-83 1 -134 39t-77.5 96t-32.5 129t1 139l117 700h276l-117 -704q-2 -22 -3.5 -49.5t4 -52t21 -42t45.5 -18.5q49 -2 85 22t65 61l136 783h279l-188 -1082h-257zM970 1529q-4 -73 -34 -129.5t-78 -94.5t-110.5 -57.5t-132.5 -17.5
q-68 1 -125.5 21.5t-99.5 59t-65.5 93t-23.5 124.5l201 -1q-2 -59 25 -94.5t91 -36.5t102.5 34.5t50.5 95.5z" />
    <glyph glyph-name="Uring" unicode="&#x16e;" horiz-adv-x="1145" 
d="M1182 1456l-170 -1000q-15 -111 -57 -200t-109 -151.5t-158.5 -95t-206.5 -30.5q-108 2 -188.5 37t-132 97.5t-72 149.5t-8.5 193l170 1000h288l-168 -1001q-5 -45 -4.5 -86.5t14 -73t43 -50.5t82.5 -21q56 -2 95 14.5t65 48t40 74.5t21 94l169 1001h287zM541 1723
q0 46 18.5 85t50 67.5t72 44.5t85.5 16q42 0 79.5 -15t66 -41.5t45 -63t16.5 -79.5q0 -46 -19 -84.5t-50 -66.5t-72 -43t-85 -15q-41 0 -78.5 14.5t-66 40t-45.5 61.5t-17 79zM654 1724q-5 -41 17 -71t65 -30q24 0 45 9t38 24.5t28 36t14 43.5q3 21 -1.5 39.5t-15 32.5
t-27 22.5t-38.5 8.5q-24 0 -45 -9.5t-38 -25t-28 -36.5t-14 -44z" />
    <glyph glyph-name="uring" unicode="&#x16f;" horiz-adv-x="988" 
d="M540 99q-47 -56 -105 -88.5t-133 -31.5q-83 1 -134 39t-77.5 96t-32.5 129t1 139l117 700h276l-117 -704q-2 -22 -3.5 -49.5t4 -52t21 -42t45.5 -18.5q49 -2 85 22t65 61l136 783h279l-188 -1082h-257zM411 1413q0 46 18.5 85t50 67.5t72 44.5t85.5 16q42 0 79.5 -15
t66 -41.5t45 -63t16.5 -79.5q0 -46 -19 -84.5t-50 -66.5t-72 -43t-85 -15q-41 0 -78.5 14.5t-66 40t-45.5 61.5t-17 79zM524 1414q-5 -41 17 -71t65 -30q24 0 45 9t38 24.5t28 36t14 43.5q3 21 -1.5 39.5t-15 32.5t-27 22.5t-38.5 8.5q-24 0 -45 -9.5t-38 -25t-28 -36.5
t-14 -44z" />
    <glyph glyph-name="Uhungarumlaut" unicode="&#x170;" horiz-adv-x="1145" 
d="M1182 1456l-170 -1000q-15 -111 -57 -200t-109 -151.5t-158.5 -95t-206.5 -30.5q-108 2 -188.5 37t-132 97.5t-72 149.5t-8.5 193l170 1000h288l-168 -1001q-5 -45 -4.5 -86.5t14 -73t43 -50.5t82.5 -21q56 -2 95 14.5t65 48t40 74.5t21 94l169 1001h287zM981 1845h257
l-266 -301h-219zM645 1845h253l-238 -301h-212z" />
    <glyph glyph-name="uhungarumlaut" unicode="&#x171;" horiz-adv-x="988" 
d="M540 99q-47 -56 -105 -88.5t-133 -31.5q-83 1 -134 39t-77.5 96t-32.5 129t1 139l117 700h276l-117 -704q-2 -22 -3.5 -49.5t4 -52t21 -42t45.5 -18.5q49 -2 85 22t65 61l136 783h279l-188 -1082h-257zM851 1535h257l-266 -301h-219zM515 1535h253l-238 -301h-212z" />
    <glyph glyph-name="Uogonek" unicode="&#x172;" horiz-adv-x="1145" 
d="M1182 1456l-170 -1000q-23 -164 -101.5 -278t-212.5 -164q-29 -26 -50.5 -56t-26.5 -71q-2 -20 2.5 -38t28.5 -19q17 -1 33 5.5t30 12.5l15 -160q-29 -21 -64 -31t-71 -10q-44 0 -78 16t-57 43t-35 63.5t-11 78.5q0 38 9.5 71t26.5 62q-101 7 -175.5 43.5t-121.5 98.5
t-66 146.5t-7 186.5l170 1000h288l-168 -1001q-5 -45 -4.5 -86.5t14 -73t43 -50.5t82.5 -21q56 -2 95 14.5t65 48t40 74.5t21 94l169 1001h287z" />
    <glyph glyph-name="uogonek" unicode="&#x173;" horiz-adv-x="988" 
d="M747 0q-23 -18 -47 -37t-44.5 -40.5t-35.5 -47t-18 -56.5q-2 -20 2.5 -38t28.5 -19q17 -1 33 5.5t30 12.5l15 -160q-29 -21 -64 -31t-71 -10q-44 0 -78 16t-57 43t-35 63.5t-11 78.5q1 78 36.5 134t92.5 97l16 88q-47 -56 -105 -88.5t-133 -31.5q-83 1 -134 39t-77.5 96
t-32.5 129t1 139l117 700h276l-117 -704q-2 -22 -3.5 -49.5t4 -52t21 -42t45.5 -18.5q49 -2 85 22t65 61l136 783h279l-188 -1082h-32z" />
    <glyph glyph-name="Wcircumflex" unicode="&#x174;" horiz-adv-x="1498" 
d="M1020 545l276 911h288l-478 -1456h-288l-30 854l-296 -854h-289l-25 1456h282l-11 -908l307 908h242zM1241 1569v-18l-210 3l-95 143l-147 -142l-216 -3v20l289 274l155 1z" />
    <glyph glyph-name="wcircumflex" unicode="&#x175;" horiz-adv-x="1267" 
d="M840 477l199 605h270l-405 -1082h-229l-39 622l-256 -622h-231l-30 1082h260l-13 -601l243 601h197zM1079 1259v-18l-210 3l-95 143l-147 -142l-216 -3v20l289 274l155 1z" />
    <glyph glyph-name="Ycircumflex" unicode="&#x176;" horiz-adv-x="1088" 
d="M570 805l325 651h323l-548 -942l-89 -514h-291l95 543l-216 913h302zM1047 1569v-18l-210 3l-95 143l-147 -142l-216 -3v20l289 274l155 1z" />
    <glyph glyph-name="ycircumflex" unicode="&#x177;" horiz-adv-x="897" 
d="M411 476l245 606h302l-558 -1245q-23 -55 -52.5 -105t-69.5 -88.5t-91 -61t-116 -22.5q-32 0 -62 6.5t-60 14.5l24 221q8 -1 15 -1.5t15 -0.5q66 -1 106 28t67 88l39 88l-112 1078h289zM897 1259v-18l-210 3l-95 143l-147 -142l-216 -3v20l289 274l155 1z" />
    <glyph glyph-name="Ydieresis" unicode="&#x178;" horiz-adv-x="1088" 
d="M570 805l325 651h323l-548 -942l-89 -514h-291l95 543l-216 913h302zM352 1671q0 28 11 52t29.5 42t43 28t51.5 11q27 0 51 -9t43 -25.5t30.5 -39.5t11.5 -51t-10.5 -52t-29 -41.5t-43 -27.5t-51.5 -11q-27 0 -51.5 8.5t-43.5 25t-30.5 39.5t-11.5 51zM827 1671
q0 28 10.5 52t29 41.5t43 27.5t51.5 11q27 0 51.5 -9t43 -25.5t30 -39.5t11.5 -50q0 -28 -10.5 -52t-29 -41.5t-43 -27.5t-51.5 -11q-27 0 -51.5 8.5t-43.5 25t-30 39.5t-11 51z" />
    <glyph glyph-name="Zacute" unicode="&#x179;" horiz-adv-x="1063" 
d="M361 244h576l-39 -244h-917l30 189l729 1022h-576l39 245h913l-29 -185zM778 1846h326l-319 -310h-246z" />
    <glyph glyph-name="zacute" unicode="&#x17a;" horiz-adv-x="909" 
d="M354 235h409l-37 -235h-743l30 188l501 658h-389l37 236h727l-28 -183zM641 1536h326l-319 -310h-246z" />
    <glyph glyph-name="Zdotaccent" unicode="&#x17b;" horiz-adv-x="1063" 
d="M361 244h576l-39 -244h-917l30 189l729 1022h-576l39 245h913l-29 -185zM565 1697q-1 31 10 57.5t30.5 45.5t46 30t57.5 11q30 1 56 -8.5t45.5 -27t31.5 -42.5t12 -56q1 -32 -10 -57.5t-30.5 -44.5t-46 -29.5t-57.5 -10.5q-29 0 -55.5 9t-46 26t-31.5 42t-12 55z" />
    <glyph glyph-name="zdotaccent" unicode="&#x17c;" horiz-adv-x="909" 
d="M354 235h409l-37 -235h-743l30 188l501 658h-389l37 236h727l-28 -183zM428 1387q-1 31 10 57.5t30.5 45.5t46 30t57.5 11q30 1 56 -8.5t45.5 -27t31.5 -42.5t12 -56q1 -32 -10 -57.5t-30.5 -44.5t-46 -29.5t-57.5 -10.5q-29 0 -55.5 9t-46 26t-31.5 42t-12 55z" />
    <glyph glyph-name="Zcaron" unicode="&#x17d;" horiz-adv-x="1063" 
d="M361 244h576l-39 -244h-917l30 189l729 1022h-576l39 245h913l-29 -185zM700 1707l137 139l240 4l1 -17l-298 -278h-171l-224 280v16l228 -4z" />
    <glyph glyph-name="zcaron" unicode="&#x17e;" horiz-adv-x="909" 
d="M354 235h409l-37 -235h-743l30 188l501 658h-389l37 236h727l-28 -183zM563 1397l137 139l240 4l1 -17l-298 -278h-171l-224 280v16l228 -4z" />
    <glyph glyph-name="longs" unicode="&#x17f;" horiz-adv-x="499" 
d="M0 0l200 1174q10 83 40 154.5t79 123.5t118 80.5t158 27.5q37 0 72.5 -6.5t71.5 -14.5l-44 -227q-19 5 -38 9.5t-39 4.5q-33 0 -57 -13t-41 -34t-27 -48t-15 -56l-202 -1175h-276z" />
    <glyph glyph-name="florin" unicode="&#x192;" horiz-adv-x="667" 
d="M633 869h-156l-141 -917q-9 -78 -34 -149.5t-68.5 -125.5t-107 -86t-150.5 -31q-34 1 -66.5 6t-64.5 14l34 231q18 -7 37.5 -12t38.5 -5q31 0 50 16t30 39.5t16 51t8 51.5l141 917h-127l33 213h127l10 93q10 83 39 154t77.5 122.5t117 80.5t157.5 28q36 -1 72 -7.5
t71 -14.5l-42 -227q-20 5 -39.5 8.5t-39.5 3.5q-32 0 -55.5 -13t-39.5 -33.5t-25.5 -47t-13.5 -54.5l-13 -93h157z" />
    <glyph glyph-name="Ohorn" unicode="&#x1a0;" horiz-adv-x="1218" 
d="M1100 598q-12 -81 -36 -159.5t-60 -147.5t-85 -127t-111.5 -99.5t-139 -64t-167.5 -20.5q-87 2 -154.5 27t-118 68t-83.5 101t-50.5 126t-21 143t6.5 152l37 242q12 82 36 161.5t60 151t85 132t112 104t140.5 67t170.5 21.5q126 -3 210 -54t134 -133q37 14 60.5 45.5
t38 70.5t22 81.5t12.5 79.5l178 1q-6 -74 -22.5 -142t-46 -123.5t-74.5 -97t-109 -63.5q17 -72 19.5 -148t-7.5 -154zM848 843q4 34 8 75t3.5 83.5t-7.5 83t-25 72.5t-49 52t-79 22q-53 2 -94 -14t-72 -45.5t-52.5 -69t-37 -83.5t-25 -90t-15.5 -88l-35 -245
q-4 -34 -7.5 -74.5t-2 -81t10 -79t27 -68t49.5 -48.5t79 -21q77 -3 128.5 31.5t84.5 90t50 122.5t26 129z" />
    <glyph glyph-name="ohorn" unicode="&#x1a1;" horiz-adv-x="1029" 
d="M59 575q12 103 48.5 199t98 170t149 117.5t202.5 40.5q105 -3 175.5 -45.5t112.5 -109.5q26 18 43 44.5t28 58t18 66t12 67.5l155 2q-5 -65 -19 -121.5t-38.5 -102.5t-61 -80.5t-86.5 -55.5q14 -58 17.5 -121.5t-3.5 -127.5l-8 -71q-12 -103 -48.5 -199t-98 -169.5
t-148.5 -116.5t-202 -40q-111 3 -183.5 49t-114 120t-54 167t-2.5 189zM330 503q-2 -21 -4.5 -50.5t-2.5 -61t4.5 -62.5t16 -56t32 -41.5t53.5 -18.5q57 -3 93 26.5t57.5 74.5t32 97t15.5 94l7 72q2 21 4.5 51t2.5 61.5t-5 63t-17 57t-33 41.5t-54 18q-54 3 -90 -27.5
t-57.5 -76t-32.5 -97.5t-15 -92z" />
    <glyph glyph-name="Uhorn" unicode="&#x1af;" horiz-adv-x="1254" 
d="M1182 1456l-39 -227q57 9 93 37.5t57.5 70t32.5 93t18 107.5l174 1q-9 -102 -34 -185.5t-72 -144.5t-119.5 -97t-176.5 -43l-104 -612q-15 -111 -57 -200t-109 -151.5t-158.5 -95t-206.5 -30.5q-108 2 -188.5 37t-132 97.5t-72 149.5t-8.5 193l170 1000h288l-168 -1001
q-5 -45 -4.5 -86.5t14 -73t43 -50.5t82.5 -21q56 -2 95 14.5t65 48t40 74.5t21 94l169 1001h287z" />
    <glyph glyph-name="uhorn" unicode="&#x1b0;" horiz-adv-x="1084" 
d="M540 99q-47 -56 -105 -88.5t-133 -31.5q-83 1 -134 39t-77.5 96t-32.5 129t1 139l117 700h276l-117 -704q-2 -22 -3.5 -49.5t4 -52t21 -42t45.5 -18.5q49 -2 85 22t65 61l136 783h279l-23 -131q31 13 52 34.5t35 50.5t22.5 64.5t14.5 77.5l156 1q-7 -84 -27.5 -149
t-57.5 -111.5t-91.5 -75t-129.5 -39.5l-139 -804h-257z" />
    <glyph glyph-name="uni01F0" unicode="&#x1f0;" horiz-adv-x="544" 
d="M495 1082l-190 -1114q-11 -81 -37.5 -155t-73 -130.5t-113.5 -90t-158 -32.5q-34 1 -66.5 6t-65.5 14l38 230q20 -6 40.5 -11.5t41.5 -4.5q32 1 53 18.5t34 44t20 56t11 54.5l190 1115h276zM378 1372l137 139l240 4l1 -17l-298 -278h-171l-224 280v16l228 -4z" />
    <glyph glyph-name="Aringacute" unicode="&#x1fa;" 
d="M738 298h-387l-127 -298h-312l694 1456h263l191 -1456h-297zM456 543h262l-41 516zM917 2000l265 -1l-270 -206h-187zM587 1559q0 38 13.5 73t37.5 62t57 43.5t72 16.5q37 0 68 -14.5t53 -40t34.5 -58t12.5 -68.5q0 -38 -13 -72.5t-36 -61t-56 -42.5t-72 -16
q-38 0 -69 14t-54 38.5t-35.5 57t-12.5 68.5zM689 1561q-2 -14 0 -29t8.5 -27t18 -20t28.5 -8q18 0 33 8.5t26.5 22t19 30.5t9.5 33q2 13 1 28t-7 28t-17 21.5t-27 8.5q-19 0 -35 -8.5t-28 -22.5t-19.5 -31.5t-10.5 -33.5z" />
    <glyph glyph-name="aringacute" unicode="&#x1fb;" horiz-adv-x="945" 
d="M507 0q-5 21 -6.5 41.5t-1.5 42.5q-42 -48 -93 -76.5t-117 -28.5q-66 1 -117.5 27t-86.5 69.5t-52 100.5t-14 119q5 97 45 166.5t103.5 114t144.5 65.5t170 21h88l13 88q2 21 2.5 44.5t-5.5 42.5t-21 32t-43 13q-29 1 -49 -9.5t-34 -27.5t-22.5 -40t-12.5 -47l-275 -2
q5 82 41.5 147.5t93.5 110t130.5 67.5t152.5 22q81 -2 143 -28t103.5 -73t59.5 -112.5t10 -145.5l-77 -481q-5 -29 -9.5 -60t-6 -62.5t1.5 -62.5t13 -60l-1 -18h-271zM365 200q42 -1 75.5 17.5t60.5 46.5l49 229h-60q-39 -2 -71.5 -15.5t-56.5 -37.5t-39.5 -56t-20.5 -71
q-2 -19 -1.5 -38.5t7.5 -36t20.5 -27t36.5 -11.5zM732 1691l265 -1l-270 -206h-187zM402 1250q0 38 13.5 73t37.5 62t57 43.5t72 16.5q37 0 68 -14.5t53 -40t34.5 -58t12.5 -68.5q0 -38 -13 -72.5t-36 -61t-56 -42.5t-72 -16q-38 0 -69 14t-54 38.5t-35.5 57t-12.5 68.5z
M504 1252q-2 -14 0 -29t8.5 -27t18 -20t28.5 -8q18 0 33 8.5t26.5 22t19 30.5t9.5 33q2 13 1 28t-7 28t-17 21.5t-27 8.5q-19 0 -35 -8.5t-28 -22.5t-19.5 -31.5t-10.5 -33.5z" />
    <glyph glyph-name="AEacute" unicode="&#x1fc;" horiz-adv-x="1634" 
d="M1451 0h-756l47 333h-317l-186 -333h-335l876 1456h873l-42 -238h-470l-49 -352h393l-42 -238h-384l-55 -390h489zM563 582h214l69 505zM1037 1858h326l-319 -310h-246z" />
    <glyph glyph-name="aeacute" unicode="&#x1fd;" horiz-adv-x="1456" 
d="M941 -20q-42 1 -84 9t-80 24t-71 41.5t-58 60.5q-69 -66 -152.5 -101.5t-180.5 -33.5q-74 1 -130.5 26t-95 69t-56.5 104t-14 132q6 94 46.5 159t104.5 105.5t144 58t164 17.5l119 -1l11 57q3 22 4 49.5t-5.5 52t-22.5 41.5t-47 18q-28 1 -50 -9t-38.5 -27t-27 -39.5
t-16.5 -47.5l-273 18q6 84 44 148.5t97.5 107.5t134 64t154.5 20q69 -1 134.5 -22t114.5 -72q60 46 126.5 70t142.5 22q66 -2 116.5 -23t87 -56.5t60.5 -83t36 -101.5t14 -111.5t-5 -113.5l-25 -163h-518q-4 -41 -1 -81.5t18 -73.5t45 -54.5t79 -23.5q68 -2 127 20.5
t117 54.5l53 -193q-32 -32 -73 -54.5t-86.5 -36.5t-92.5 -20.5t-91 -6.5zM382 192q21 0 41.5 5.5t39.5 15.5t37 22t34 24l38 201l-96 1q-33 -2 -63.5 -13t-54 -31t-39.5 -48t-21 -62q-7 -48 12.5 -81t71.5 -34zM1052 869q-45 2 -76.5 -20t-53 -56t-35 -74.5t-22.5 -74.5
l254 -1l5 31q4 24 6 57t-3.5 63t-22.5 51.5t-52 23.5zM929 1537h326l-319 -310h-246z" />
    <glyph glyph-name="Oslashacute" unicode="&#x1fe;" horiz-adv-x="1206" 
d="M1119 598q-12 -81 -36 -159.5t-60 -147.5t-85 -127t-111.5 -99.5t-139 -64t-167.5 -20.5q-72 2 -129.5 18.5t-104.5 46.5l-91 -140h-188l166 256q-56 88 -73 201.5t-1 234.5l37 242q12 82 36 161.5t60 151t85 132t112 104t140.5 67t170.5 21.5q75 -2 134.5 -21.5
t106.5 -52.5l75 116h188l-155 -238q52 -92 66.5 -207.5t-0.5 -233.5zM387 596q-4 -27 -6.5 -58.5t-3.5 -63.5l456 701q-18 24 -46 39t-69 17q-53 2 -94 -14t-72 -45.5t-52.5 -69t-37 -83.5t-25 -90t-15.5 -88zM867 843q3 24 6 52.5t5 59.5l-446 -685q19 -20 46 -32t65 -14
q77 -3 128.5 31.5t84.5 90t50 122.5t26 129zM876 1920h326l-319 -310h-246z" />
    <glyph glyph-name="oslashacute" unicode="&#x1ff;" horiz-adv-x="996" 
d="M61 575q12 103 48.5 199t98 170t149 117.5t202.5 40.5q86 -3 150 -32l84 146h160l-132 -232q31 -38 51.5 -85.5t31 -100t12.5 -109t-4 -113.5l-8 -71q-12 -103 -48.5 -199t-98 -169.5t-148.5 -116.5t-202 -40q-81 3 -144 29l-86 -151h-160l133 233q-33 38 -54.5 85.5
t-33 101t-13.5 111.5t4 116zM332 503q-2 -20 -4.5 -48t-2.5 -58l260 456q-23 15 -51 16q-54 3 -90 -27.5t-57.5 -76t-32.5 -97.5t-15 -92zM636 577q2 19 4 43.5t3 52.5l-256 -447q9 -5 19.5 -8.5t24.5 -4.5q57 -3 93 26.5t57.5 74.5t32 97t15.5 94zM668 1532h326l-319 -310
h-246z" />
    <glyph glyph-name="uni0218" unicode="&#x218;" horiz-adv-x="1083" 
d="M678 389q6 45 -3.5 78.5t-31.5 59.5t-53.5 46t-70.5 38q-72 34 -136 76t-111 96t-72.5 122.5t-19.5 155.5q6 98 49 175.5t110.5 131.5t154 82t180.5 26q98 -2 173.5 -37.5t125.5 -96t74.5 -142t21.5 -175.5l-286 1q2 37 -2 73.5t-18 66.5t-41.5 48.5t-72.5 19.5
q-39 0 -71 -13t-56 -37t-39.5 -56t-19.5 -69q-5 -39 9.5 -69.5t39.5 -55t57 -43.5t63 -33q77 -36 141 -79.5t108.5 -99t67 -126t15.5 -162.5q-7 -99 -47.5 -176.5t-105 -130t-149.5 -80t-181 -25.5q-105 2 -187.5 39t-139 101t-84.5 151.5t-24 189.5l288 -1q-3 -48 2 -91.5
t23.5 -76.5t52.5 -52.5t90 -19.5q78 1 122.5 48t53.5 122zM529 -163q-11 -100 -57.5 -191t-116.5 -163l-132 81q38 62 65 123.5t40 133.5l16 87h192z" />
    <glyph glyph-name="uni0219" unicode="&#x219;" horiz-adv-x="912" 
d="M515 297q4 29 -10.5 51t-38 39.5t-51 30t-47.5 22.5q-53 26 -100 56t-82 68.5t-54 88t-16 114.5q4 79 38.5 142t89 106.5t124.5 66t146 21.5q78 -2 142 -25.5t110 -67.5t71 -106.5t24 -141.5h-276q1 24 -1 47.5t-11 42t-26.5 29.5t-47.5 11q-48 0 -81.5 -32.5
t-41.5 -78.5q-5 -28 9.5 -49t38 -37t50 -28t45.5 -21q57 -26 106.5 -56t85 -69.5t54.5 -91t15 -120.5q-5 -83 -42 -145.5t-95 -104t-131.5 -61.5t-149.5 -18q-78 2 -143.5 28.5t-113 73t-74 111t-25.5 143.5l263 -1q-1 -31 3 -58t16.5 -46.5t34.5 -30.5t58 -11q52 1 88.5 28
t45.5 80zM428 -173q-11 -100 -57.5 -191t-116.5 -163l-132 81q38 62 65 123.5t40 133.5l16 87h192z" />
    <glyph glyph-name="uni021A" unicode="&#x21a;" horiz-adv-x="1089" 
d="M1135 1211h-349l-210 -1211h-288l210 1211h-344l43 245h981zM503 -156q-11 -100 -57.5 -191t-116.5 -163l-132 81q38 62 65 123.5t40 133.5l16 87h192z" />
    <glyph glyph-name="uni021B" unicode="&#x21b;" horiz-adv-x="620" 
d="M550 1348l-46 -266h140l-37 -213h-140l-91 -539q-3 -20 -4 -38.5t3.5 -33.5t16.5 -24.5t36 -10.5q17 -1 34 1l34 4l-25 -222q-35 -14 -71 -19.5t-73 -5.5q-70 1 -116.5 28t-73.5 70.5t-36 100.5t-3 120l93 569h-122l37 213h121l47 266h276zM343 -163q-11 -100 -57.5 -191
t-116.5 -163l-132 81q38 62 65 123.5t40 133.5l16 87h192z" />
    <glyph glyph-name="uni0237" unicode="&#x237;" horiz-adv-x="544" 
d="M495 1082l-190 -1114q-11 -81 -37.5 -155t-73 -130.5t-113.5 -90t-158 -32.5q-34 1 -66.5 6t-65.5 14l38 230q20 -6 40.5 -11.5t41.5 -4.5q32 1 53 18.5t34 44t20 56t11 54.5l190 1115h276z" />
    <glyph glyph-name="schwa" unicode="&#x259;" horiz-adv-x="940" 
d="M507 1102q108 -2 180 -50t114 -123t55.5 -168t4.5 -185l-5 -40q-7 -64 -24.5 -131t-45.5 -129.5t-67 -117.5t-89.5 -95t-113.5 -62.5t-138 -20.5q-102 3 -168 47t-103 113.5t-47.5 156t0.5 173.5l26 164h503q3 36 0.5 76t-16 74t-40 56.5t-72.5 24.5q-68 4 -128 -19
t-118 -55l-56 190q33 33 74.5 56t87 38t93 21.5t93.5 5.5zM403 213q40 -1 68 22.5t46.5 58t30.5 73t21 68.5l-239 1l-5 -28q-4 -26 -6.5 -59t4 -63t25 -51t55.5 -22z" />
    <glyph glyph-name="uni02BC" unicode="&#x2bc;" horiz-adv-x="456" 
d="M491 1381q-17 -108 -72 -204t-134 -170l-133 83q41 70 73 139.5t47 150.5l27 156h216z" />
    <glyph glyph-name="circumflex" unicode="&#x2c6;" horiz-adv-x="911" 
d="M897 1259v-18l-210 3l-95 143l-147 -142l-216 -3v20l289 274l155 1z" />
    <glyph glyph-name="caron" unicode="&#x2c7;" horiz-adv-x="867" 
d="M553 1397l137 139l240 4l1 -17l-298 -278h-171l-224 280v16l228 -4z" />
    <glyph glyph-name="breve" unicode="&#x2d8;" horiz-adv-x="893" 
d="M913 1529q-4 -73 -34 -129.5t-78 -94.5t-110.5 -57.5t-132.5 -17.5q-68 1 -125.5 21.5t-99.5 59t-65.5 93t-23.5 124.5l201 -1q-2 -59 25 -94.5t91 -36.5t102.5 34.5t50.5 95.5z" />
    <glyph glyph-name="dotaccent" unicode="&#x2d9;" horiz-adv-x="538" 
d="M249 1369q-1 31 10 57.5t30.5 45.5t46 30t57.5 11q30 1 56 -8.5t45.5 -27t31.5 -42.5t12 -56q1 -32 -10 -57.5t-30.5 -44.5t-46 -29.5t-57.5 -10.5q-29 0 -55.5 9t-46 26t-31.5 42t-12 55z" />
    <glyph glyph-name="ring" unicode="&#x2da;" horiz-adv-x="672" 
d="M241 1316q0 46 18.5 85t50 67.5t72 44.5t85.5 16q42 0 79.5 -15t66 -41.5t45 -63t16.5 -79.5q0 -46 -19 -84.5t-50 -66.5t-72 -43t-85 -15q-41 0 -78.5 14.5t-66 40t-45.5 61.5t-17 79zM354 1317q-5 -41 17 -71t65 -30q24 0 45 9t38 24.5t28 36t14 43.5q3 21 -1.5 39.5
t-15 32.5t-27 22.5t-38.5 8.5q-24 0 -45 -9.5t-38 -25t-28 -36.5t-14 -44z" />
    <glyph glyph-name="ogonek" unicode="&#x2db;" horiz-adv-x="576" 
d="M270 0q-23 -18 -47 -37t-44.5 -40.5t-35.5 -47t-18 -56.5q-2 -20 2.5 -38t28.5 -19q17 -1 33 5.5t30 12.5l15 -160q-29 -21 -64 -31t-71 -10q-44 0 -78 16t-57 43t-35 63.5t-11 78.5q1 51 17.5 93t45 76.5t66 61.5t81.5 49z" />
    <glyph glyph-name="tilde" unicode="&#x2dc;" horiz-adv-x="878" 
d="M888 1525q-3 -44 -16 -91.5t-38 -87.5t-63 -65.5t-92 -24.5q-32 0 -58.5 15t-52 32t-51.5 30.5t-56 11.5q-19 -1 -32.5 -10.5t-22.5 -23t-14.5 -30t-9.5 -32.5l-157 9q3 43 16.5 91.5t39 88.5t64 66t91.5 25q31 -1 58 -15.5t52.5 -31.5t52 -30.5t57.5 -11.5
q19 1 32.5 10.5t22.5 23t15 30t11 32.5z" />
    <glyph glyph-name="hungarumlaut" unicode="&#x2dd;" horiz-adv-x="745" 
d="M687 1535h257l-266 -301h-219zM351 1535h253l-238 -301h-212z" />
    <glyph glyph-name="uni02F3" unicode="&#x2f3;" horiz-adv-x="575" 
d="M-14 -236q0 34 11.5 66.5t33 57.5t52 40.5t66.5 15.5q35 0 63.5 -13.5t49.5 -37t32.5 -54t11.5 -63.5q0 -35 -11.5 -66.5t-33 -55.5t-51.5 -39t-66 -15q-34 0 -63 12.5t-50 35t-33 52.5t-12 64zM86 -235q1 -11 2 -23t5.5 -21.5t12.5 -16.5t23 -7t28 7.5t23 18.5t16.5 25
t8.5 27q2 10 1 22.5t-5.5 23.5t-13.5 18.5t-23 7.5q-17 0 -29.5 -7.5t-21.5 -20t-15.5 -27t-11.5 -27.5z" />
    <glyph glyph-name="gravecomb" unicode="&#x300;" horiz-adv-x="49" 
d="M-209 1241h-151l-94 294h202z" />
    <glyph glyph-name="acutecomb" unicode="&#x301;" horiz-adv-x="49" 
d="M-254 1535h228l-209 -293h-172z" />
    <glyph glyph-name="tildecomb" unicode="&#x303;" horiz-adv-x="49" 
d="M16 1525q-3 -44 -16 -91.5t-38 -87.5t-63 -65.5t-92 -24.5q-32 0 -58.5 15t-52 32t-51.5 30.5t-56 11.5q-19 -1 -32.5 -10.5t-22.5 -23t-14.5 -30t-9.5 -32.5l-157 9q3 43 16.5 91.5t39 88.5t64 66t91.5 25q31 -1 58 -15.5t52.5 -31.5t52 -30.5t57.5 -11.5
q19 1 32.5 10.5t22.5 23t15 30t11 32.5z" />
    <glyph glyph-name="hook" unicode="&#x309;" horiz-adv-x="49" 
d="M-469 1266l2 135q18 2 38 5.5t37.5 11t30.5 20.5t16 35q3 21 -4.5 33t-20.5 17.5t-30 7t-33 2.5l18 138q44 -2 96.5 -9.5t98 -27.5t75.5 -56.5t28 -94.5q-2 -62 -37.5 -99.5t-92.5 -51.5l-9 -66h-213z" />
    <glyph glyph-name="uni030F" unicode="&#x30f;" horiz-adv-x="49" 
d="M-261 1252h-239l-190 266h282zM35 1252h-234l-153 266h278z" />
    <glyph glyph-name="dotbelow" unicode="&#x323;" horiz-adv-x="143" 
d="M-885 -239q0 33 13 60t35 45.5t50.5 29t60.5 10.5q30 0 58.5 -8.5t50.5 -26t36 -42.5t14 -58q1 -33 -12 -60t-35.5 -45.5t-51.5 -29t-60 -10.5q-30 0 -58.5 9t-50.5 26t-35.5 42.5t-14.5 57.5z" />
    <glyph glyph-name="tonos" unicode="&#x384;" horiz-adv-x="684" 
d="M454 1601h268l-221 -345h-179z" />
    <glyph glyph-name="dieresistonos" unicode="&#x385;" horiz-adv-x="996" 
d="M636 1753h252l-203 -333h-144zM221 1361q0 27 9 50.5t26 41.5t40 29t50 12t50 -8.5t40.5 -26.5t28 -40t10.5 -50t-9.5 -50.5t-26.5 -41.5t-40 -28.5t-50 -11.5q-26 -1 -49.5 8.5t-41 26.5t-27.5 40t-10 49zM751 1361q0 27 9.5 50.5t26 41.5t39.5 28.5t50 11.5
q26 1 49.5 -8.5t40.5 -26.5t27.5 -40t10.5 -49q0 -27 -9 -50.5t-26 -41.5t-40 -28.5t-50 -11.5t-50 8.5t-40.5 26t-27.5 39.5t-10 50z" />
    <glyph glyph-name="Alphatonos" unicode="&#x386;" 
d="M738 298h-387l-127 -298h-312l694 1456h263l191 -1456h-297zM456 543h262l-41 516zM296 1601h268l-221 -345h-179z" />
    <glyph glyph-name="anoteleia" unicode="&#x387;" horiz-adv-x="576" 
d="M144 690q0 33 10.5 62.5t31 52t48.5 35.5t62 13q33 1 60.5 -10.5t47.5 -32t31.5 -48.5t11.5 -60q0 -33 -11 -62.5t-31 -51.5t-48 -35t-62 -13q-33 -1 -60.5 10.5t-47.5 31.5t-31.5 48t-11.5 60z" />
    <glyph glyph-name="Epsilontonos" unicode="&#x388;" horiz-adv-x="1085" 
d="M949 630h-444l-67 -386h526l-43 -244h-812l252 1456h811l-43 -245h-523l-60 -344h445zM112 1602h268l-221 -345h-179z" />
    <glyph glyph-name="Etatonos" unicode="&#x389;" horiz-adv-x="1329" 
d="M1101 0h-286l108 623h-419l-108 -623h-287l252 1456h287l-102 -589h419l103 589h286zM112 1599h268l-221 -345h-179z" />
    <glyph glyph-name="Iotatonos" unicode="&#x38a;" horiz-adv-x="647" 
d="M408 0h-287l253 1456h287zM110 1603h268l-221 -345h-179z" />
    <glyph glyph-name="Omicrontonos" unicode="&#x38c;" horiz-adv-x="1229" 
d="M1131 598q-12 -81 -36 -159.5t-60 -147.5t-85 -127t-111.5 -99.5t-139 -64t-167.5 -20.5q-87 2 -154.5 27t-118 68t-83.5 101t-50.5 126t-21 143t6.5 152l37 242q12 82 36 161.5t60 151t85 132t112 104t140.5 67t170.5 21.5q88 -2 156 -28.5t117.5 -72t81.5 -106.5
t48.5 -131t19 -146.5t-7.5 -152.5zM879 843q4 34 8 75t3.5 83.5t-7.5 83t-25 72.5t-49 52t-79 22q-53 2 -94 -14t-72 -45.5t-52.5 -69t-37 -83.5t-25 -90t-15.5 -88l-35 -245q-4 -34 -7.5 -74.5t-2 -81t10 -79t27 -68t49.5 -48.5t79 -21q77 -3 128.5 31.5t84.5 90t50 122.5
t26 129zM169 1601h268l-221 -345h-179z" />
    <glyph glyph-name="Upsilontonos" unicode="&#x38e;" horiz-adv-x="1188" 
d="M670 805l325 651h323l-548 -942l-89 -514h-291l95 543l-216 913h302zM47 1601h268l-221 -345h-179z" />
    <glyph glyph-name="Omegatonos" unicode="&#x38f;" horiz-adv-x="1199" 
d="M570 250q64 36 103 98.5t62 136.5t34 151t20 141l11 87q2 22 6 57t5.5 74.5t-1.5 80.5t-14.5 74.5t-33.5 55.5t-59 24q-42 2 -73.5 -16t-55 -49t-40 -71t-27 -82t-17 -81t-10.5 -68l-10 -86q-4 -29 -11.5 -73.5t-14.5 -96t-10.5 -105.5t1.5 -102.5t20.5 -88t47.5 -60.5
l-41 -251h-432l45 247l178 1q-66 126 -94 256t-10 273l11 84q10 74 33 149t58 144t82 128.5t106.5 103t131.5 67.5t157 22q81 -2 144.5 -29t110 -72.5t77 -105.5t47.5 -127.5t20 -139t-5 -140.5l-12 -84q-23 -158 -95.5 -295t-196.5 -239l179 4l-44 -247h-424zM186 1601h268
l-221 -345h-179z" />
    <glyph glyph-name="iotadieresistonos" unicode="&#x390;" horiz-adv-x="631" 
d="M485 1082l-126 -745q-2 -19 -3 -38t3.5 -34t16 -24.5t35.5 -10.5q17 -1 34 1.5t34 5.5l-25 -223q-35 -13 -71.5 -18.5t-74.5 -4.5q-70 1 -116 27.5t-72.5 70.5t-35.5 101t-3 119l128 773h276zM438 1732h252l-203 -333h-144zM23 1340q0 27 9 50.5t26 41.5t40 29t50 12
t50 -8.5t40.5 -26.5t28 -40t10.5 -50t-9.5 -50.5t-26.5 -41.5t-40 -28.5t-50 -11.5q-26 -1 -49.5 8.5t-41 26.5t-27.5 40t-10 49zM553 1340q0 27 9.5 50.5t26 41.5t39.5 28.5t50 11.5q26 1 49.5 -8.5t40.5 -26.5t27.5 -40t10.5 -49q0 -27 -9 -50.5t-26 -41.5t-40 -28.5
t-50 -11.5t-50 8.5t-40.5 26t-27.5 39.5t-10 50z" />
    <glyph glyph-name="Alpha" unicode="&#x391;" 
d="M738 298h-387l-127 -298h-312l694 1456h263l191 -1456h-297zM456 543h262l-41 516z" />
    <glyph glyph-name="Beta" unicode="&#x392;" horiz-adv-x="1125" 
d="M9 0l252 1456l422 -1q92 -2 168.5 -26.5t130 -72.5t80 -120.5t19.5 -170.5q-9 -115 -69 -194.5t-163 -127.5q46 -19 75 -52.5t44.5 -75.5t20 -88t1.5 -91q-8 -107 -47.5 -189t-104.5 -137.5t-153 -83t-193 -26.5h-483zM406 633l-68 -389l168 -2q44 1 79 16t60 41.5
t40.5 62.5t21.5 78q4 31 4.5 64t-9 60.5t-31 46t-60.5 21.5zM442 847l136 -2q90 2 144 51t66 138q5 37 2.5 68.5t-15.5 54.5t-38.5 37t-65.5 16l-165 1z" />
    <glyph glyph-name="Gamma" unicode="&#x393;" horiz-adv-x="981" 
d="M1016 1211h-507l-210 -1211h-287l252 1456h795z" />
    <glyph glyph-name="Delta" unicode="&#x394;" horiz-adv-x="1284" 
d="M640 1456h297l207 -1456h-1223zM346 244h476l-98 794z" />
    <glyph glyph-name="Delta" unicode="&#x2206;" horiz-adv-x="1284" 
d="M640 1456h297l207 -1456h-1223zM346 244h476l-98 794z" />
    <glyph glyph-name="Epsilon" unicode="&#x395;" horiz-adv-x="985" 
d="M849 630h-444l-67 -386h526l-43 -244h-812l252 1456h811l-43 -245h-523l-60 -344h445z" />
    <glyph glyph-name="Zeta" unicode="&#x396;" horiz-adv-x="1063" 
d="M361 244h576l-39 -244h-917l30 189l729 1022h-576l39 245h913l-29 -185z" />
    <glyph glyph-name="Eta" unicode="&#x397;" horiz-adv-x="1229" 
d="M1001 0h-286l108 623h-419l-108 -623h-287l252 1456h287l-102 -589h419l103 589h286z" />
    <glyph glyph-name="Theta" unicode="&#x398;" horiz-adv-x="1205" 
d="M744 606h-279l41 234h279zM1107 598q-12 -81 -36 -159.5t-60 -147.5t-85 -127t-111.5 -99.5t-139 -64t-167.5 -20.5q-87 2 -154.5 27t-118 68t-83.5 101t-50.5 126t-21 143t6.5 152l37 242q12 82 36 161.5t60 151t85 132t112 104t140.5 67t170.5 21.5q88 -2 156 -28.5
t117.5 -72t81.5 -106.5t48.5 -131t19 -146.5t-7.5 -152.5zM855 843q4 34 8 75t3.5 83.5t-7.5 83t-25 72.5t-49 52t-79 22q-53 2 -94 -14t-72 -45.5t-52.5 -69t-37 -83.5t-25 -90t-15.5 -88l-35 -245q-4 -34 -7.5 -74.5t-2 -81t10 -79t27 -68t49.5 -48.5t79 -21
q77 -3 128.5 31.5t84.5 90t50 122.5t26 129z" />
    <glyph glyph-name="Iota" unicode="&#x399;" horiz-adv-x="547" 
d="M308 0h-287l253 1456h287z" />
    <glyph glyph-name="Kappa" unicode="&#x39a;" horiz-adv-x="1109" 
d="M512 558l-146 -154l-70 -404h-287l252 1456h287l-108 -619l116 154l336 465h367l-527 -653l266 -803h-327z" />
    <glyph glyph-name="Lambda" unicode="&#x39b;" horiz-adv-x="1130" 
d="M635 1008l-405 -1008h-317l643 1456h297l139 -1456h-304z" />
    <glyph glyph-name="Mu" unicode="&#x39c;" horiz-adv-x="1516" 
d="M631 1456l85 -1047l447 1047h378l-253 -1456h-288l70 403l126 575l-446 -978h-195l-110 1011l-83 -627l-66 -384h-287l252 1456h370z" />
    <glyph glyph-name="Nu" unicode="&#x39d;" horiz-adv-x="1226" 
d="M998 0h-280l-254 965l-168 -965h-287l252 1456h281l255 -966l168 966h286z" />
    <glyph glyph-name="Xi" unicode="&#x39e;" horiz-adv-x="1001" 
d="M31 244h818l-43 -244h-818zM233 852h628l-41 -234h-629zM262 1456h761l-43 -245h-761z" />
    <glyph glyph-name="Omicron" unicode="&#x39f;" horiz-adv-x="1209" 
d="M1111 598q-12 -81 -36 -159.5t-60 -147.5t-85 -127t-111.5 -99.5t-139 -64t-167.5 -20.5q-87 2 -154.5 27t-118 68t-83.5 101t-50.5 126t-21 143t6.5 152l37 242q12 82 36 161.5t60 151t85 132t112 104t140.5 67t170.5 21.5q88 -2 156 -28.5t117.5 -72t81.5 -106.5
t48.5 -131t19 -146.5t-7.5 -152.5zM859 843q4 34 8 75t3.5 83.5t-7.5 83t-25 72.5t-49 52t-79 22q-53 2 -94 -14t-72 -45.5t-52.5 -69t-37 -83.5t-25 -90t-15.5 -88l-35 -245q-4 -34 -7.5 -74.5t-2 -81t10 -79t27 -68t49.5 -48.5t79 -21q77 -3 128.5 31.5t84.5 90t50 122.5
t26 129z" />
    <glyph glyph-name="Pi" unicode="&#x3a0;" horiz-adv-x="1231" 
d="M1002 0h-287l210 1211h-417l-210 -1211h-287l252 1456h991z" />
    <glyph glyph-name="Rho" unicode="&#x3a1;" horiz-adv-x="1140" 
d="M385 512l-89 -512h-287l252 1456l467 -1q101 -3 177.5 -41t127 -101.5t72.5 -148.5t14 -182q-10 -108 -52.5 -195.5t-111.5 -149t-160.5 -94t-199.5 -32.5zM427 757l185 -2q49 1 87.5 18.5t65.5 48t43.5 71t22.5 87.5q4 35 3 74t-13 72.5t-37.5 56.5t-68.5 26l-209 2z
" />
    <glyph glyph-name="Sigma" unicode="&#x3a3;" horiz-adv-x="1001" 
d="M748 728l-357 -485h478l-43 -243h-850l28 164l442 584l-242 570l25 138h836l-43 -245h-475l202 -467z" />
    <glyph glyph-name="Tau" unicode="&#x3a4;" horiz-adv-x="1089" 
d="M1135 1211h-349l-210 -1211h-288l210 1211h-344l43 245h981z" />
    <glyph glyph-name="Upsilon" unicode="&#x3a5;" horiz-adv-x="1088" 
d="M570 805l325 651h323l-548 -942l-89 -514h-291l95 543l-216 913h302z" />
    <glyph glyph-name="Phi" unicode="&#x3a6;" horiz-adv-x="1353" 
d="M935 1285q108 -10 182 -62.5t118.5 -130.5t60 -173.5t5.5 -191.5q-12 -114 -54.5 -213.5t-113 -175.5t-166 -121.5t-213.5 -51.5l-35 -165h-286l35 166q-107 8 -182 57.5t-120.5 125.5t-62.5 169.5t-7 190.5q12 115 54.5 218t113 181t167.5 125.5t218 52.5l36 170h286z
M377 708q-5 -42 -5 -87.5t12.5 -84.5t40 -68.5t76.5 -39.5l116 599q-59 -9 -101.5 -40t-71 -75t-44.5 -97t-23 -107zM1020 727q5 42 6 89t-10 89.5t-38 74.5t-76 44l-116 -598q57 10 98 38.5t69 69.5t44 90.5t23 102.5z" />
    <glyph glyph-name="Chi" unicode="&#x3a7;" horiz-adv-x="1122" 
d="M607 958l267 498h339l-452 -735l221 -721h-322l-113 507l-272 -507h-343l462 746l-216 710h317z" />
    <glyph glyph-name="Psi" unicode="&#x3a8;" horiz-adv-x="1273" 
d="M778 639q58 20 96 57.5t63 85.5t38.5 103t22.5 110l77 461h288l-78 -461q-17 -115 -57.5 -218t-106 -183t-158 -133t-214.5 -68l-75 -393h-287l75 393q-112 17 -185 76t-113 142.5t-51 183.5t2 200l78 461h286l-77 -462q-6 -44 -10.5 -95t2.5 -100t29 -90.5t69 -65.5
l148 813h287z" />
    <glyph glyph-name="Omega" unicode="&#x3a9;" horiz-adv-x="1179" 
d="M550 250q64 36 103 98.5t62 136.5t34 151t20 141l11 87q2 22 6 57t5.5 74.5t-1.5 80.5t-14.5 74.5t-33.5 55.5t-59 24q-42 2 -73.5 -16t-55 -49t-40 -71t-27 -82t-17 -81t-10.5 -68l-10 -86q-4 -29 -11.5 -73.5t-14.5 -96t-10.5 -105.5t1.5 -102.5t20.5 -88t47.5 -60.5
l-41 -251h-432l45 247l178 1q-66 126 -94 256t-10 273l11 84q10 74 33 149t58 144t82 128.5t106.5 103t131.5 67.5t157 22q81 -2 144.5 -29t110 -72.5t77 -105.5t47.5 -127.5t20 -139t-5 -140.5l-12 -84q-23 -158 -95.5 -295t-196.5 -239l179 4l-44 -247h-424z" />
    <glyph glyph-name="Omega" unicode="&#x2126;" horiz-adv-x="1179" 
d="M550 250q64 36 103 98.5t62 136.5t34 151t20 141l11 87q2 22 6 57t5.5 74.5t-1.5 80.5t-14.5 74.5t-33.5 55.5t-59 24q-42 2 -73.5 -16t-55 -49t-40 -71t-27 -82t-17 -81t-10.5 -68l-10 -86q-4 -29 -11.5 -73.5t-14.5 -96t-10.5 -105.5t1.5 -102.5t20.5 -88t47.5 -60.5
l-41 -251h-432l45 247l178 1q-66 126 -94 256t-10 273l11 84q10 74 33 149t58 144t82 128.5t106.5 103t131.5 67.5t157 22q81 -2 144.5 -29t110 -72.5t77 -105.5t47.5 -127.5t20 -139t-5 -140.5l-12 -84q-23 -158 -95.5 -295t-196.5 -239l179 4l-44 -247h-424z" />
    <glyph glyph-name="Iotadieresis" unicode="&#x3aa;" horiz-adv-x="547" 
d="M308 0h-287l253 1456h287zM79 1674q0 28 11 52t29.5 42t43 28t51.5 11q27 0 51 -9t43 -25.5t30.5 -39.5t11.5 -51t-10.5 -52t-29 -41.5t-43 -27.5t-51.5 -11q-27 0 -51.5 8.5t-43.5 25t-30.5 39.5t-11.5 51zM554 1674q0 28 10.5 52t29 41.5t43 27.5t51.5 11q27 0 51.5 -9
t43 -25.5t30 -39.5t11.5 -50q0 -28 -10.5 -52t-29 -41.5t-43 -27.5t-51.5 -11q-27 0 -51.5 8.5t-43.5 25t-30 39.5t-11 51z" />
    <glyph glyph-name="Upsilondieresis" unicode="&#x3ab;" horiz-adv-x="1088" 
d="M570 805l325 651h323l-548 -942l-89 -514h-291l95 543l-216 913h302zM352 1671q0 28 11 52t29.5 42t43 28t51.5 11q27 0 51 -9t43 -25.5t30.5 -39.5t11.5 -51t-10.5 -52t-29 -41.5t-43 -27.5t-51.5 -11q-27 0 -51.5 8.5t-43.5 25t-30.5 39.5t-11.5 51zM827 1671
q0 28 10.5 52t29 41.5t43 27.5t51.5 11q27 0 51.5 -9t43 -25.5t30 -39.5t11.5 -50q0 -28 -10.5 -52t-29 -41.5t-43 -27.5t-51.5 -11q-27 0 -51.5 8.5t-43.5 25t-30 39.5t-11 51z" />
    <glyph glyph-name="alphatonos" unicode="&#x3ac;" horiz-adv-x="990" 
d="M957 1082l-124 -732q-1 -9 -4.5 -29.5t-4 -42t4.5 -38.5t22 -18q3 0 5.5 1t4.5 2l-1 -223q-51 -22 -105 -21q-73 1 -122 39.5t-66 109.5q-21 -31 -45 -59t-52.5 -48.5t-62.5 -32.5t-74 -12q-68 1 -116.5 26.5t-81 68t-51 97t-26.5 113.5t-8 118t6 110l3 22q7 57 21 122.5
t37 129.5t56 122.5t78 103t103 69.5t131 22q66 -2 112.5 -37.5t75.5 -92.5l42 110h242zM335 506q-2 -19 -5.5 -48t-4.5 -61.5t2 -65t13 -58.5t29 -42.5t51 -17.5q41 -1 70.5 20t53.5 50l11 69l77 442q-14 32 -35.5 52t-59.5 22q-39 2 -68 -15.5t-50 -46t-35.5 -65.5
t-24 -75.5t-14.5 -75t-8 -63.5zM661 1601h268l-221 -345h-179z" />
    <glyph glyph-name="epsilontonos" unicode="&#x3ad;" horiz-adv-x="980" 
d="M43 298q3 51 19.5 91.5t44 73t65 57t82.5 43.5q-54 37 -84.5 92.5t-27.5 121.5q3 87 43 149.5t102.5 102t139.5 57t154 15.5q74 -2 137 -25.5t109 -66.5t72 -103.5t26 -136.5h-274q0 50 -23.5 80.5t-77.5 30.5q-55 -1 -95 -36t-48 -89q-8 -48 16.5 -74.5t71.5 -29.5
l171 -1l-34 -194l-142 1q-66 -2 -111 -35.5t-54 -101.5q-4 -26 1.5 -48.5t19 -39t34 -26t47.5 -10.5q60 -1 99 32.5t50 90.5l276 1q-6 -85 -43 -149.5t-95 -107.5t-132 -64.5t-155 -19.5q-71 1 -141.5 20.5t-125.5 58.5t-88 98.5t-29 141.5zM640 1601h268l-221 -345h-179z
" />
    <glyph glyph-name="etatonos" unicode="&#x3ae;" horiz-adv-x="996" 
d="M435 1083l-21 -124q24 31 51.5 57.5t59 46t68 30.5t77.5 10q56 -1 96 -19.5t67 -49.5t42.5 -72t22.5 -86t7 -92.5t-5 -91.5l-187 -1107h-278l188 1108q3 24 4.5 54t-4.5 56t-22.5 44.5t-50.5 19.5q-45 1 -79.5 -21.5t-63.5 -53.5l-139 -792h-277l188 1082zM628 1601h268
l-221 -345h-179z" />
    <glyph glyph-name="iotatonos" unicode="&#x3af;" horiz-adv-x="631" 
d="M485 1082l-126 -745q-2 -19 -3 -38t3.5 -34t16 -24.5t35.5 -10.5q17 -1 34 1.5t34 5.5l-25 -223q-35 -13 -71.5 -18.5t-74.5 -4.5q-70 1 -116 27.5t-72.5 70.5t-35.5 101t-3 119l128 773h276zM413 1580h268l-221 -345h-179z" />
    <glyph glyph-name="upsilondieresistonos" unicode="&#x3b0;" horiz-adv-x="966" 
d="M461 1082l-109 -669q-2 -15 -5.5 -47.5t-1.5 -66t13 -59t39 -27.5q36 -3 64.5 16t50.5 50.5t38.5 72t28 81t18.5 77.5t11 61q18 128 21 257t-20 256l252 -1q35 -125 35 -255t-17 -257q-9 -70 -26.5 -141.5t-45.5 -138t-67.5 -125t-92.5 -101t-120 -66.5t-149 -22
q-94 3 -156.5 40.5t-98 98.5t-46.5 139t-2 162l111 665h275zM649 1748h252l-203 -333h-144zM234 1356q0 27 9 50.5t26 41.5t40 29t50 12t50 -8.5t40.5 -26.5t28 -40t10.5 -50t-9.5 -50.5t-26.5 -41.5t-40 -28.5t-50 -11.5q-26 -1 -49.5 8.5t-41 26.5t-27.5 40t-10 49z
M764 1356q0 27 9.5 50.5t26 41.5t39.5 28.5t50 11.5q26 1 49.5 -8.5t40.5 -26.5t27.5 -40t10.5 -49q0 -27 -9 -50.5t-26 -41.5t-40 -28.5t-50 -11.5t-50 8.5t-40.5 26t-27.5 39.5t-10 50z" />
    <glyph glyph-name="alpha" unicode="&#x3b1;" horiz-adv-x="990" 
d="M957 1082l-124 -732q-1 -9 -4.5 -29.5t-4 -42t4.5 -38.5t22 -18q3 0 5.5 1t4.5 2l-1 -223q-51 -22 -105 -21q-73 1 -122 39.5t-66 109.5q-21 -31 -45 -59t-52.5 -48.5t-62.5 -32.5t-74 -12q-68 1 -116.5 26.5t-81 68t-51 97t-26.5 113.5t-8 118t6 110l3 22q7 57 21 122.5
t37 129.5t56 122.5t78 103t103 69.5t131 22q66 -2 112.5 -37.5t75.5 -92.5l42 110h242zM335 506q-2 -19 -5.5 -48t-4.5 -61.5t2 -65t13 -58.5t29 -42.5t51 -17.5q41 -1 70.5 20t53.5 50l11 69l77 442q-14 32 -35.5 52t-59.5 22q-39 2 -68 -15.5t-50 -46t-35.5 -65.5
t-24 -75.5t-14.5 -75t-8 -63.5z" />
    <glyph glyph-name="beta" unicode="&#x3b2;" horiz-adv-x="1057" 
d="M668 1477q85 -2 152.5 -30.5t113 -79.5t67 -121.5t15.5 -155.5q-9 -110 -67 -190.5t-149 -136.5q45 -27 74 -65t45.5 -83t22 -94.5t1.5 -99.5q-7 -89 -36.5 -170t-81.5 -142.5t-127 -96.5t-172 -33q-114 1 -212 66l-87 -451h-275l246 1438q12 91 50.5 172.5t99.5 143
t142 96.5t178 33zM569 856q43 1 72.5 20.5t48 49.5t28.5 67.5t13 74.5q3 25 1.5 55t-10.5 56.5t-28 44.5t-51 20q-41 2 -71 -18.5t-50.5 -52.5t-32 -69.5t-16.5 -70.5l-134 -776q30 -23 66 -34t74 -10q43 0 77 19t58.5 49t39 68t19.5 77q4 30 4.5 66.5t-8.5 69t-30.5 55.5
t-61.5 26l-76 1l23 213z" />
    <glyph glyph-name="gamma" unicode="&#x3b3;" horiz-adv-x="912" 
d="M419 412l249 670h295l-479 -1083l-72 -416h-276l80 458l-101 1041h282z" />
    <glyph glyph-name="delta" unicode="&#x3b4;" horiz-adv-x="996" 
d="M286 1241q4 80 35 142.5t82 105t118 64.5t145 21q57 -1 107.5 -14.5t103.5 -31.5l-22 -225q-40 20 -85.5 35t-91.5 13q-51 -1 -87.5 -26t-47.5 -76q-9 -44 12 -75.5t56 -52.5q84 -50 146 -108.5t100 -128t52.5 -153t4.5 -184.5l-2 -20q-12 -101 -49 -200t-99 -177.5
t-149.5 -126t-201.5 -44.5q-73 2 -129 24.5t-97.5 60.5t-69.5 88.5t-43.5 108.5t-19.5 121t2 125l2 21q9 73 32.5 145t63.5 132.5t97.5 104.5t134.5 62l-1 13q-53 51 -78.5 116.5t-20.5 139.5zM337 531q-2 -21 -4.5 -52.5t-2.5 -66.5t4 -70t16 -63.5t32.5 -47t54.5 -19.5
q38 -2 66.5 14.5t50 44t36 63t24 72.5t15.5 72t9 62l2 20q4 39 4.5 85.5t-9 91t-32.5 81.5t-65 55q-37 -2 -65 -18.5t-49.5 -42.5t-36 -59t-24 -68t-15.5 -70t-9 -64z" />
    <glyph glyph-name="epsilon" unicode="&#x3b5;" horiz-adv-x="980" 
d="M43 298q3 51 19.5 91.5t44 73t65 57t82.5 43.5q-54 37 -84.5 92.5t-27.5 121.5q3 87 43 149.5t102.5 102t139.5 57t154 15.5q74 -2 137 -25.5t109 -66.5t72 -103.5t26 -136.5h-274q0 50 -23.5 80.5t-77.5 30.5q-55 -1 -95 -36t-48 -89q-8 -48 16.5 -74.5t71.5 -29.5
l171 -1l-34 -194l-142 1q-66 -2 -111 -35.5t-54 -101.5q-4 -26 1.5 -48.5t19 -39t34 -26t47.5 -10.5q60 -1 99 32.5t50 90.5l276 1q-6 -85 -43 -149.5t-95 -107.5t-132 -64.5t-155 -19.5q-71 1 -141.5 20.5t-125.5 58.5t-88 98.5t-29 141.5z" />
    <glyph glyph-name="zeta" unicode="&#x3b6;" horiz-adv-x="895" 
d="M970 1456l-31 -179l-345 -416q-41 -50 -80.5 -100.5t-71.5 -104.5t-55.5 -112.5t-33.5 -124.5q-3 -25 -5 -51.5t2.5 -51.5t17.5 -46t38 -35l57 -24q45 -19 85.5 -39.5t70.5 -49t46 -68t13 -94.5q-3 -54 -25.5 -104t-56.5 -95t-75.5 -83.5t-82.5 -68.5l-137 119
q32 38 58.5 79.5t35.5 91.5q7 36 -5.5 55t-45.5 33l-52 20q-125 49 -179.5 141.5t-41.5 226.5q9 89 39 170.5t73.5 156.5t97 145t109.5 136l203 239h-400l41 234h736z" />
    <glyph glyph-name="eta" unicode="&#x3b7;" horiz-adv-x="996" 
d="M435 1083l-21 -124q24 31 51.5 57.5t59 46t68 30.5t77.5 10q56 -1 96 -19.5t67 -49.5t42.5 -72t22.5 -86t7 -92.5t-5 -91.5l-187 -1107h-278l188 1108q3 24 4.5 54t-4.5 56t-22.5 44.5t-50.5 19.5q-45 1 -79.5 -21.5t-63.5 -53.5l-139 -792h-277l188 1082z" />
    <glyph glyph-name="theta" unicode="&#x3b8;" horiz-adv-x="1038" 
d="M929 608q-10 -69 -27.5 -143t-45 -144.5t-66 -133.5t-90.5 -110t-119.5 -73.5t-152.5 -23.5q-81 2 -139 32t-96 79t-59 112t-29.5 132t-6.5 139t10 133l36 244q10 69 28 143t45.5 144t66 132.5t91 109t119.5 72.5t152 24q81 -2 138.5 -32t96 -78.5t59.5 -112t29.5 -132
t6.5 -138.5t-10 -132zM661 620h-273l-9 -54q-2 -18 -7 -50.5t-7.5 -71t-1.5 -79t10 -73.5t28 -55t52 -24q38 -3 66.5 15.5t49 49.5t34.5 70.5t23 79.5t14.5 76.5t9.5 61.5zM411 845h275l7 48q3 18 7.5 50.5t7.5 70.5t2 77.5t-10 72.5t-27.5 55t-50.5 24q-39 3 -67.5 -15
t-49.5 -48.5t-35.5 -70t-24 -79t-15.5 -76t-10 -61.5z" />
    <glyph glyph-name="iota" unicode="&#x3b9;" horiz-adv-x="631" 
d="M485 1082l-126 -745q-2 -19 -3 -38t3.5 -34t16 -24.5t35.5 -10.5q17 -1 34 1.5t34 5.5l-25 -223q-35 -13 -71.5 -18.5t-74.5 -4.5q-70 1 -116 27.5t-72.5 70.5t-35.5 101t-3 119l128 773h276z" />
    <glyph glyph-name="kappa" unicode="&#x3ba;" horiz-adv-x="1055" 
d="M446 397h-88l-68 -397h-276l187 1082h277l-77 -408h52l268 408h362l-393 -519l197 -563h-335z" />
    <glyph glyph-name="lambda" unicode="&#x3bb;" horiz-adv-x="964" 
d="M404 1545q81 -3 134 -48.5t72 -123.5l170 -1047q2 -12 4.5 -29t7.5 -33t14 -28t25 -15l31 -1l-25 -232q-23 -3 -45 -4t-45 0q-50 2 -88.5 19.5t-67 46.5t-47 69t-28.5 87l-54 412l-249 -618h-305l492 1070l-29 152q-4 16 -9 31t-13 26.5t-20.5 18.5t-30.5 9q-14 2 -27 1
t-27 -2l17 220q35 11 71 15.5t72 3.5z" />
    <glyph glyph-name="uni03BC" unicode="&#x3bc;" horiz-adv-x="1101" 
d="M486 1082l-101 -622q-2 -18 -5.5 -43t-4.5 -52t1.5 -53.5t11.5 -47.5t26.5 -34t46.5 -14q51 -1 88 23t67 63l135 780h278l-188 -1082h-248l7 51q-37 -32 -78 -52.5t-92 -20.5q-34 0 -63.5 9.5t-57.5 26.5l-83 -430h-275l260 1498h275z" />
    <glyph glyph-name="nu" unicode="&#x3bd;" horiz-adv-x="902" 
d="M411 405l238 677h294l-457 -1082h-263l-121 1082h283z" />
    <glyph glyph-name="xi" unicode="&#x3be;" horiz-adv-x="948" 
d="M885 1198q-42 14 -84.5 27t-87.5 12q-35 -1 -66.5 -10.5t-56 -28t-41 -46t-22.5 -63.5q-10 -66 22.5 -100.5t96.5 -37.5l143 -1l-43 -244l-106 2q-125 -1 -200.5 -67t-91.5 -191q-4 -36 0 -69.5t17.5 -62.5t37.5 -51.5t59 -36.5l77 -25q46 -16 87 -36t71 -49.5t46 -69
t13 -94.5q-3 -54 -25.5 -104.5t-56 -95.5t-75 -83t-82.5 -68l-142 120q33 36 61 79t36 93q5 32 -9.5 53t-42.5 35l-42 18q-80 34 -141 71.5t-100.5 88t-56.5 118t-9 160.5q6 75 30.5 135.5t65.5 109t96.5 85t123.5 62.5q-69 41 -102.5 105t-28.5 144q4 92 40 166t95.5 125
t137.5 78.5t168 26.5q69 -1 131.5 -14.5t126.5 -38.5z" />
    <glyph glyph-name="omicron" unicode="&#x3bf;" horiz-adv-x="998" 
d="M61 575q12 103 48.5 199t98 170t149 117.5t202.5 40.5q74 -2 130.5 -23.5t98 -59t68.5 -87.5t42 -107.5t18 -121t-4 -127.5l-8 -71q-12 -103 -48.5 -199t-98 -169.5t-148.5 -116.5t-202 -40q-111 3 -183.5 49t-114 120t-54 167t-2.5 189zM332 503q-2 -21 -4.5 -50.5
t-2.5 -61t4.5 -62.5t16 -56t32 -41.5t53.5 -18.5q57 -3 93 26.5t57.5 74.5t32 97t15.5 94l7 72q2 21 4.5 51t2.5 61.5t-5 63t-17 57t-33 41.5t-54 18q-54 3 -90 -27.5t-57.5 -76t-32.5 -97.5t-15 -92z" />
    <glyph glyph-name="pi" unicode="&#x3c0;" horiz-adv-x="1142" 
d="M1110 860h-133l-89 -530q-2 -19 -3 -38t3.5 -34t16 -24.5t35.5 -10.5q17 -1 34 1.5t34 5.5l-25 -223q-35 -13 -71.5 -18.5t-74.5 -4.5q-70 1 -116 27.5t-72.5 70.5t-35.5 101t-3 119l92 558h-179l-150 -860h-275l149 860h-142l39 222h1005z" />
    <glyph glyph-name="rho" unicode="&#x3c1;" horiz-adv-x="996" 
d="M903 519q-7 -57 -21 -120t-36.5 -123.5t-54.5 -115.5t-76 -95.5t-100.5 -64t-127.5 -21.5q-60 2 -108.5 28t-83.5 75l-95 -498h-276l170 993q10 65 29 129.5t48.5 123.5t69 110t91 87.5t113.5 56.5t137 18t130 -27.5t93 -68t61 -98.5t34 -117.5t11.5 -126t-5.5 -124.5z
M631 540q2 19 5 51t4 68t-1.5 73t-13 67t-30.5 49.5t-53 20.5t-57.5 -15.5t-42.5 -44t-30.5 -62.5t-21.5 -70t-14.5 -67t-9.5 -54l-9 -8h7l-45 -266q35 -68 113 -69q37 -1 65.5 13.5t49.5 39t35.5 57t23.5 66.5t14.5 68t8.5 62z" />
    <glyph glyph-name="sigma1" unicode="&#x3c2;" horiz-adv-x="900" 
d="M541 1103q91 -3 154 -39t101.5 -95t54.5 -134.5t12 -157.5l-259 1q1 26 1 58.5t-8 61.5t-27 49t-55 22q-37 1 -64.5 -14.5t-47.5 -42t-33 -61t-21.5 -70t-13.5 -69.5t-8 -60l-3 -28q-5 -45 -5 -88.5t10.5 -81.5t35.5 -70t71 -53q45 -21 87 -41.5t73.5 -48.5t49 -67.5
t15.5 -97.5q-2 -53 -24 -103.5t-56 -96t-76 -84t-82 -68.5l-141 120q32 37 61.5 80t36.5 93q5 30 -4.5 51.5t-37.5 35.5q-87 42 -146.5 91.5t-94 111.5t-46 140t-1.5 176l3 29q8 66 26 133t46.5 129t68.5 115.5t91.5 92.5t115.5 61t140 20z" />
    <glyph glyph-name="sigma" unicode="&#x3c3;" horiz-adv-x="1012" 
d="M1004 846l-204 -2q44 -78 67 -159t15 -172l-3 -22q-7 -64 -25 -127.5t-46.5 -121t-67.5 -106.5t-89.5 -84t-111.5 -54.5t-133 -17.5q-74 2 -131 25.5t-98 63.5t-67.5 93t-40.5 113.5t-16.5 124.5t4.5 127l2 22q13 107 50.5 202.5t99.5 168t150 117t202 49.5q0 -4 3 -6v2
h482zM333 524l-5 -52.5t-3.5 -66t3.5 -68.5t15.5 -61.5t32.5 -45.5t55 -19q36 -1 63 15t46 43.5t31.5 62.5t20.5 71t12 70t7 59l2 21q2 19 5 48t3.5 61.5t-2 64.5t-13 58.5t-29.5 43.5t-50 18q-37 2 -64.5 -12.5t-47.5 -39t-34 -56.5t-23 -66.5t-14.5 -67.5t-8.5 -60z" />
    <glyph glyph-name="tau" unicode="&#x3c4;" horiz-adv-x="924" 
d="M906 849h-276l-88 -520q-2 -12 -4 -30t-0.5 -35t9 -30t26.5 -14q20 -2 39.5 3.5t39.5 10.5l6 -224q-38 -16 -77 -23t-81 -6q-74 2 -122 33.5t-74.5 81t-34 111.5t-1.5 126l85 516h-261l41 233h814z" />
    <glyph glyph-name="upsilon" unicode="&#x3c5;" horiz-adv-x="966" 
d="M461 1082l-109 -669q-2 -15 -5.5 -47.5t-1.5 -66t13 -59t39 -27.5q36 -3 64.5 16t50.5 50.5t38.5 72t28 81t18.5 77.5t11 61q18 128 21 257t-20 256l252 -1q35 -125 35 -255t-17 -257q-9 -70 -26.5 -141.5t-45.5 -138t-67.5 -125t-92.5 -101t-120 -66.5t-149 -22
q-94 3 -156.5 40.5t-98 98.5t-46.5 139t-2 162l111 665h275z" />
    <glyph glyph-name="phi" unicode="&#x3c6;" horiz-adv-x="1320" 
d="M411 -8q-111 24 -186 81t-118 137t-56.5 177.5t-0.5 202.5q9 72 28 142t49.5 135t73 123.5t97.5 106.5l178 -157q-58 -78 -95.5 -167t-53.5 -184q-8 -49 -10 -101t8.5 -99.5t37.5 -87.5t77 -65l100 566q7 60 31 114.5t63 95t91 64t117 22.5q110 -2 190 -48t130 -120.5
t70 -170t9 -194.5q-14 -120 -57.5 -219t-114 -173t-167.5 -121.5t-217 -63.5l-87 -466h-275zM714 229q115 41 175 130t74 208q2 14 4 43.5t1 64t-6 70t-16.5 64t-31.5 44t-51 10.5q-23 -5 -31 -18.5t-12 -33.5z" />
    <glyph glyph-name="chi" unicode="&#x3c7;" horiz-adv-x="909" 
d="M471 763l172 319h303l-330 -542l159 -540h-283l-75 337l-181 -337h-305l343 566l-152 516h283z" />
    <glyph glyph-name="psi" unicode="&#x3c8;" horiz-adv-x="1317" 
d="M867 1082l-155 -849q60 24 104 61.5t75.5 85.5t51 104t28.5 118q18 119 18 241t-22 241l244 -1q39 -115 44.5 -238.5t-9.5 -243.5q-15 -122 -58 -226.5t-113.5 -184.5t-168.5 -132t-223 -70l-87 -466h-276l88 471q-110 23 -183 80.5t-113.5 137.5t-51.5 177.5t2 200.5
l83 493h277l-83 -497q-6 -45 -8.5 -95.5t6.5 -98t32.5 -88t68.5 -66.5l152 845h277z" />
    <glyph glyph-name="omega" unicode="&#x3c9;" horiz-adv-x="1417" 
d="M539 1081q-29 -63 -58 -126.5t-55.5 -128t-47 -130.5t-30.5 -135q-2 -14 -6.5 -45t-7.5 -69t-3.5 -78.5t5.5 -74.5t19.5 -57t39.5 -25q29 -3 51.5 11.5t38.5 40t26.5 57t17.5 64t11 61t7 46.5l56 354h291l-56 -354q-2 -13 -5 -38.5t-4.5 -56.5t0 -63t8.5 -59t22 -44.5
t40 -18.5q32 -1 55 19.5t40 53.5t27.5 74.5t17.5 82t10.5 75t6.5 54.5q16 129 13 258.5t-39 255.5l252 -2q24 -61 37 -124.5t17.5 -128.5t1.5 -130t-11 -129t-22 -133.5t-36.5 -136.5t-55.5 -126.5t-80 -103.5t-109 -69.5t-142 -22.5q-46 1 -84 16.5t-68 42t-51 63t-32 79.5
q-24 -41 -53 -78t-64 -65t-77.5 -44t-93.5 -15q-77 2 -130.5 29.5t-88 73t-52.5 104.5t-24.5 123.5t-3.5 129.5t10 123q17 142 68 272t132 248h269z" />
    <glyph glyph-name="iotadieresis" unicode="&#x3ca;" horiz-adv-x="631" 
d="M485 1082l-126 -745q-2 -19 -3 -38t3.5 -34t16 -24.5t35.5 -10.5q17 -1 34 1.5t34 5.5l-25 -223q-35 -13 -71.5 -18.5t-74.5 -4.5q-70 1 -116 27.5t-72.5 70.5t-35.5 101t-3 119l128 773h276zM32 1340q0 28 11 52t29.5 42t43 28t51.5 11q27 0 51 -9t43 -25.5t30.5 -39.5
t11.5 -51t-10.5 -52t-29 -41.5t-43 -27.5t-51.5 -11q-27 0 -51.5 8.5t-43.5 25t-30.5 39.5t-11.5 51zM507 1340q0 28 10.5 52t29 41.5t43 27.5t51.5 11q27 0 51.5 -9t43 -25.5t30 -39.5t11.5 -50q0 -28 -10.5 -52t-29 -41.5t-43 -27.5t-51.5 -11q-27 0 -51.5 8.5t-43.5 25
t-30 39.5t-11 51z" />
    <glyph glyph-name="upsilondieresis" unicode="&#x3cb;" horiz-adv-x="966" 
d="M461 1082l-109 -669q-2 -15 -5.5 -47.5t-1.5 -66t13 -59t39 -27.5q36 -3 64.5 16t50.5 50.5t38.5 72t28 81t18.5 77.5t11 61q18 128 21 257t-20 256l252 -1q35 -125 35 -255t-17 -257q-9 -70 -26.5 -141.5t-45.5 -138t-67.5 -125t-92.5 -101t-120 -66.5t-149 -22
q-94 3 -156.5 40.5t-98 98.5t-46.5 139t-2 162l111 665h275zM243 1356q0 28 11 52t29.5 42t43 28t51.5 11q27 0 51 -9t43 -25.5t30.5 -39.5t11.5 -51t-10.5 -52t-29 -41.5t-43 -27.5t-51.5 -11q-27 0 -51.5 8.5t-43.5 25t-30.5 39.5t-11.5 51zM718 1356q0 28 10.5 52
t29 41.5t43 27.5t51.5 11q27 0 51.5 -9t43 -25.5t30 -39.5t11.5 -50q0 -28 -10.5 -52t-29 -41.5t-43 -27.5t-51.5 -11q-27 0 -51.5 8.5t-43.5 25t-30 39.5t-11 51z" />
    <glyph glyph-name="omicrontonos" unicode="&#x3cc;" horiz-adv-x="998" 
d="M61 575q12 103 48.5 199t98 170t149 117.5t202.5 40.5q74 -2 130.5 -23.5t98 -59t68.5 -87.5t42 -107.5t18 -121t-4 -127.5l-8 -71q-12 -103 -48.5 -199t-98 -169.5t-148.5 -116.5t-202 -40q-111 3 -183.5 49t-114 120t-54 167t-2.5 189zM332 503q-2 -21 -4.5 -50.5
t-2.5 -61t4.5 -62.5t16 -56t32 -41.5t53.5 -18.5q57 -3 93 26.5t57.5 74.5t32 97t15.5 94l7 72q2 21 4.5 51t2.5 61.5t-5 63t-17 57t-33 41.5t-54 18q-54 3 -90 -27.5t-57.5 -76t-32.5 -97.5t-15 -92zM625 1601h268l-221 -345h-179z" />
    <glyph glyph-name="upsilontonos" unicode="&#x3cd;" horiz-adv-x="966" 
d="M461 1082l-109 -669q-2 -15 -5.5 -47.5t-1.5 -66t13 -59t39 -27.5q36 -3 64.5 16t50.5 50.5t38.5 72t28 81t18.5 77.5t11 61q18 128 21 257t-20 256l252 -1q35 -125 35 -255t-17 -257q-9 -70 -26.5 -141.5t-45.5 -138t-67.5 -125t-92.5 -101t-120 -66.5t-149 -22
q-94 3 -156.5 40.5t-98 98.5t-46.5 139t-2 162l111 665h275zM624 1596h268l-221 -345h-179z" />
    <glyph glyph-name="omegatonos" unicode="&#x3ce;" horiz-adv-x="1417" 
d="M539 1081q-29 -63 -58 -126.5t-55.5 -128t-47 -130.5t-30.5 -135q-2 -14 -6.5 -45t-7.5 -69t-3.5 -78.5t5.5 -74.5t19.5 -57t39.5 -25q29 -3 51.5 11.5t38.5 40t26.5 57t17.5 64t11 61t7 46.5l56 354h291l-56 -354q-2 -13 -5 -38.5t-4.5 -56.5t0 -63t8.5 -59t22 -44.5
t40 -18.5q32 -1 55 19.5t40 53.5t27.5 74.5t17.5 82t10.5 75t6.5 54.5q16 129 13 258.5t-39 255.5l252 -2q24 -61 37 -124.5t17.5 -128.5t1.5 -130t-11 -129t-22 -133.5t-36.5 -136.5t-55.5 -126.5t-80 -103.5t-109 -69.5t-142 -22.5q-46 1 -84 16.5t-68 42t-51 63t-32 79.5
q-24 -41 -53 -78t-64 -65t-77.5 -44t-93.5 -15q-77 2 -130.5 29.5t-88 73t-52.5 104.5t-24.5 123.5t-3.5 129.5t10 123q17 142 68 272t132 248h269zM836 1596h268l-221 -345h-179z" />
    <glyph glyph-name="uni03D1" unicode="&#x3d1;" horiz-adv-x="1052" 
d="M1021 576l-88 -25l-15 -94q-14 -96 -52 -183.5t-99 -153.5t-145 -104.5t-189 -35.5q-97 3 -166.5 45t-112.5 109t-59.5 152t-6.5 172l40 244h261l-38 -245q-4 -34 -2 -75t15 -76t39.5 -59t71.5 -25q41 -1 68.5 24.5t45 62t27 77.5t14.5 71l18 96q-77 30 -132 82
t-89.5 117.5t-48.5 141.5t-8 155l3 23q8 78 36 152t76 131t115 91t154 31q85 -3 139 -43t83 -101t37 -135t0 -144l-42 -249l71 17zM627 1063q-5 -62 4 -120.5t52 -106.5l42 250q1 7 4.5 28.5t4 44t-4.5 40.5t-20 20q-22 2 -36.5 -12.5t-23.5 -36.5t-13 -45t-6 -37z" />
    <glyph glyph-name="uni03D2" unicode="&#x3d2;" horiz-adv-x="1054" 
d="M553 807l203 431q21 49 47 94.5t61 80t80.5 54.5t104.5 19q35 -1 69 -9.5t67 -19.5l-60 -231l-20 4t-20 1q-35 -3 -51 -24t-29 -49l-369 -706l-78 -452h-288l87 501l-115 659q-2 12 -4.5 23t-7.5 20t-13 15t-22 8q-11 1 -21.5 -0.5t-21.5 -3.5l-8 237q29 10 58.5 16
t60.5 6q52 -1 91 -20.5t66 -52t44 -75t26 -89.5z" />
    <glyph glyph-name="uni03D6" unicode="&#x3d6;" horiz-adv-x="1444" 
d="M1458 875l-96 1q-1 -77 -4.5 -153t-13.5 -152q-8 -63 -21.5 -131.5t-35.5 -135t-53.5 -126.5t-77 -105t-106.5 -70.5t-140 -23.5q-97 3 -162 59.5t-87 148.5q-26 -43 -56.5 -81.5t-67.5 -67t-82 -45t-99 -14.5q-76 2 -128 30t-85.5 74t-50.5 105.5t-23 123.5t-2.5 128.5
t10.5 120.5q22 167 99 317l-99 -2l38 206h1382zM1073 570q9 76 12 152.5t4 152.5l-632 2q-35 -75 -61.5 -154.5t-38.5 -161.5q-2 -13 -6.5 -43t-8 -68t-5 -79t3 -75.5t16.5 -58t35 -25.5q32 -4 56 10t41.5 38t30 56t20.5 64t12.5 61.5t7.5 50.5l30 200h291l-29 -200
q-2 -16 -5 -42t-4 -57t1.5 -62.5t11.5 -57.5t25.5 -43t44.5 -18q30 -1 52.5 20t38 54.5t25 75t16 81.5t9.5 74t6 53z" />
    <glyph glyph-name="uni0400" unicode="&#x400;" horiz-adv-x="985" 
d="M849 630h-444l-67 -386h526l-43 -244h-812l252 1456h811l-43 -245h-523l-60 -344h445zM837 1539h-217l-220 310h293z" />
    <glyph glyph-name="uni0401" unicode="&#x401;" horiz-adv-x="985" 
d="M849 630h-444l-67 -386h526l-43 -244h-812l252 1456h811l-43 -245h-523l-60 -344h445zM351 1674q0 28 11 52t29.5 42t43 28t51.5 11q27 0 51 -9t43 -25.5t30.5 -39.5t11.5 -51t-10.5 -52t-29 -41.5t-43 -27.5t-51.5 -11q-27 0 -51.5 8.5t-43.5 25t-30.5 39.5t-11.5 51z
M826 1674q0 28 10.5 52t29 41.5t43 27.5t51.5 11q27 0 51.5 -9t43 -25.5t30 -39.5t11.5 -50q0 -28 -10.5 -52t-29 -41.5t-43 -27.5t-51.5 -11q-27 0 -51.5 8.5t-43.5 25t-30 39.5t-11 51z" />
    <glyph glyph-name="uni0402" unicode="&#x402;" horiz-adv-x="1299" 
d="M1073 1211h-362l-68 -342q42 11 85 17.5t87 6.5q100 -1 176 -33.5t126.5 -90.5t72.5 -139t14 -179q-10 -114 -55 -201t-117 -146.5t-167 -90.5t-205 -33l26 230q107 5 161 62.5t65 160.5q4 39 1.5 76t-17 67t-42.5 49.5t-73 21.5q-42 2 -83 -2.5t-82 -11.5l-116 -633
h-288l211 1211h-282l43 245h932z" />
    <glyph glyph-name="uni0403" unicode="&#x403;" horiz-adv-x="981" 
d="M1016 1211h-507l-210 -1211h-287l252 1456h795zM781 1849h326l-319 -310h-246z" />
    <glyph glyph-name="uni0404" unicode="&#x404;" horiz-adv-x="1153" 
d="M1043 486q-14 -109 -58 -202.5t-115 -162t-165.5 -106.5t-208.5 -35q-93 2 -162 33.5t-116.5 84.5t-76 122t-42 146t-13.5 157.5t10 155.5l12 93q12 81 35 165.5t59.5 163.5t85.5 148.5t113.5 120.5t143.5 79.5t175 26.5q113 -3 192 -46t129.5 -113.5t74 -163
t25.5 -194.5l-288 1q1 31 0.5 63t-5 61.5t-14.5 55.5t-27.5 46t-44.5 32t-65 14q-75 3 -125.5 -34.5t-83.5 -96t-52.5 -126t-33.5 -124.5h341l-43 -244h-324q-4 -32 -8 -72.5t-4 -82.5t6.5 -83t24 -73.5t47 -53t76.5 -22.5q60 -2 102.5 19.5t70.5 59t44 86t25 99.5z" />
    <glyph glyph-name="uni0405" unicode="&#x405;" horiz-adv-x="1083" 
d="M678 389q6 45 -3.5 78.5t-31.5 59.5t-53.5 46t-70.5 38q-72 34 -136 76t-111 96t-72.5 122.5t-19.5 155.5q6 98 49 175.5t110.5 131.5t154 82t180.5 26q98 -2 173.5 -37.5t125.5 -96t74.5 -142t21.5 -175.5l-286 1q2 37 -2 73.5t-18 66.5t-41.5 48.5t-72.5 19.5
q-39 0 -71 -13t-56 -37t-39.5 -56t-19.5 -69q-5 -39 9.5 -69.5t39.5 -55t57 -43.5t63 -33q77 -36 141 -79.5t108.5 -99t67 -126t15.5 -162.5q-7 -99 -47.5 -176.5t-105 -130t-149.5 -80t-181 -25.5q-105 2 -187.5 39t-139 101t-84.5 151.5t-24 189.5l288 -1q-3 -48 2 -91.5
t23.5 -76.5t52.5 -52.5t90 -19.5q78 1 122.5 48t53.5 122z" />
    <glyph glyph-name="uni0406" unicode="&#x406;" horiz-adv-x="547" 
d="M308 0h-287l253 1456h287z" />
    <glyph glyph-name="uni0407" unicode="&#x407;" horiz-adv-x="547" 
d="M308 0h-287l253 1456h287zM79 1674q0 28 11 52t29.5 42t43 28t51.5 11q27 0 51 -9t43 -25.5t30.5 -39.5t11.5 -51t-10.5 -52t-29 -41.5t-43 -27.5t-51.5 -11q-27 0 -51.5 8.5t-43.5 25t-30.5 39.5t-11.5 51zM554 1674q0 28 10.5 52t29 41.5t43 27.5t51.5 11q27 0 51.5 -9
t43 -25.5t30 -39.5t11.5 -50q0 -28 -10.5 -52t-29 -41.5t-43 -27.5t-51.5 -11q-27 0 -51.5 8.5t-43.5 25t-30 39.5t-11 51z" />
    <glyph glyph-name="uni0408" unicode="&#x408;" horiz-adv-x="984" 
d="M726 1456h287l-172 -1008q-13 -95 -50 -180.5t-97 -150.5t-142 -102.5t-185 -35.5q-100 2 -169.5 38.5t-112.5 98t-61 142.5t-13 173l290 -1q-2 -28 -2.5 -63.5t7.5 -67t28 -53.5t60 -23q42 -1 71 21.5t47.5 56.5t28 73.5t14.5 72.5z" />
    <glyph glyph-name="uni0409" unicode="&#x409;" horiz-adv-x="1806" 
d="M1254 1456l-86 -493l156 -1q100 -3 177.5 -41t128.5 -101.5t74 -148t15 -181.5q-9 -107 -52.5 -197.5t-114 -156t-163.5 -102t-201 -34.5h-475l210 1211h-263l-65 -410q-12 -89 -31 -183t-49.5 -183t-74.5 -168.5t-106.5 -139t-146 -94t-192.5 -33.5h-43l29 244l30 -1
q65 -1 111 27t77.5 74.5t50 106.5t30 122.5t17.5 122t12 105.5l104 655h841zM1126 719l-83 -475l159 -2q51 1 91 23t69.5 57t47 79.5t23.5 91.5q5 35 2.5 73.5t-16 71t-39.5 54.5t-68 25z" />
    <glyph glyph-name="uni040A" unicode="&#x40a;" horiz-adv-x="1808" 
d="M445 843h415l107 613h287l-87 -501l157 -1q99 -3 176.5 -40t128.5 -100t74.5 -147t15.5 -181q-9 -107 -52.5 -197t-113.5 -154.5t-163 -100.5t-201 -34h-475l104 599h-415l-104 -599h-287l252 1456h287zM1125 711l-81 -466l159 -2q51 1 91 22t69 55t47 77.5t24 90.5
q5 35 2 73t-16.5 70t-40 54t-68.5 25z" />
    <glyph glyph-name="uni040B" unicode="&#x40b;" horiz-adv-x="1326" 
d="M1054 1211h-357l-58 -294q34 5 67.5 9t68.5 4q109 0 191 -35.5t134 -99.5t73 -152.5t9 -194.5l-73 -448h-288l74 449q6 46 5 88.5t-15 74.5t-44.5 52t-85.5 22q-36 2 -72.5 -1.5t-72.5 -8.5l-123 -676h-289l210 1211h-259l43 245h905z" />
    <glyph glyph-name="uni040C" unicode="&#x40c;" horiz-adv-x="1109" 
d="M512 558l-146 -154l-70 -404h-287l252 1456h287l-108 -619l116 154l336 465h367l-527 -653l266 -803h-327zM764 1846h326l-319 -310h-246z" />
    <glyph glyph-name="uni040D" unicode="&#x40d;" horiz-adv-x="1214" 
d="M947 1456h293l-253 -1456h-287l165 946l-573 -946h-294l253 1456h288l-165 -947zM895 1539h-217l-220 310h293z" />
    <glyph glyph-name="uni040E" unicode="&#x40e;" horiz-adv-x="1104" 
d="M591 811l302 645h318l-587 -1171q-30 -61 -65 -117t-80.5 -98.5t-103 -68t-131.5 -25.5q-25 0 -49.5 1.5t-49.5 3.5l23 245q16 -2 31 -4t31 -2q35 0 59.5 11t43 30t32 44.5t26.5 54.5l25 55l-219 1041h297zM1109 1842q-4 -73 -34 -129.5t-78 -94.5t-110.5 -57.5
t-132.5 -17.5q-68 1 -125.5 21.5t-99.5 59t-65.5 93t-23.5 124.5l201 -1q-2 -59 25 -94.5t91 -36.5t102.5 34.5t50.5 95.5z" />
    <glyph glyph-name="uni040F" unicode="&#x40f;" horiz-adv-x="1219" 
d="M249 1456h287l-211 -1212h417l210 1212h289l-253 -1456h-339l-63 -360h-289l63 360h-364z" />
    <glyph glyph-name="uni0410" unicode="&#x410;" 
d="M738 298h-387l-127 -298h-312l694 1456h263l191 -1456h-297zM456 543h262l-41 516z" />
    <glyph glyph-name="uni0411" unicode="&#x411;" horiz-adv-x="1094" 
d="M1012 1211h-507l-48 -278l157 -1q98 -3 176 -37t130.5 -93.5t77 -141.5t16.5 -180q-9 -108 -52.5 -197t-114 -152.5t-163.5 -98t-201 -32.5h-475l252 1456h795zM415 689l-77 -445l158 -2q51 1 91 21t69 53t47.5 76t24.5 90q5 36 1.5 72t-18 65t-41.5 47.5t-69 21.5z" />
    <glyph glyph-name="uni0412" unicode="&#x412;" horiz-adv-x="1125" 
d="M9 0l252 1456l422 -1q92 -2 168.5 -26.5t130 -72.5t80 -120.5t19.5 -170.5q-9 -115 -69 -194.5t-163 -127.5q46 -19 75 -52.5t44.5 -75.5t20 -88t1.5 -91q-8 -107 -47.5 -189t-104.5 -137.5t-153 -83t-193 -26.5h-483zM406 633l-68 -389l168 -2q44 1 79 16t60 41.5
t40.5 62.5t21.5 78q4 31 4.5 64t-9 60.5t-31 46t-60.5 21.5zM442 847l136 -2q90 2 144 51t66 138q5 37 2.5 68.5t-15.5 54.5t-38.5 37t-65.5 16l-165 1z" />
    <glyph glyph-name="uni0413" unicode="&#x413;" horiz-adv-x="981" 
d="M1016 1211h-507l-210 -1211h-287l252 1456h795z" />
    <glyph glyph-name="uni0414" unicode="&#x414;" horiz-adv-x="1313" 
d="M1080 -358h-264l62 358h-666l-63 -357h-271l90 601l82 -3q73 51 118 124t73.5 156t45.5 170.5t33 167.5l138 597h815l-210 -1212h147zM609 859q-17 -82 -35.5 -164.5t-45.5 -161.5t-65 -153t-93 -140l407 4l168 967h-255z" />
    <glyph glyph-name="uni0415" unicode="&#x415;" horiz-adv-x="985" 
d="M849 630h-444l-67 -386h526l-43 -244h-812l252 1456h811l-43 -245h-523l-60 -344h445z" />
    <glyph glyph-name="uni0416" unicode="&#x416;" horiz-adv-x="1765" 
d="M1172 591h-138l-103 -591h-287l103 591h-133l-325 -591h-368l503 812l-222 644h344l129 -585h120l102 585h287l-102 -585h105l324 585h368l-456 -669l206 -787h-345z" />
    <glyph glyph-name="uni0417" unicode="&#x417;" horiz-adv-x="1086" 
d="M570 859q44 1 76.5 18t55 45t35 64.5t17.5 77.5q3 33 -2.5 63.5t-20.5 54t-40.5 37.5t-62.5 15q-38 1 -67 -13.5t-50 -38.5t-34 -55.5t-19 -64.5l-286 -1q7 94 48 171.5t105.5 132.5t148.5 84t177 27q92 -2 168 -30t129 -80t79 -126.5t19 -170.5q-5 -57 -24.5 -105.5
t-51 -89t-73.5 -73.5t-90 -59q43 -26 72 -62t46 -78.5t22.5 -90t2.5 -95.5q-8 -104 -52 -186t-114.5 -138t-161.5 -84.5t-191 -26.5q-94 2 -169.5 33.5t-127.5 87t-79 132.5t-24 171h287q-1 -34 5.5 -66.5t22.5 -57.5t42.5 -41t65.5 -17q43 -1 80 14.5t65 42.5t46 63.5
t23 77.5q5 36 3.5 71.5t-13.5 63.5t-37 46.5t-68 20.5l-160 1l42 237z" />
    <glyph glyph-name="uni0418" unicode="&#x418;" horiz-adv-x="1214" 
d="M947 1456h293l-253 -1456h-287l165 946l-573 -946h-294l253 1456h288l-165 -947z" />
    <glyph glyph-name="uni0419" unicode="&#x419;" horiz-adv-x="1214" 
d="M947 1456h293l-253 -1456h-287l165 946l-573 -946h-294l253 1456h288l-165 -947zM1138 1842q-4 -73 -34 -129.5t-78 -94.5t-110.5 -57.5t-132.5 -17.5q-68 1 -125.5 21.5t-99.5 59t-65.5 93t-23.5 124.5l201 -1q-2 -59 25 -94.5t91 -36.5t102.5 34.5t50.5 95.5z" />
    <glyph glyph-name="uni041A" unicode="&#x41a;" horiz-adv-x="1130" 
d="M529 594h-128l-103 -594h-287l252 1456h287l-101 -582h88l347 582h362l-473 -692l245 -764h-328z" />
    <glyph glyph-name="uni041B" unicode="&#x41b;" horiz-adv-x="1230" 
d="M1253 1456l-252 -1456h-288l210 1211h-256l-84 -410q-15 -78 -33 -168t-45 -180t-66.5 -172.5t-96 -145.5t-133 -100t-179.5 -35h-74l29 244l29 -1q61 2 104 32.5t72 78t47 107.5t29 121.5t17.5 118.5t13.5 100l131 655h825z" />
    <glyph glyph-name="uni041C" unicode="&#x41c;" horiz-adv-x="1516" 
d="M631 1456l85 -1047l447 1047h378l-253 -1456h-288l70 403l126 575l-446 -978h-195l-110 1011l-83 -627l-66 -384h-287l252 1456h370z" />
    <glyph glyph-name="uni041D" unicode="&#x41d;" horiz-adv-x="1229" 
d="M1001 0h-286l108 623h-419l-108 -623h-287l252 1456h287l-102 -589h419l103 589h286z" />
    <glyph glyph-name="uni041E" unicode="&#x41e;" horiz-adv-x="1209" 
d="M1111 598q-12 -81 -36 -159.5t-60 -147.5t-85 -127t-111.5 -99.5t-139 -64t-167.5 -20.5q-87 2 -154.5 27t-118 68t-83.5 101t-50.5 126t-21 143t6.5 152l37 242q12 82 36 161.5t60 151t85 132t112 104t140.5 67t170.5 21.5q88 -2 156 -28.5t117.5 -72t81.5 -106.5
t48.5 -131t19 -146.5t-7.5 -152.5zM859 843q4 34 8 75t3.5 83.5t-7.5 83t-25 72.5t-49 52t-79 22q-53 2 -94 -14t-72 -45.5t-52.5 -69t-37 -83.5t-25 -90t-15.5 -88l-35 -245q-4 -34 -7.5 -74.5t-2 -81t10 -79t27 -68t49.5 -48.5t79 -21q77 -3 128.5 31.5t84.5 90t50 122.5
t26 129z" />
    <glyph glyph-name="uni041F" unicode="&#x41f;" horiz-adv-x="1231" 
d="M1002 0h-287l210 1211h-417l-210 -1211h-287l252 1456h991z" />
    <glyph glyph-name="uni0420" unicode="&#x420;" horiz-adv-x="1140" 
d="M385 512l-89 -512h-287l252 1456l467 -1q101 -3 177.5 -41t127 -101.5t72.5 -148.5t14 -182q-10 -108 -52.5 -195.5t-111.5 -149t-160.5 -94t-199.5 -32.5zM427 757l185 -2q49 1 87.5 18.5t65.5 48t43.5 71t22.5 87.5q4 35 3 74t-13 72.5t-37.5 56.5t-68.5 26l-209 2z
" />
    <glyph glyph-name="uni0421" unicode="&#x421;" horiz-adv-x="1143" 
d="M1042 486q-13 -114 -56 -208t-112.5 -161t-165.5 -103.5t-214 -33.5q-88 2 -155 27.5t-115 69.5t-78.5 103.5t-46 128t-17.5 143.5t8 151l38 248q18 121 61 235t115 201.5t175 139.5t240 49q117 -2 197 -43t130 -110.5t72 -163t22 -199.5l-289 1q3 51 2 99t-15 85.5
t-47.5 61.5t-94.5 26q-53 2 -93 -13.5t-69.5 -44t-49.5 -66.5t-33.5 -80.5t-22 -88t-13.5 -87.5l-36 -251q-4 -34 -9 -75t-6.5 -82.5t4 -80.5t22 -70t47 -50.5t79.5 -21.5q64 -3 107 17t70.5 55.5t43 84.5t24.5 105z" />
    <glyph glyph-name="uni0422" unicode="&#x422;" horiz-adv-x="1089" 
d="M1135 1211h-349l-210 -1211h-288l210 1211h-344l43 245h981z" />
    <glyph glyph-name="uni0423" unicode="&#x423;" horiz-adv-x="1104" 
d="M591 811l302 645h318l-587 -1171q-30 -61 -65 -117t-80.5 -98.5t-103 -68t-131.5 -25.5q-25 0 -49.5 1.5t-49.5 3.5l23 245q16 -2 31 -4t31 -2q35 0 59.5 11t43 30t32 44.5t26.5 54.5l25 55l-219 1041h297z" />
    <glyph glyph-name="uni0424" unicode="&#x424;" horiz-adv-x="1447" 
d="M980 1325q80 -3 143 -29t110.5 -69t79.5 -100.5t50.5 -123t23 -136t-2.5 -139.5q-13 -122 -59.5 -231t-123.5 -191t-181.5 -130t-233.5 -48l-39 -188l-279 1l49 186h-2q-80 1 -143.5 25.5t-112 66t-82 97.5t-53 120.5t-25 134.5t1.5 140q8 79 31.5 155.5t61 146
t88.5 128.5t114.5 101.5t139 65t161.5 19.5l7 -1l40 190h276zM676 1078q-49 5 -89.5 -9.5t-73 -42.5t-56.5 -66.5t-41.5 -81t-28 -86t-14.5 -82.5q-6 -53 -5 -108.5t17.5 -102.5t52 -80.5t98.5 -40.5l5 -1l138 700zM1113 728q4 35 6 73.5t-1.5 75.5t-14 71.5t-30 61
t-49.5 44.5t-74 22l-131 -701q71 3 123 34.5t87.5 81.5t55.5 112t28 125z" />
    <glyph glyph-name="uni0425" unicode="&#x425;" horiz-adv-x="1122" 
d="M607 958l267 498h339l-452 -735l221 -721h-322l-113 507l-272 -507h-343l462 746l-216 710h317z" />
    <glyph glyph-name="uni0426" unicode="&#x426;" horiz-adv-x="1336" 
d="M251 1456h287l-211 -1212h417l210 1212h288l-211 -1213h175l-123 -594h-268l61 351h-878z" />
    <glyph glyph-name="uni0427" unicode="&#x427;" horiz-adv-x="1224" 
d="M1249 1456l-253 -1456h-287l103 550q-51 -12 -103.5 -19t-106.5 -6q-109 1 -190.5 36.5t-133.5 99t-73 151.5t-9 195l74 449h288l-74 -450q-6 -47 -5 -89t14.5 -74t44.5 -52t85 -22q55 -2 109.5 5t108.5 18l121 664h287z" />
    <glyph glyph-name="uni0428" unicode="&#x428;" horiz-adv-x="1664" 
d="M549 1456l-210 -1212h285l211 1212h287l-211 -1212h282l210 1212h287l-253 -1456h-1428l252 1456h288z" />
    <glyph glyph-name="uni0429" unicode="&#x429;" horiz-adv-x="1789" 
d="M549 1456l-210 -1212h285l211 1212h287l-211 -1212h282l210 1212h287l-213 -1222h170l-121 -584h-257l61 350h-1321l252 1456h288z" />
    <glyph glyph-name="uni042A" unicode="&#x42a;" horiz-adv-x="1329" 
d="M198 1456h585l-91 -523l157 -1q98 -3 176 -37t130.5 -93.5t77 -141.5t16.5 -180q-9 -108 -52.5 -197t-114 -152.5t-163.5 -98t-201 -32.5h-475l211 1221h-297zM650 689l-77 -445l158 -2q51 1 91 21t69 53t47.5 76t24.5 90q5 36 1.5 72t-18 65t-41.5 47.5t-69 21.5z" />
    <glyph glyph-name="uni042B" unicode="&#x42b;" horiz-adv-x="1524" 
d="M461 933l157 -1q98 -3 176 -37t130.5 -93.5t77 -141.5t16.5 -180q-9 -108 -52.5 -197t-114 -152.5t-163.5 -98t-201 -32.5h-475l252 1456h288zM419 689l-77 -445l158 -2q51 1 91 21t69 53t47.5 76t24.5 90q5 36 1.5 72t-18 65t-41.5 47.5t-69 21.5zM1295 0h-287l253 1456
h287z" />
    <glyph glyph-name="uni042C" unicode="&#x42c;" horiz-adv-x="1101" 
d="M457 933l157 -1q98 -3 176 -37t130.5 -93.5t77 -141.5t16.5 -180q-9 -108 -52.5 -197t-114 -152.5t-163.5 -98t-201 -32.5h-475l252 1456h288zM415 689l-77 -445l158 -2q51 1 91 21t69 53t47.5 76t24.5 90q5 36 1.5 72t-18 65t-41.5 47.5t-69 21.5z" />
    <glyph glyph-name="uni042D" unicode="&#x42d;" horiz-adv-x="1133" 
d="M320 485q-1 -46 2.5 -92t20 -83.5t49 -62t89.5 -26.5q51 -2 90 15t68.5 46.5t50.5 69t36.5 83t26 87.5t19.5 83h-354l43 245h337q4 31 7 71t2 82t-8 82t-24.5 72.5t-47.5 53t-75 22.5q-62 3 -104.5 -20t-70 -61.5t-43 -88.5t-24.5 -102l-286 -1q17 108 62 203.5
t114.5 166t164 110.5t210.5 37q93 -2 161.5 -34.5t116.5 -86t77 -123.5t43 -147.5t14 -158.5t-9 -155l-13 -93q-12 -81 -34.5 -165.5t-58 -163t-84.5 -147t-112.5 -119t-142.5 -78.5t-175 -26q-111 3 -191.5 43.5t-132.5 109t-76.5 159.5t-24.5 194z" />
    <glyph glyph-name="uni042E" unicode="&#x42e;" horiz-adv-x="1632" 
d="M1540 598q-12 -81 -36 -159.5t-60 -147.5t-85 -127t-111.5 -99.5t-139 -64t-167.5 -20.5q-128 3 -214.5 54t-137 134.5t-67 190t-4.5 219.5h-117l-100 -578h-287l253 1456h287l-112 -642h111l4 25q12 82 36 161.5t60 151t85 132t112 104t140.5 67t170.5 21.5
q88 -2 156 -28.5t117.5 -72t81.5 -106.5t48.5 -131t19 -146.5t-7.5 -152.5zM1288 843q4 34 8 75t3.5 83.5t-7.5 83t-25 72.5t-49 52t-79 22q-53 2 -94 -14t-72 -45.5t-52.5 -69t-37 -83.5t-25 -90t-15.5 -88l-35 -245q-4 -34 -7.5 -74.5t-2 -81t10 -79t27 -68t49.5 -48.5
t79 -21q77 -3 128.5 31.5t84.5 90t50 122.5t26 129z" />
    <glyph glyph-name="uni042F" unicode="&#x42f;" horiz-adv-x="1046" 
d="M535 0l92 524h-142l-300 -524h-321l370 634q-37 37 -60.5 79.5t-36.5 89t-16.5 95.5t1.5 100q9 108 49.5 193.5t107 144.5t156.5 90t197 31l444 -1l-253 -1456h-288zM404 975q-5 -38 -4.5 -76t12 -69.5t37 -52t72.5 -23.5l145 -1l80 458l-128 2q-52 -1 -90 -20.5
t-63.5 -52t-40 -75.5t-20.5 -90z" />
    <glyph glyph-name="uni0430" unicode="&#x430;" horiz-adv-x="945" 
d="M507 0q-5 21 -6.5 41.5t-1.5 42.5q-42 -48 -93 -76.5t-117 -28.5q-66 1 -117.5 27t-86.5 69.5t-52 100.5t-14 119q5 97 45 166.5t103.5 114t144.5 65.5t170 21h88l13 88q2 21 2.5 44.5t-5.5 42.5t-21 32t-43 13q-29 1 -49 -9.5t-34 -27.5t-22.5 -40t-12.5 -47l-275 -2
q5 82 41.5 147.5t93.5 110t130.5 67.5t152.5 22q81 -2 143 -28t103.5 -73t59.5 -112.5t10 -145.5l-77 -481q-5 -29 -9.5 -60t-6 -62.5t1.5 -62.5t13 -60l-1 -18h-271zM365 200q42 -1 75.5 17.5t60.5 46.5l49 229h-60q-39 -2 -71.5 -15.5t-56.5 -37.5t-39.5 -56t-20.5 -71
q-2 -19 -1.5 -38.5t7.5 -36t20.5 -27t36.5 -11.5z" />
    <glyph glyph-name="uni0431" unicode="&#x431;" horiz-adv-x="1006" 
d="M609 1022q67 -1 117 -24t86 -60.5t58.5 -87.5t34.5 -105.5t14.5 -114t-2.5 -112.5l-3 -22q-7 -66 -25 -131t-47 -123t-69.5 -107.5t-92 -84.5t-114.5 -54.5t-137 -17.5q-76 2 -133 27t-98.5 66.5t-68 96t-40.5 116.5t-16.5 127.5t4.5 128.5l3 21l-1 2l4 30
q11 83 28.5 170.5t44.5 171.5t66 162.5t92.5 143.5t124.5 113t162 73q30 8 58.5 17t52 23.5t40.5 36t24 54.5h222q-6 -86 -33 -145.5t-73 -100.5t-110 -67t-143 -44q-61 -14 -106.5 -42t-80 -67t-60.5 -87.5t-48 -103.5q28 27 58 49.5t62.5 38.5t68.5 25t76 8zM531 789
q-53 1 -86.5 -26.5t-54 -69.5t-29.5 -90.5t-13 -88.5l-1 -21q-2 -22 -4 -51t-1 -60t5.5 -61t17 -53.5t34 -38.5t54.5 -16q54 -2 88 27t54.5 72.5t29.5 93.5t13 91l2 21q1 22 3 50.5t0.5 58.5t-7 58.5t-18 51t-34 37t-53.5 15.5z" />
    <glyph glyph-name="uni0432" unicode="&#x432;" horiz-adv-x="998" 
d="M13 0l187 1082l367 -1q69 -2 133 -18t112 -51t75 -90t23 -134q-3 -47 -20 -83.5t-45 -65.5t-63.5 -51.5t-75.5 -39.5q82 -23 126.5 -84.5t40.5 -147.5q-3 -87 -38 -147.5t-90.5 -98t-128 -54.5t-150.5 -16h-453zM366 448l-38 -215l150 -1q108 6 128 114q8 44 -4 70.5
t-59 30.5zM399 643l99 -1q51 2 85.5 26.5t44.5 77.5q8 46 -8 72.5t-64 29.5l-121 1z" />
    <glyph glyph-name="uni0433" unicode="&#x433;" horiz-adv-x="746" 
d="M757 846h-340l-147 -846h-276l188 1082h617z" />
    <glyph glyph-name="uni0434" unicode="&#x434;" horiz-adv-x="1132" 
d="M51 234q54 52 92 108t64.5 116.5t43.5 126.5t29 139l63 358h686l-147 -847h138l-97 -560h-276l57 325h-483l-56 -325h-283l97 560zM557 724q-12 -66 -28.5 -131.5t-40 -128.5t-56 -122t-75.5 -111l250 4l105 606h-136z" />
    <glyph glyph-name="uni0435" unicode="&#x435;" horiz-adv-x="961" 
d="M436 -20q-109 1 -186 42t-123.5 109t-63.5 158t-6 190l11 89q13 104 47.5 201.5t94.5 172.5t147.5 119t204.5 41q112 -3 181.5 -50t105.5 -122t44 -168t-4 -187l-19 -129h-540q-5 -43 -3 -83.5t16 -72.5t44 -52.5t81 -21.5q69 -2 129.5 24.5t112.5 70.5l93 -172
q-31 -42 -73.5 -72.5t-90.5 -50t-100 -28.5t-103 -8zM535 869q-48 2 -79.5 -19t-52 -54t-33 -74t-21.5 -78l275 -1l5 29q5 31 6 65t-7.5 63t-30.5 48t-62 21z" />
    <glyph glyph-name="uni0436" unicode="&#x436;" horiz-adv-x="1506" 
d="M957 400h-103l-68 -400h-276l70 400h-86l-209 -400h-342l368 597l-173 485h328l81 -403h81l70 403h275l-70 -403h70l223 403h354l-356 -506l154 -576h-322z" />
    <glyph glyph-name="uni0437" unicode="&#x437;" horiz-adv-x="909" 
d="M453 646q54 5 81 39t35 85q3 19 2.5 39t-6.5 36t-19.5 27t-37.5 12q-26 1 -45 -8t-33 -25t-23 -37t-13 -43l-277 -1q6 79 39 141t86 105t122 65t146 21q70 -1 134 -20t111.5 -57t74 -95t21.5 -135q-3 -43 -17.5 -79t-38 -66t-54 -54.5t-65.5 -44.5q32 -18 53.5 -44
t34.5 -57t18 -65.5t3 -70.5q-5 -85 -43 -148.5t-97.5 -105.5t-134.5 -62t-153 -18q-77 1 -140 25.5t-107.5 69t-69 107t-22.5 139.5h274q0 -25 4.5 -47.5t16 -39t30.5 -25.5t48 -9q28 0 50.5 11t38.5 30t26 43.5t14 50.5q3 23 2 44.5t-8.5 38.5t-23 27.5t-42.5 12.5l-144 1
l32 188z" />
    <glyph glyph-name="uni0438" unicode="&#x438;" horiz-adv-x="1002" 
d="M697 1082h280l-188 -1082h-275l113 646l-350 -646h-283l188 1082h277l-112 -645z" />
    <glyph glyph-name="uni0439" unicode="&#x439;" horiz-adv-x="1002" 
d="M697 1082h280l-188 -1082h-275l113 646l-350 -646h-283l188 1082h277l-112 -645zM987 1524q-4 -73 -34 -129.5t-78 -94.5t-110.5 -57.5t-132.5 -17.5q-68 1 -125.5 21.5t-99.5 59t-65.5 93t-23.5 124.5l201 -1q-2 -59 25 -94.5t91 -36.5t102.5 34.5t50.5 95.5z" />
    <glyph glyph-name="uni043A" unicode="&#x43a;" horiz-adv-x="1011" 
d="M437 397l-73 1l-74 -398h-275l187 1082h276l-77 -408h64l232 408h359l-373 -512l193 -570h-348z" />
    <glyph glyph-name="uni043B" unicode="&#x43b;" horiz-adv-x="1003" 
d="M978 1082l-188 -1082h-276l147 846h-158l-45 -225q-13 -69 -28.5 -142.5t-39 -143.5t-57 -132t-81.5 -108t-114 -72t-153 -23h-46l22 238l21 -1q44 -1 75 18.5t51 52t32 74t19 84.5t11.5 83.5t10.5 71.5l93 461h704z" />
    <glyph glyph-name="uni043C" unicode="&#x43c;" horiz-adv-x="1329" 
d="M602 347l324 735h350l-188 -1082h-276l98 558l-267 -558h-184l-72 569l-99 -569h-275l187 1082h337z" />
    <glyph glyph-name="uni043D" unicode="&#x43d;" horiz-adv-x="1001" 
d="M787 0h-276l73 415h-240l-73 -415h-277l188 1082h277l-75 -433h240l75 433h276z" />
    <glyph glyph-name="uni043E" unicode="&#x43e;" horiz-adv-x="998" 
d="M61 575q12 103 48.5 199t98 170t149 117.5t202.5 40.5q74 -2 130.5 -23.5t98 -59t68.5 -87.5t42 -107.5t18 -121t-4 -127.5l-8 -71q-12 -103 -48.5 -199t-98 -169.5t-148.5 -116.5t-202 -40q-111 3 -183.5 49t-114 120t-54 167t-2.5 189zM332 503q-2 -21 -4.5 -50.5
t-2.5 -61t4.5 -62.5t16 -56t32 -41.5t53.5 -18.5q57 -3 93 26.5t57.5 74.5t32 97t15.5 94l7 72q2 21 4.5 51t2.5 61.5t-5 63t-17 57t-33 41.5t-54 18q-54 3 -90 -27.5t-57.5 -76t-32.5 -97.5t-15 -92z" />
    <glyph glyph-name="uni043F" unicode="&#x43f;" horiz-adv-x="1002" 
d="M789 0h-276l147 846h-242l-147 -846h-277l188 1082h795z" />
    <glyph glyph-name="uni0440" unicode="&#x440;" horiz-adv-x="994" 
d="M905 508q-7 -59 -20.5 -121.5t-35 -122t-53 -112.5t-75 -92t-100 -61t-128.5 -19q-63 2 -113 29.5t-85 79.5l-96 -505h-276l260 1498l252 1l-15 -100q44 54 98 87.5t127 32.5q70 -1 119 -25.5t80.5 -65t48.5 -93.5t23 -111t4 -117.5t-7 -112.5zM636 584q2 21 5.5 50t4 60
t-2.5 61.5t-13.5 55t-31 39.5t-53.5 16q-45 1 -76.5 -19.5t-58.5 -53.5l-90 -510q17 -35 44.5 -51t67.5 -18q39 -2 68 11.5t50 36.5t35 54t22.5 64.5t13.5 67.5t8 64z" />
    <glyph glyph-name="uni0441" unicode="&#x441;" horiz-adv-x="924" 
d="M415 213q36 -1 61 12.5t41 36.5t25 52.5t14 59.5l259 1q-8 -84 -40.5 -157.5t-86.5 -127t-127.5 -83.5t-161.5 -28q-113 3 -185.5 48t-112 118t-50 165.5t0.5 190.5l9 78q9 69 27 135t46.5 125t67.5 108.5t90 84.5t115 53.5t142 16.5q92 -3 156 -38t103.5 -93.5
t55.5 -134t12 -159.5l-260 1q1 29 0.5 61.5t-9.5 61t-29.5 47.5t-58.5 21q-39 2 -66.5 -11t-46.5 -35.5t-31 -53t-19.5 -63t-11.5 -66t-7 -61.5l-7 -79q-2 -22 -6.5 -51.5t-6.5 -61t0 -62.5t12 -55.5t30.5 -40t55.5 -16.5z" />
    <glyph glyph-name="uni0442" unicode="&#x442;" horiz-adv-x="912" 
d="M900 849h-270l-147 -849h-276l147 849h-268l41 233h813z" />
    <glyph glyph-name="uni0443" unicode="&#x443;" horiz-adv-x="897" 
d="M411 476l245 606h302l-558 -1245q-23 -55 -52.5 -105t-69.5 -88.5t-91 -61t-116 -22.5q-32 0 -62 6.5t-60 14.5l24 221q8 -1 15 -1.5t15 -0.5q66 -1 106 28t67 88l39 88l-112 1078h289z" />
    <glyph glyph-name="uni0444" unicode="&#x444;" horiz-adv-x="1271" 
d="M55 528q7 56 20 121t34.5 130t52.5 124.5t74 104.5t99.5 71.5t128.5 24.5q26 -1 51 -7t50 -15l87 454h276l-88 -456q23 10 46.5 15t49.5 5q68 0 114 -29t75.5 -76.5t44 -107.5t19.5 -122.5t2.5 -122.5t-7.5 -106l-3 -22q-7 -55 -20.5 -117t-35 -122t-53 -115t-74 -96
t-97.5 -64.5t-124 -21.5q-29 1 -55 7t-52 15l-81 -416h-276l81 415q-46 -17 -92 -17q-65 0 -110.5 26t-75 69t-45 98t-21.5 113.5t-4 115t7 103.5zM908 539q2 17 5.5 47t6 65.5t2 72t-8 67.5t-24 51.5t-44.5 23.5q-7 1 -14 0.5t-14 -1.5l-122 -652q7 -1 13.5 -1.5t13.5 -0.5
q36 0 62.5 15t46 40.5t32.5 58t21 67t13 67.5t8 59zM328 508q-2 -18 -5.5 -45.5t-6 -58.5t-1.5 -63t9 -58.5t24 -45t44 -21.5q6 -1 12.5 -0.5t12.5 0.5l122 652l-21 3q-37 0 -64.5 -17.5t-47.5 -47t-33 -67t-21.5 -75.5t-13 -73.5t-7.5 -61.5z" />
    <glyph glyph-name="uni0445" unicode="&#x445;" horiz-adv-x="909" 
d="M471 763l172 319h303l-330 -542l159 -540h-283l-75 337l-181 -337h-305l343 566l-152 516h283z" />
    <glyph glyph-name="uni0446" unicode="&#x446;" horiz-adv-x="1086" 
d="M182 1082h277l-147 -847h242l147 847h276l-147 -849h144l-115 -554h-257l56 321h-664z" />
    <glyph glyph-name="uni0447" unicode="&#x447;" horiz-adv-x="983" 
d="M772 0h-277l66 335q-22 -4 -43.5 -6.5t-44.5 -2.5q-95 -1 -166.5 29t-118 84.5t-66 131.5t-9.5 169l55 342h277l-55 -343q-4 -35 -4 -66.5t9.5 -56t32 -39.5t63.5 -16q25 -1 49 1.5t48 6.5l95 513h277z" />
    <glyph glyph-name="uni0448" unicode="&#x448;" horiz-adv-x="1446" 
d="M459 1082l-147 -847h195l147 847h278l-148 -847h198l147 847h276l-188 -1082h-1223l188 1082h277z" />
    <glyph glyph-name="uni0449" unicode="&#x449;" horiz-adv-x="1594" 
d="M456 1082l-147 -847h195l147 847h278l-148 -847h198l147 847h276l-148 -848h196l-116 -555h-257l56 321h-1142l188 1082h277z" />
    <glyph glyph-name="uni044A" unicode="&#x44a;" horiz-adv-x="1152" 
d="M593 767l127 -1q83 -3 149 -31t111.5 -77t67.5 -117.5t16 -151.5q-6 -91 -43.5 -163.5t-97.5 -123t-138.5 -77t-166.5 -25.5h-434l147 846h-243l42 236h518zM552 532l-52 -299l130 -1q34 1 61.5 13.5t47.5 33.5t33 48.5t18 60.5q4 25 2.5 49.5t-10 44.5t-26.5 33t-47 16z
" />
    <glyph glyph-name="uni044B" unicode="&#x44b;" horiz-adv-x="1465" 
d="M422 767l127 -1q83 -3 149 -31t111.5 -77t67.5 -117.5t16 -151.5q-6 -91 -43.5 -163.5t-97.5 -123t-138.5 -77t-166.5 -25.5h-434l188 1082h276zM381 532l-52 -299l130 -1q34 1 61.5 13.5t47.5 33.5t33 48.5t18 60.5q4 25 2.5 49.5t-10 44.5t-26.5 33t-47 16zM1221 0
h-276l187 1082h277z" />
    <glyph glyph-name="uni044C" unicode="&#x44c;" horiz-adv-x="990" 
d="M422 767l127 -1q83 -3 149 -31t111.5 -77t67.5 -117.5t16 -151.5q-6 -91 -43.5 -163.5t-97.5 -123t-138.5 -77t-166.5 -25.5h-434l188 1082h276zM381 532l-52 -299l130 -1q34 1 61.5 13.5t47.5 33.5t33 48.5t18 60.5q4 25 2.5 49.5t-10 44.5t-26.5 33t-47 16z" />
    <glyph glyph-name="uni044D" unicode="&#x44d;" horiz-adv-x="912" 
d="M474 869q-34 0 -57 -14.5t-38 -38t-23.5 -52.5t-13.5 -56l-257 -2q6 82 38.5 155.5t86.5 128t126.5 85t158.5 28.5q74 -2 129.5 -26t95.5 -64t66 -93.5t39 -113.5t15.5 -124t-3.5 -125l-4 -29q-8 -66 -26 -133.5t-47 -129t-69 -114.5t-91.5 -92t-115.5 -60.5t-140 -19.5
q-90 3 -153 39t-102 95t-55 134.5t-12 156.5l261 -1q-2 -25 -1.5 -57t8 -61.5t25.5 -50t53 -22.5q46 -2 77.5 23t52 63t33 81t21.5 77h-200l31 177h182q3 28 4.5 68t-5.5 77t-27.5 63.5t-62.5 27.5z" />
    <glyph glyph-name="uni044E" unicode="&#x44e;" horiz-adv-x="1405" 
d="M409 669h80q21 88 60.5 168t99.5 139.5t140 94t182 31.5q74 -2 130.5 -23.5t98 -59t68.5 -87.5t42 -107.5t18 -121t-4 -127.5l-8 -71q-12 -103 -48.5 -199t-98 -169.5t-148.5 -116.5t-202 -40q-100 3 -169 41.5t-112 101t-61.5 143t-16.5 167.5h-92l-75 -433h-276
l187 1082h277zM744 503q-2 -21 -4.5 -50.5t-2.5 -61t4.5 -62.5t16 -56t32 -41.5t53.5 -18.5q57 -3 93 26.5t57.5 74.5t32 97t15.5 94l7 72q2 21 4.5 51t2.5 61.5t-5 63t-17 57t-33 41.5t-54 18q-54 3 -90 -27.5t-57.5 -76t-32.5 -97.5t-15 -92z" />
    <glyph glyph-name="uni044F" unicode="&#x44f;" horiz-adv-x="990" 
d="M944 1082l-188 -1082h-274l65 373h-93l-237 -373h-290l279 431q-66 51 -95 124t-24 155q6 89 44 158.5t98 117.5t137 72.5t162 24.5zM361 702q-8 -48 12 -84t71 -41l138 -1l48 273l-113 1q-30 -2 -56.5 -14t-47 -32t-34 -46t-18.5 -56z" />
    <glyph glyph-name="uni0450" unicode="&#x450;" horiz-adv-x="961" 
d="M436 -20q-109 1 -186 42t-123.5 109t-63.5 158t-6 190l11 89q13 104 47.5 201.5t94.5 172.5t147.5 119t204.5 41q112 -3 181.5 -50t105.5 -122t44 -168t-4 -187l-19 -129h-540q-5 -43 -3 -83.5t16 -72.5t44 -52.5t81 -21.5q69 -2 129.5 24.5t112.5 70.5l93 -172
q-31 -42 -73.5 -72.5t-90.5 -50t-100 -28.5t-103 -8zM535 869q-48 2 -79.5 -19t-52 -54t-33 -74t-21.5 -78l275 -1l5 29q5 31 6 65t-7.5 63t-30.5 48t-62 21zM702 1226h-217l-220 310h293z" />
    <glyph glyph-name="uni0451" unicode="&#x451;" horiz-adv-x="961" 
d="M436 -20q-109 1 -186 42t-123.5 109t-63.5 158t-6 190l11 89q13 104 47.5 201.5t94.5 172.5t147.5 119t204.5 41q112 -3 181.5 -50t105.5 -122t44 -168t-4 -187l-19 -129h-540q-5 -43 -3 -83.5t16 -72.5t44 -52.5t81 -21.5q69 -2 129.5 24.5t112.5 70.5l93 -172
q-31 -42 -73.5 -72.5t-90.5 -50t-100 -28.5t-103 -8zM535 869q-48 2 -79.5 -19t-52 -54t-33 -74t-21.5 -78l275 -1l5 29q5 31 6 65t-7.5 63t-30.5 48t-62 21zM216 1361q0 28 11 52t29.5 42t43 28t51.5 11q27 0 51 -9t43 -25.5t30.5 -39.5t11.5 -51t-10.5 -52t-29 -41.5
t-43 -27.5t-51.5 -11q-27 0 -51.5 8.5t-43.5 25t-30.5 39.5t-11.5 51zM691 1361q0 28 10.5 52t29 41.5t43 27.5t51.5 11q27 0 51.5 -9t43 -25.5t30 -39.5t11.5 -50q0 -28 -10.5 -52t-29 -41.5t-43 -27.5t-51.5 -11q-27 0 -51.5 8.5t-43.5 25t-30 39.5t-11 51z" />
    <glyph glyph-name="uni0452" unicode="&#x452;" horiz-adv-x="988" 
d="M664 1189h-200l-39 -203q45 52 100.5 85t126.5 32q57 -1 98.5 -20t69.5 -50.5t45 -73.5t24.5 -88.5t7.5 -95t-5 -94.5l-35 -209h3l-84 -505q-11 -81 -37.5 -155t-72 -130t-112.5 -89.5t-157 -33.5q-33 1 -65 5.5t-64 12.5l34 233q20 -7 40 -12t41 -4q31 1 52 18.5
t34 43.5t19.5 56t10.5 54l5 34h-3l113 684q3 27 4.5 58.5t-5 58.5t-25.5 45.5t-56 18.5q-42 1 -72 -19.5t-56 -50.5l-139 -795h-277l206 1189h-121l33 183h120l29 164h276l-32 -164h197z" />
    <glyph glyph-name="uni0453" unicode="&#x453;" horiz-adv-x="746" 
d="M757 846h-340l-147 -846h-276l188 1082h617zM572 1531h326l-319 -310h-246z" />
    <glyph glyph-name="uni0454" unicode="&#x454;" horiz-adv-x="912" 
d="M411 213q36 -1 61 12.5t41 36.5t25 52.5t14 59.5l259 1q-8 -84 -40.5 -157.5t-86.5 -127t-127.5 -83.5t-161.5 -28q-113 3 -185.5 48t-112 118t-50 165.5t0.5 190.5l9 78q9 69 27 135t46.5 125t67.5 108.5t90 84.5t115 53.5t142 16.5q92 -3 156 -38t103.5 -93.5
t55.5 -134t12 -159.5l-260 1q1 29 0.5 61.5t-9.5 61t-29.5 47.5t-58.5 21q-52 2 -84.5 -21t-51.5 -60.5t-28 -83t-14 -87.5h211l-32 -177h-198q-5 -36 -6.5 -75.5t6.5 -73t29.5 -55.5t63.5 -23z" />
    <glyph glyph-name="uni0455" unicode="&#x455;" horiz-adv-x="912" 
d="M515 297q4 29 -10.5 51t-38 39.5t-51 30t-47.5 22.5q-53 26 -100 56t-82 68.5t-54 88t-16 114.5q4 79 38.5 142t89 106.5t124.5 66t146 21.5q78 -2 142 -25.5t110 -67.5t71 -106.5t24 -141.5h-276q1 24 -1 47.5t-11 42t-26.5 29.5t-47.5 11q-48 0 -81.5 -32.5
t-41.5 -78.5q-5 -28 9.5 -49t38 -37t50 -28t45.5 -21q57 -26 106.5 -56t85 -69.5t54.5 -91t15 -120.5q-5 -83 -42 -145.5t-95 -104t-131.5 -61.5t-149.5 -18q-78 2 -143.5 28.5t-113 73t-74 111t-25.5 143.5l263 -1q-1 -31 3 -58t16.5 -46.5t34.5 -30.5t58 -11q52 1 88.5 28
t45.5 80z" />
    <glyph glyph-name="uni0456" unicode="&#x456;" horiz-adv-x="511" 
d="M285 0h-277l188 1082h277zM232 1357q0 33 10.5 61t30.5 49t48 33.5t61 12.5q32 1 59 -10t47 -30.5t31.5 -46.5t11.5 -59q0 -33 -10.5 -61.5t-30.5 -49.5t-48 -33.5t-61 -12.5q-32 -1 -59.5 10t-47 30.5t-31 47t-11.5 59.5z" />
    </font>
</defs>
</svg>
